<svg width="227" height="227" viewBox="0 0 227 227" fill="none" xmlns="http://www.w3.org/2000/svg">
<g opacity="0.6">
<path d="M206.972 127.944C206.967 127.997 206.925 128.02 206.845 128.013C206.765 128.006 206.728 127.976 206.732 127.923C206.763 127.578 206.794 127.306 206.825 127.108L206.951 125.914L207.034 124.757C207.039 124.543 207.057 124.264 207.088 123.919C207.092 123.879 207.133 123.862 207.213 123.869C207.293 123.877 207.331 123.9 207.327 123.94C207.29 124.352 207.359 124.639 207.532 124.801C207.717 124.979 208.075 125.091 208.606 125.138L211.475 125.394C212.192 125.458 212.734 125.379 213.102 125.157C213.469 124.949 213.674 124.592 213.719 124.088C213.75 123.742 213.707 123.397 213.59 123.052C213.473 122.707 213.3 122.404 213.069 122.142L212.949 122.132L208.905 121.771C208.374 121.724 208.002 121.765 207.79 121.893C207.59 122.036 207.471 122.313 207.435 122.725C207.43 122.778 207.388 122.801 207.308 122.794C207.229 122.787 207.191 122.757 207.196 122.703C207.227 122.358 207.257 122.086 207.288 121.888L207.414 120.695L207.497 119.538C207.503 119.324 207.521 119.044 207.551 118.699C207.555 118.659 207.597 118.643 207.676 118.65C207.756 118.657 207.794 118.681 207.79 118.72C207.754 119.132 207.822 119.419 207.995 119.582C208.18 119.759 208.538 119.871 209.069 119.919L211.938 120.174C212.655 120.238 213.198 120.159 213.565 119.938C213.932 119.729 214.138 119.373 214.182 118.868C214.211 118.549 214.173 118.225 214.068 117.894C213.976 117.578 213.827 117.29 213.623 117.031L209.36 116.652C208.828 116.604 208.457 116.645 208.244 116.773C208.044 116.916 207.926 117.193 207.889 117.605C207.886 117.645 207.844 117.661 207.765 117.654C207.685 117.647 207.647 117.623 207.65 117.584C207.681 117.238 207.712 116.967 207.743 116.769L207.869 115.575L207.953 114.398C207.958 114.197 207.975 113.925 208.006 113.579C208.009 113.539 208.051 113.523 208.131 113.53C208.21 113.537 208.249 113.561 208.245 113.601C208.208 114.012 208.277 114.299 208.45 114.462C208.636 114.626 208.995 114.732 209.526 114.779L213.271 115.112C213.683 115.149 213.986 115.123 214.182 115.033C214.389 114.958 214.502 114.814 214.521 114.601C214.541 114.376 214.476 114.049 214.327 113.62L214.331 113.58C214.334 113.541 214.37 113.51 214.439 113.49C214.507 113.482 214.546 113.493 214.557 113.52L215.666 116.41C215.685 116.492 215.694 116.54 215.693 116.553C215.68 116.699 215.522 116.826 215.218 116.932C214.927 117.04 214.541 117.086 214.061 117.07C215.057 118.069 215.508 119.087 215.416 120.123C215.361 120.747 215.164 121.231 214.825 121.576C214.487 121.921 214.029 122.107 213.451 122.136C214.551 123.158 215.052 124.226 214.953 125.342C214.889 126.059 214.635 126.585 214.19 126.921C213.744 127.269 213.103 127.406 212.266 127.332L208.442 126.991C207.91 126.944 207.539 126.984 207.326 127.112C207.126 127.255 207.008 127.532 206.972 127.944Z" fill="white"/>
<path d="M205.428 138.593C205.415 138.645 205.375 138.669 205.307 138.666C205.249 138.68 205.213 138.657 205.2 138.599L204.733 136.366C204.719 136.308 204.722 136.24 204.741 136.162C204.791 135.955 204.95 135.78 205.217 135.64C205.481 135.512 205.811 135.455 206.205 135.468L205.825 134.491C205.677 134.139 205.582 133.821 205.541 133.537C205.514 133.255 205.539 132.953 205.617 132.629C205.752 132.072 205.977 131.68 206.293 131.455C206.608 131.23 206.986 131.171 207.426 131.278C207.776 131.363 208.034 131.515 208.201 131.734C208.38 131.956 208.498 132.204 208.555 132.479C208.622 132.769 208.678 133.16 208.724 133.652L208.781 134.18L208.999 136.085L210.106 136.355C210.936 136.556 211.555 136.631 211.966 136.58C212.373 136.542 212.615 136.361 212.694 136.037C212.86 135.35 212.423 134.832 211.383 134.483C211.004 134.35 210.753 134.165 210.632 133.93C210.507 133.708 210.486 133.428 210.568 133.091C210.646 132.767 210.769 132.543 210.936 132.419C211.113 132.311 211.312 132.284 211.532 132.338C211.921 132.432 212.235 132.749 212.475 133.287C212.728 133.829 212.888 134.444 212.954 135.133C213.017 135.834 212.989 136.431 212.87 136.923C212.732 137.494 212.439 137.909 211.992 138.171C211.554 138.449 210.972 138.5 210.247 138.323L206.807 137.487C206.431 137.396 206.124 137.39 205.885 137.469C205.643 137.561 205.493 137.73 205.433 137.977C205.389 138.158 205.389 138.357 205.433 138.573L205.428 138.593ZM206.545 135.51C206.6 135.509 206.686 135.523 206.803 135.552L208.668 136.005L208.482 135.075C208.478 135.033 208.458 134.89 208.421 134.648C208.396 134.409 208.307 134.181 208.154 133.966C207.997 133.763 207.789 133.63 207.53 133.567C207.219 133.492 206.95 133.529 206.721 133.679C206.502 133.846 206.362 134.058 206.299 134.318C206.249 134.525 206.268 134.756 206.357 135.011L206.545 135.51Z" fill="white"/>
<path d="M200.563 150.317C200.55 150.354 200.505 150.359 200.43 150.331C200.355 150.303 200.325 150.271 200.338 150.233C200.459 149.908 200.56 149.654 200.642 149.471L201.077 148.353L201.594 146.902C201.66 146.684 201.76 146.394 201.894 146.032C201.908 145.994 201.953 145.989 202.028 146.017C202.103 146.045 202.133 146.078 202.119 146.115C201.953 146.566 202 146.839 202.263 146.937C202.4 146.988 202.544 146.984 202.693 146.926L206.222 145.805L206.036 145.33L204.142 144.627C203.642 144.441 203.273 144.382 203.035 144.45C202.804 144.535 202.617 144.771 202.473 145.159C202.455 145.209 202.408 145.22 202.333 145.192C202.258 145.164 202.23 145.125 202.249 145.075C202.369 144.75 202.472 144.49 202.559 144.295L202.981 143.214L203.379 142.081C203.436 141.889 203.524 141.631 203.645 141.306C203.654 141.281 203.696 141.282 203.771 141.31C203.846 141.338 203.879 141.364 203.87 141.389C203.726 141.777 203.716 142.072 203.84 142.274C203.972 142.494 204.288 142.697 204.788 142.883L214.312 146.421C214.749 146.584 215.078 146.656 215.298 146.638C215.513 146.633 215.658 146.53 215.732 146.33C215.797 146.155 215.816 145.892 215.79 145.541L215.797 145.522C215.81 145.485 215.856 145.459 215.932 145.444C216.016 145.447 216.06 145.464 216.063 145.493L216.343 148.712L216.327 148.813C216.304 148.875 216.249 148.926 216.164 148.966C216.086 149.022 216.022 149.041 215.972 149.022L206.467 145.491L207.508 147.862C207.688 148.298 207.934 148.575 208.246 148.691C208.409 148.751 208.563 148.737 208.709 148.649C208.868 148.566 208.989 148.412 209.073 148.187C209.082 148.162 209.124 148.163 209.199 148.191C209.274 148.219 209.307 148.246 209.298 148.271C209.163 148.633 209.053 148.912 208.966 149.108L208.399 150.582L207.911 151.958C207.858 152.138 207.774 152.384 207.658 152.697C207.645 152.734 207.6 152.739 207.525 152.711C207.45 152.683 207.42 152.651 207.433 152.613C207.633 152.076 207.724 151.406 207.709 150.603C207.701 149.818 207.543 149.055 207.234 148.315L206.865 147.409L202.614 148.753C202.03 148.948 201.571 149.169 201.238 149.415C200.913 149.679 200.688 149.979 200.563 150.317Z" fill="white"/>
<path d="M197.58 158.881C197.568 158.904 197.532 158.916 197.473 158.915C197.407 158.926 197.368 158.914 197.357 158.878C197.155 158.219 197.075 157.616 197.117 157.067C197.158 156.519 197.316 155.978 197.589 155.444C197.973 154.696 198.458 154.129 199.047 153.742C199.647 153.361 200.28 153.162 200.948 153.146C201.628 153.136 202.276 153.289 202.892 153.606C203.58 153.96 204.126 154.459 204.53 155.102C204.935 155.745 205.148 156.454 205.17 157.23C205.197 158.024 205.013 158.806 204.618 159.577C204.24 160.313 203.782 160.797 203.244 161.03C202.705 161.262 202.086 161.199 201.386 160.839C201.019 160.65 200.868 160.49 200.935 160.359L203.135 156.026C203.058 155.971 202.925 155.895 202.735 155.797C201.692 155.26 200.752 155.077 199.916 155.246C199.074 155.428 198.421 155.969 197.959 156.871C197.795 157.191 197.69 157.483 197.646 157.745C197.601 158.007 197.58 158.37 197.581 158.836L197.58 158.881ZM204.609 158.718C204.81 158.327 204.805 157.912 204.595 157.474C204.397 157.042 204.023 156.632 203.472 156.244L202.185 158.843C202.795 159.142 203.303 159.291 203.709 159.29C204.114 159.288 204.414 159.098 204.609 158.718Z" fill="white"/>
<path d="M187.572 173.971C187.548 174.003 187.501 174.01 187.432 173.992C187.355 173.984 187.322 173.96 187.336 173.92L187.907 170.904C187.913 170.874 187.927 170.843 187.951 170.811C188.031 170.704 188.214 170.692 188.503 170.773C188.793 170.874 189.14 171.066 189.544 171.35C189.235 170.022 189.387 168.946 189.999 168.122C190.436 167.534 190.964 167.204 191.582 167.132C192.203 167.079 192.812 167.276 193.411 167.722L195.768 169.48C196.463 169.998 196.933 170.091 197.18 169.759C197.267 169.641 197.329 169.48 197.366 169.274L197.378 169.258C197.41 169.215 197.46 169.203 197.53 169.221C197.61 169.248 197.643 169.281 197.63 169.321L197.058 172.237L197.014 172.329C196.974 172.383 196.908 172.417 196.815 172.43C196.724 172.463 196.658 172.463 196.615 172.431L193.071 169.789C191.917 168.928 191.009 168.942 190.349 169.83C190.174 170.066 190.048 170.337 189.969 170.644C189.893 170.97 189.874 171.297 189.913 171.625L192.655 173.669C193.349 174.187 193.82 174.281 194.067 173.949C194.154 173.831 194.22 173.664 194.264 173.448L194.276 173.432C194.3 173.4 194.347 173.393 194.416 173.411C194.496 173.438 194.53 173.471 194.517 173.511L193.944 176.427C193.939 176.457 193.925 176.487 193.901 176.519C193.861 176.573 193.794 176.607 193.701 176.62C193.611 176.653 193.544 176.653 193.501 176.621L189.236 173.441C188.873 173.17 188.592 173.011 188.395 172.964C188.19 172.927 188.027 172.989 187.908 173.149C187.797 173.299 187.693 173.562 187.595 173.939L187.572 173.971Z" fill="white"/>
<path d="M182.204 177.637C182.655 177.165 183.104 176.801 183.551 176.546L180.78 173.888C180.491 173.612 180.251 173.438 180.061 173.366C179.862 173.304 179.656 173.337 179.442 173.465C179.209 173.592 178.913 173.844 178.554 174.22C178.526 174.249 178.483 174.236 178.426 174.18C178.368 174.125 178.353 174.083 178.38 174.054C178.721 173.697 178.993 173.422 179.196 173.229L180.302 172.101L181.103 171.234C181.232 171.08 181.42 170.873 181.669 170.613C181.697 170.584 181.74 170.597 181.797 170.653C181.855 170.708 181.87 170.75 181.842 170.779C181.621 171.01 181.489 171.207 181.445 171.368C181.383 171.53 181.401 171.695 181.499 171.862C181.587 172.04 181.776 172.267 182.065 172.544L188.748 178.953C189.056 179.248 189.31 179.427 189.509 179.488C189.708 179.55 189.891 179.494 190.057 179.321C190.204 179.167 190.349 178.88 190.49 178.462L190.518 178.433C190.545 178.404 190.593 178.403 190.659 178.43C190.735 178.447 190.768 178.47 190.76 178.499L189.793 181.507C189.785 181.535 189.766 181.564 189.739 181.593C189.647 181.689 189.482 181.698 189.245 181.618C188.998 181.548 188.721 181.393 188.415 181.155C188.377 182.467 188.004 183.495 187.295 184.237C186.908 184.642 186.443 184.916 185.899 185.06C185.347 185.214 184.767 185.203 184.16 185.027C183.553 184.852 182.98 184.506 182.441 183.989C181.672 183.251 181.188 182.482 180.992 181.685C180.805 180.896 180.836 180.149 181.084 179.446C181.333 178.761 181.707 178.158 182.204 177.637ZM187.398 182.508C187.813 182.074 188.037 181.531 188.069 180.879L187.954 180.768L184.475 177.432C184.032 177.414 183.637 177.46 183.291 177.571C182.954 177.692 182.625 177.921 182.302 178.258C181.372 179.232 181.734 180.512 183.39 182.099C184.121 182.801 184.85 183.167 185.576 183.199C186.303 183.249 186.91 183.018 187.398 182.508Z" fill="white"/>
<path d="M167.543 192.133C167.5 192.164 167.453 192.157 167.403 192.111C167.35 192.084 167.337 192.044 167.364 191.991L168.446 189.981C168.473 189.928 168.519 189.877 168.584 189.83C168.756 189.704 168.989 189.673 169.284 189.738C169.568 189.81 169.857 189.979 170.15 190.243L170.489 189.25C170.602 188.886 170.735 188.581 170.887 188.338C171.046 188.104 171.261 187.889 171.529 187.692C171.992 187.353 172.416 187.198 172.802 187.229C173.188 187.26 173.515 187.458 173.782 187.824C173.995 188.115 174.094 188.397 174.081 188.672C174.075 188.958 174.005 189.224 173.872 189.471C173.736 189.736 173.527 190.071 173.245 190.477L172.948 190.918L171.887 192.516L172.56 193.436C173.064 194.124 173.49 194.581 173.836 194.807C174.172 195.04 174.474 195.058 174.743 194.86C175.313 194.442 175.312 193.764 174.742 192.827C174.538 192.48 174.465 192.178 174.524 191.92C174.572 191.669 174.736 191.441 175.015 191.236C175.284 191.039 175.522 190.947 175.73 190.96C175.935 190.991 176.104 191.098 176.238 191.281C176.474 191.604 176.51 192.049 176.347 192.616C176.191 193.193 175.917 193.767 175.524 194.336C175.121 194.914 174.715 195.352 174.306 195.652C173.834 195.999 173.342 196.129 172.831 196.041C172.318 195.971 171.84 195.635 171.399 195.033L169.309 192.176C169.08 191.864 168.85 191.661 168.616 191.568C168.372 191.483 168.148 191.515 167.943 191.665C167.793 191.775 167.665 191.927 167.559 192.121L167.543 192.133ZM170.383 190.494C170.425 190.529 170.482 190.595 170.553 190.692L171.686 192.241L172.143 191.41C172.168 191.375 172.244 191.253 172.371 191.044C172.507 190.845 172.585 190.614 172.607 190.35C172.618 190.094 172.544 189.858 172.387 189.643C172.198 189.384 171.968 189.239 171.696 189.207C171.422 189.193 171.177 189.265 170.962 189.423C170.79 189.55 170.656 189.739 170.56 189.991L170.383 190.494Z" fill="white"/>
<path d="M163.535 202.687C163.271 202.843 162.961 202.895 162.605 202.842C162.244 202.808 161.986 202.659 161.83 202.395C161.688 202.153 161.644 201.908 161.698 201.659C161.759 201.422 161.91 201.232 162.151 201.089C162.323 200.987 162.487 200.937 162.643 200.938C162.786 200.945 162.956 200.984 163.152 201.054C163.323 201.108 163.463 201.134 163.57 201.132C163.673 201.149 163.776 201.127 163.879 201.066C163.994 200.998 164.093 200.877 164.176 200.704C164.255 200.549 164.351 200.252 164.464 199.813L162.28 196.11C162.009 195.65 161.713 195.399 161.394 195.356C161.081 195.324 160.632 195.481 160.047 195.827C160.001 195.855 159.958 195.834 159.917 195.765C159.876 195.696 159.879 195.648 159.925 195.621C160.326 195.383 160.645 195.202 160.882 195.078L162.286 194.27L163.291 193.652C163.457 193.538 163.689 193.393 163.987 193.217C164.021 193.197 164.059 193.221 164.099 193.29C164.14 193.359 164.143 193.403 164.109 193.424C163.753 193.634 163.56 193.857 163.528 194.093C163.503 194.34 163.627 194.693 163.898 195.152L165.808 198.391C166.018 198.747 166.216 198.978 166.403 199.085C166.584 199.209 166.767 199.217 166.951 199.109C167.146 198.993 167.374 198.75 167.635 198.379L167.669 198.358C167.704 198.338 167.749 198.35 167.806 198.394C167.851 198.444 167.866 198.482 167.85 198.507L166.148 201.094C166.093 201.158 166.059 201.193 166.048 201.2C165.922 201.275 165.736 201.222 165.49 201.042C165.24 200.88 164.985 200.605 164.725 200.217C164.539 200.977 164.354 201.544 164.171 201.915C163.977 202.294 163.764 202.551 163.535 202.687Z" fill="white"/>
<path d="M152.652 200.91C152.604 200.933 152.557 200.926 152.51 200.89C152.451 200.859 152.433 200.823 152.458 200.782C152.689 200.123 152.962 199.584 153.279 199.165C153.601 198.758 153.996 198.441 154.464 198.216C154.993 197.961 155.504 197.87 155.998 197.943C156.491 198.016 156.882 198.353 157.171 198.954L159.094 202.956C159.273 203.328 159.463 203.555 159.664 203.635C159.866 203.716 160.141 203.672 160.489 203.504C160.501 203.498 160.528 203.508 160.569 203.532C160.598 203.562 160.622 203.596 160.639 203.632C160.662 203.68 160.673 203.719 160.673 203.748C160.678 203.79 160.669 203.817 160.645 203.829C160.044 204.148 159.615 204.518 159.358 204.937C159.089 205.363 158.971 205.871 159.004 206.463C159.003 206.522 158.966 206.569 158.894 206.604C158.81 206.645 158.757 206.641 158.734 206.593L158.041 205.151C157.35 205.499 156.595 205.929 155.777 206.442C155.752 206.454 155.705 206.417 155.635 206.333C155.559 206.266 155.495 206.178 155.443 206.07C155.385 205.95 155.351 205.818 155.341 205.675C155.325 205.549 155.344 205.481 155.398 205.47C156.26 205.262 157.06 204.987 157.798 204.646L155.745 200.374C155.526 199.917 155.25 199.635 154.918 199.529C154.574 199.429 154.21 199.471 153.825 199.656C153.345 199.888 152.963 200.294 152.68 200.874L152.652 200.91Z" fill="white"/>
<path d="M151.864 210.441C152.223 210.297 152.541 210.284 152.818 210.403C153.095 210.522 153.306 210.76 153.449 211.119C153.578 211.441 153.581 211.735 153.457 212C153.326 212.282 153.087 212.493 152.741 212.632C152.395 212.772 152.091 212.786 151.832 212.674C151.572 212.563 151.375 212.341 151.241 212.006C151.097 211.648 151.078 211.332 151.185 211.059C151.291 210.787 151.517 210.581 151.864 210.441ZM149.965 200.535C150.002 200.52 150.036 200.55 150.065 200.624C150.095 200.698 150.092 200.743 150.054 200.758C149.671 200.912 149.446 201.103 149.379 201.331C149.317 201.571 149.386 201.939 149.584 202.434L150.915 205.758C151.083 206.178 151.248 206.464 151.409 206.615C151.57 206.766 151.749 206.802 151.947 206.722C152.108 206.658 152.31 206.498 152.552 206.242L152.571 206.235C152.62 206.215 152.67 206.231 152.719 206.283C152.774 206.347 152.785 206.393 152.753 206.42L150.471 208.846L150.422 208.887C150.361 208.912 150.286 208.905 150.2 208.868C150.113 208.831 150.06 208.788 150.04 208.739L149.876 208.33C149.703 207.825 149.472 207.214 149.185 206.496L147.839 203.135C147.641 202.64 147.437 202.327 147.226 202.196C147.008 202.082 146.708 202.102 146.324 202.257C146.287 202.272 146.254 202.242 146.224 202.168C146.194 202.093 146.198 202.049 146.235 202.034C146.557 201.905 146.813 201.809 147.003 201.747L148.124 201.318L149.212 200.859C149.392 200.772 149.644 200.664 149.965 200.535Z" fill="white"/>
<path d="M146.287 209.216C146.174 208.846 145.948 208.567 145.611 208.378C145.261 208.193 144.793 208.03 144.206 207.89C143.636 207.759 143.21 207.646 142.93 207.551C142.641 207.473 142.356 207.317 142.074 207.083C141.797 206.861 141.596 206.546 141.47 206.139C141.337 205.705 141.32 205.264 141.419 204.815C141.518 204.366 141.747 203.953 142.106 203.578C142.469 203.215 142.949 202.941 143.548 202.756C144.249 202.54 144.964 202.508 145.694 202.659C145.794 202.712 145.856 202.777 145.88 202.853L146.5 204.734C146.511 204.772 146.485 204.801 146.422 204.821C146.349 204.857 146.303 204.864 146.282 204.843C145.882 204.269 145.378 203.831 144.77 203.53C144.161 203.23 143.615 203.154 143.131 203.303C142.863 203.386 142.678 203.534 142.576 203.746C142.462 203.963 142.453 204.231 142.551 204.549C142.696 205.021 142.944 205.349 143.293 205.534C143.647 205.732 144.13 205.897 144.743 206.029C145.263 206.134 145.662 206.227 145.938 206.309C146.214 206.392 146.485 206.545 146.749 206.771C147.014 206.996 147.209 207.313 147.334 207.721C147.565 208.473 147.466 209.103 147.037 209.612C146.611 210.134 146.01 210.515 145.233 210.755C144.94 210.845 144.673 210.907 144.432 210.939C144.178 210.975 143.887 210.982 143.559 210.957C143.432 210.954 143.353 210.902 143.322 210.8C143.224 210.481 143.154 210.231 143.112 210.049L142.837 209.087C142.825 209.049 142.858 209.018 142.934 208.994C143.011 208.97 143.055 208.978 143.066 209.016C143.141 209.258 143.323 209.488 143.613 209.706C143.907 209.936 144.251 210.102 144.645 210.204C145.026 210.309 145.389 210.309 145.733 210.203C146.255 210.042 146.44 209.713 146.287 209.216Z" fill="white"/>
<path d="M129.848 207.898C129.795 207.908 129.751 207.89 129.715 207.843C129.665 207.798 129.657 207.759 129.691 207.725C130.079 207.145 130.478 206.691 130.889 206.365C131.303 206.051 131.765 205.844 132.275 205.742C132.85 205.628 133.368 205.668 133.828 205.862C134.288 206.056 134.582 206.48 134.712 207.133L135.576 211.489C135.656 211.894 135.784 212.161 135.959 212.289C136.134 212.418 136.411 212.444 136.79 212.369C136.803 212.366 136.827 212.382 136.861 212.416C136.882 212.452 136.896 212.49 136.904 212.529C136.914 212.582 136.915 212.622 136.907 212.651C136.902 212.693 136.886 212.716 136.86 212.722C136.199 212.881 135.691 213.131 135.337 213.473C134.971 213.818 134.73 214.281 134.614 214.861C134.598 214.919 134.551 214.955 134.472 214.971C134.381 214.989 134.33 214.972 134.319 214.92L134.008 213.35C133.252 213.514 132.414 213.742 131.493 214.034C131.467 214.04 131.43 213.993 131.384 213.893C131.326 213.809 131.286 213.709 131.262 213.591C131.237 213.46 131.237 213.324 131.263 213.183C131.279 213.057 131.314 212.996 131.369 212.999C132.256 213.013 133.099 212.947 133.899 212.801L132.977 208.152C132.878 207.655 132.682 207.313 132.386 207.127C132.078 206.944 131.715 206.894 131.296 206.977C130.773 207.081 130.302 207.379 129.883 207.87L129.848 207.898Z" fill="white"/>
<path d="M108.693 208.192C108.64 208.193 108.612 208.153 108.611 208.073C108.61 207.993 108.636 207.953 108.689 207.952C109.036 207.946 109.309 207.949 109.509 207.959L110.71 207.961L111.869 207.923C112.082 207.906 112.362 207.895 112.709 207.89C112.749 207.889 112.769 207.929 112.771 208.009C112.772 208.089 112.752 208.129 112.712 208.13C112.299 208.136 112.021 208.234 111.877 208.423C111.72 208.625 111.646 208.993 111.654 209.526L111.698 212.406C111.709 213.126 111.844 213.657 112.103 214C112.348 214.343 112.724 214.51 113.231 214.502C113.577 214.497 113.916 214.418 114.247 214.267C114.578 214.115 114.862 213.91 115.098 213.653L115.096 213.533L115.033 209.474C115.025 208.941 114.946 208.575 114.796 208.377C114.634 208.193 114.346 208.104 113.932 208.111C113.879 208.112 113.852 208.072 113.85 207.992C113.849 207.912 113.875 207.872 113.929 207.871C114.275 207.865 114.549 207.868 114.749 207.878L115.949 207.88L117.109 207.842C117.322 207.825 117.601 207.814 117.948 207.809C117.988 207.808 118.009 207.848 118.01 207.928C118.011 208.008 117.992 208.048 117.952 208.049C117.539 208.055 117.26 208.153 117.116 208.342C116.959 208.544 116.885 208.912 116.893 209.445L116.938 212.325C116.949 213.045 117.084 213.576 117.342 213.919C117.588 214.262 117.963 214.429 118.47 214.421C118.79 214.416 119.109 214.345 119.427 214.207C119.732 214.082 120.002 213.904 120.239 213.674L120.173 209.394C120.165 208.861 120.086 208.496 119.936 208.298C119.773 208.114 119.485 208.025 119.072 208.031C119.032 208.032 119.011 207.992 119.01 207.912C119.009 207.832 119.028 207.792 119.068 207.791C119.415 207.786 119.688 207.788 119.888 207.799L121.088 207.8L122.268 207.762C122.468 207.745 122.741 207.734 123.087 207.729C123.127 207.729 123.148 207.768 123.149 207.848C123.151 207.928 123.131 207.968 123.091 207.969C122.678 207.975 122.399 208.073 122.256 208.262C122.112 208.464 122.044 208.832 122.053 209.365L122.111 213.125C122.117 213.538 122.175 213.837 122.284 214.022C122.381 214.221 122.536 214.318 122.749 214.315C122.976 214.312 123.294 214.213 123.705 214.02L123.745 214.02C123.785 214.019 123.818 214.052 123.846 214.118C123.86 214.185 123.854 214.225 123.828 214.238L121.069 215.641C120.99 215.669 120.943 215.683 120.93 215.683C120.783 215.686 120.641 215.541 120.503 215.25C120.365 214.972 120.28 214.593 120.246 214.114C119.356 215.208 118.391 215.763 117.351 215.779C116.724 215.789 116.222 215.643 115.844 215.342C115.466 215.041 115.233 214.605 115.144 214.033C114.242 215.233 113.231 215.843 112.112 215.86C111.392 215.871 110.842 215.673 110.462 215.265C110.069 214.858 109.866 214.234 109.853 213.394L109.794 209.555C109.786 209.022 109.707 208.656 109.557 208.458C109.394 208.274 109.106 208.185 108.693 208.192Z" fill="white"/>
<path d="M97.556 207.659C97.5032 207.651 97.4748 207.614 97.4708 207.546C97.4517 207.489 97.4704 207.452 97.5269 207.432L99.7023 206.747C99.7588 206.728 99.8267 206.724 99.9059 206.735C100.117 206.765 100.306 206.906 100.473 207.158C100.627 207.408 100.716 207.73 100.742 208.124L101.677 207.649C102.012 207.467 102.319 207.342 102.597 207.273C102.874 207.217 103.178 207.213 103.508 207.259C104.076 207.338 104.488 207.524 104.743 207.815C104.999 208.107 105.095 208.477 105.033 208.926C104.983 209.283 104.858 209.555 104.656 209.742C104.453 209.942 104.218 210.085 103.951 210.168C103.668 210.263 103.285 210.358 102.801 210.452L102.281 210.561L100.407 210.965L100.25 212.094C100.132 212.94 100.119 213.564 100.211 213.967C100.289 214.368 100.494 214.592 100.824 214.638C101.524 214.736 101.995 214.25 102.239 213.18C102.334 212.79 102.492 212.522 102.714 212.378C102.923 212.232 103.199 212.184 103.542 212.232C103.872 212.278 104.107 212.378 104.247 212.532C104.372 212.698 104.419 212.893 104.388 213.117C104.333 213.513 104.049 213.857 103.537 214.149C103.024 214.455 102.428 214.674 101.749 214.808C101.058 214.94 100.461 214.971 99.9595 214.901C99.3785 214.82 98.9354 214.57 98.6304 214.15C98.3104 213.742 98.2019 213.168 98.3049 212.428L98.7935 208.922C98.8468 208.539 98.8222 208.233 98.7196 208.003C98.6038 207.772 98.4204 207.638 98.1695 207.603C97.9847 207.577 97.7868 207.597 97.5758 207.661L97.556 207.659ZM100.735 208.467C100.741 208.521 100.735 208.608 100.719 208.727L100.454 210.629L101.361 210.351C101.402 210.344 101.542 210.309 101.779 210.248C102.015 210.2 102.232 210.09 102.431 209.915C102.617 209.74 102.729 209.519 102.765 209.255C102.81 208.938 102.746 208.674 102.573 208.461C102.386 208.26 102.16 208.141 101.896 208.104C101.685 208.074 101.457 208.117 101.212 208.23L100.735 208.467Z" fill="white"/>
<path d="M85.4378 203.963C85.3991 203.952 85.3899 203.909 85.4102 203.831C85.4305 203.754 85.46 203.72 85.4987 203.73C85.8339 203.819 86.0966 203.895 86.2866 203.959L87.442 204.283L88.9363 204.656C89.1589 204.701 89.4571 204.773 89.831 204.871C89.8697 204.881 89.8789 204.925 89.8586 205.003C89.8383 205.08 89.8088 205.114 89.7701 205.103C89.3059 204.981 89.0383 205.055 88.9673 205.326C88.93 205.468 88.9478 205.611 89.0204 205.754L90.4841 209.159L90.9379 208.927L91.4506 206.973C91.586 206.457 91.6082 206.084 91.5171 205.853C91.4097 205.632 91.1562 205.468 90.7565 205.363C90.7049 205.349 90.6893 205.304 90.7096 205.227C90.7299 205.149 90.7659 205.117 90.8174 205.131C91.1527 205.219 91.4217 205.297 91.6247 205.364L92.7414 205.679L93.9069 205.965C94.1037 206.003 94.3697 206.066 94.7049 206.154C94.7307 206.161 94.7335 206.203 94.7131 206.281C94.6928 206.358 94.6698 206.393 94.644 206.387C94.2443 206.281 93.9498 206.3 93.7606 206.444C93.5551 206.596 93.3847 206.931 93.2493 207.446L90.6704 217.274C90.552 217.725 90.5125 218.059 90.552 218.277C90.5786 218.49 90.695 218.624 90.9013 218.679C91.0818 218.726 91.3454 218.72 91.6921 218.66L91.7115 218.665C91.7501 218.675 91.7804 218.717 91.8021 218.792C91.8076 218.876 91.7958 218.921 91.7666 218.927L88.5925 219.519L88.4908 219.512C88.4263 219.496 88.3703 219.446 88.3227 219.365C88.2589 219.293 88.2338 219.231 88.2473 219.18L90.8211 209.372L88.5655 210.639C88.1491 210.86 87.8985 211.132 87.8139 211.455C87.7699 211.622 87.7989 211.775 87.9007 211.912C87.9992 212.062 88.1645 212.167 88.3966 212.228C88.4224 212.235 88.4251 212.277 88.4048 212.355C88.3845 212.432 88.3615 212.467 88.3357 212.461C87.9617 212.362 87.6733 212.279 87.4704 212.212L85.9476 211.79L84.5306 211.438C84.3467 211.403 84.0936 211.344 83.7712 211.259C83.7326 211.249 83.7234 211.205 83.7437 211.127C83.764 211.05 83.7935 211.016 83.8322 211.027C84.3866 211.173 85.0621 211.199 85.8586 211.105C86.6388 211.021 87.382 210.789 88.0881 210.41L88.9519 209.955L87.1957 205.852C86.9436 205.29 86.6787 204.855 86.401 204.547C86.107 204.249 85.7859 204.054 85.4378 203.963Z" fill="white"/>
<path d="M76.763 201.885C76.7382 201.876 76.7231 201.841 76.7178 201.782C76.7 201.717 76.7084 201.678 76.7429 201.663C77.3772 201.396 77.969 201.256 78.5183 201.243C79.0677 201.23 79.6216 201.333 80.18 201.552C80.9617 201.86 81.5748 202.287 82.0192 202.834C82.4587 203.394 82.7203 204.005 82.8041 204.668C82.8831 205.344 82.7961 206.005 82.5432 206.65C82.2611 207.37 81.821 207.964 81.2228 208.431C80.6246 208.898 79.941 209.18 79.1719 209.279C78.3856 209.386 77.5892 209.28 76.7826 208.963C76.0132 208.661 75.4857 208.253 75.1999 207.739C74.9142 207.226 74.9148 206.603 75.2018 205.87C75.3526 205.486 75.4962 205.32 75.6327 205.374L80.1631 207.133C80.2096 207.051 80.2717 206.911 80.3495 206.712C80.7775 205.62 80.8649 204.665 80.6118 203.85C80.3462 203.029 79.7418 202.433 78.7987 202.062C78.4637 201.931 78.1637 201.856 77.8987 201.838C77.6338 201.819 77.2701 201.834 76.8076 201.881L76.763 201.885ZM77.6358 208.869C78.0453 209.03 78.4571 208.984 78.8711 208.731C79.2803 208.491 79.6499 208.077 79.98 207.491L77.2664 206.467C77.0308 207.105 76.9341 207.626 76.9766 208.029C77.019 208.433 77.2387 208.713 77.6358 208.869Z" fill="white"/>
<path d="M60.7678 193.394C60.7336 193.374 60.7221 193.328 60.7336 193.257C60.7336 193.179 60.7542 193.145 60.7953 193.154L63.8494 193.428C63.8791 193.43 63.9111 193.442 63.9453 193.462C64.0596 193.531 64.0904 193.713 64.0378 194.008C63.9669 194.308 63.8103 194.673 63.568 195.103C64.8569 194.665 65.9412 194.71 66.8209 195.239C67.4492 195.618 67.8296 196.111 67.9621 196.72C68.0762 197.333 67.9413 197.96 67.5573 198.6L66.0452 201.122C65.5994 201.865 65.5537 202.343 65.9078 202.556C66.0335 202.632 66.2003 202.678 66.4082 202.694L66.4254 202.704C66.4711 202.732 66.4882 202.781 66.4768 202.852C66.4585 202.934 66.4288 202.971 66.3876 202.962L63.433 202.678L63.337 202.643C63.2799 202.609 63.2399 202.546 63.2171 202.454C63.1759 202.367 63.1691 202.301 63.1965 202.255L65.4698 198.465C66.2104 197.23 66.1066 196.327 65.1583 195.756C64.907 195.605 64.6248 195.505 64.3117 195.457C63.9804 195.413 63.6536 195.427 63.3314 195.497L61.5725 198.43C61.1267 199.173 61.0809 199.652 61.4351 199.865C61.5608 199.94 61.7333 199.99 61.9527 200.013L61.9698 200.023C62.0041 200.044 62.0155 200.09 62.0041 200.16C61.9858 200.243 61.956 200.279 61.9149 200.27L58.9603 199.986C58.9305 199.984 58.8986 199.972 58.8643 199.952C58.8072 199.917 58.7672 199.854 58.7443 199.763C58.7032 199.676 58.6964 199.61 58.7238 199.564L61.46 195.001C61.6931 194.613 61.8234 194.318 61.8509 194.116C61.8669 193.908 61.7892 193.752 61.6179 193.649C61.4579 193.553 61.186 193.475 60.8021 193.415L60.7678 193.394Z" fill="white"/>
<path d="M56.6193 188.421C57.133 188.825 57.5385 189.237 57.8359 189.657L60.2041 186.635C60.4508 186.32 60.6002 186.064 60.6524 185.868C60.6942 185.663 60.6413 185.46 60.4937 185.26C60.3439 185.04 60.0645 184.77 59.6557 184.448C59.6243 184.423 59.6332 184.38 59.6826 184.317C59.7319 184.254 59.7723 184.235 59.8037 184.259C60.1916 184.564 60.4915 184.808 60.7034 184.992L61.9332 185.984L62.8732 186.698C63.0387 186.811 63.2629 186.978 63.546 187.201C63.5774 187.226 63.5685 187.269 63.5191 187.332C63.4698 187.395 63.4294 187.415 63.398 187.39C63.1464 187.192 62.9383 187.079 62.7736 187.052C62.6067 187.005 62.4447 187.039 62.2877 187.153C62.1202 187.259 61.9131 187.469 61.6664 187.784L55.9556 195.073C55.6925 195.409 55.54 195.679 55.4983 195.884C55.4565 196.089 55.53 196.265 55.7187 196.414C55.8864 196.545 56.1851 196.661 56.6147 196.762L56.6461 196.786C56.6775 196.811 56.6832 196.858 56.663 196.927C56.6534 197.004 56.634 197.04 56.6048 197.034L53.5209 196.365C53.4918 196.359 53.4614 196.344 53.43 196.319C53.3252 196.236 53.3007 196.073 53.3566 195.829C53.4021 195.576 53.5283 195.285 53.7353 194.956C52.4274 195.047 51.3699 194.776 50.5627 194.141C50.1225 193.795 49.8041 193.358 49.6076 192.831C49.4007 192.295 49.3546 191.716 49.4693 191.094C49.5841 190.472 49.8717 189.867 50.3322 189.279C50.99 188.44 51.7057 187.883 52.4792 187.609C53.2445 187.346 53.989 187.303 54.7127 187.482C55.4177 187.663 56.0533 187.976 56.6193 188.421ZM52.2912 194.075C52.7629 194.446 53.3243 194.616 53.9752 194.585L54.0739 194.459L57.0465 190.665C57.0214 190.221 56.9366 189.832 56.7919 189.498C56.639 189.174 56.3791 188.868 56.0122 188.58C54.9535 187.748 53.717 188.234 52.3026 190.04C51.6777 190.837 51.3853 191.6 51.4256 192.327C51.4471 193.056 51.7356 193.639 52.2912 194.075Z" fill="white"/>
<path d="M40.8092 175.27C40.7736 175.23 40.7762 175.183 40.8169 175.128C40.8388 175.073 40.8775 175.056 40.9329 175.078L43.0359 175.958C43.0913 175.98 43.1456 176.021 43.199 176.08C43.3413 176.239 43.3948 176.469 43.3595 176.77C43.3154 177.06 43.1761 177.364 42.9418 177.682L43.9617 177.922C44.3349 177.999 44.6501 178.102 44.9073 178.229C45.1546 178.365 45.3894 178.558 45.6117 178.806C45.994 179.233 46.1888 179.641 46.1959 180.029C46.2031 180.416 46.038 180.762 45.7007 181.065C45.4329 181.305 45.1618 181.432 44.8874 181.446C44.6032 181.468 44.332 181.425 44.0737 181.316C43.7967 181.206 43.443 181.031 43.0128 180.79L42.5454 180.538L40.8539 179.638L40.0057 180.4C39.3708 180.97 38.9584 181.439 38.7685 181.806C38.5698 182.164 38.5815 182.467 38.8038 182.715C39.2751 183.242 39.9486 183.175 40.8243 182.514C41.1486 182.276 41.4419 182.174 41.7043 182.207C41.9577 182.231 42.2001 182.372 42.4312 182.63C42.6536 182.878 42.7685 183.107 42.776 183.315C42.7646 183.522 42.6747 183.701 42.506 183.853C42.2084 184.12 41.7701 184.2 41.191 184.093C40.602 183.995 40.0053 183.778 39.401 183.443C38.7877 183.097 38.3121 182.736 37.9742 182.358C37.583 181.921 37.4062 181.444 37.4439 180.926C37.4627 180.407 37.7499 179.898 38.3055 179.4L40.9393 177.034C41.227 176.776 41.4058 176.526 41.4756 176.284C41.5365 176.032 41.4825 175.812 41.3135 175.623C41.189 175.484 41.0254 175.371 40.8225 175.284L40.8092 175.27ZM42.7155 177.939C42.6847 177.985 42.6247 178.048 42.5354 178.128L41.1068 179.411L41.978 179.784C42.0146 179.805 42.1432 179.869 42.3638 179.975C42.5745 180.091 42.812 180.146 43.0764 180.142C43.332 180.127 43.5589 180.031 43.7573 179.853C43.9954 179.639 44.1172 179.395 44.1227 179.122C44.1094 178.847 44.0138 178.61 43.836 178.411C43.6937 178.252 43.4924 178.138 43.2321 178.067L42.7155 177.939Z" fill="white"/>
<path d="M29.9528 172.369C29.7717 172.121 29.6898 171.818 29.7072 171.457C29.7059 171.094 29.8289 170.822 30.0761 170.641C30.3018 170.475 30.541 170.407 30.7939 170.436C31.0359 170.474 31.2396 170.605 31.405 170.831C31.5231 170.993 31.5893 171.151 31.6036 171.306C31.6099 171.45 31.588 171.623 31.5378 171.825C31.5012 172.001 31.4889 172.142 31.5011 172.249C31.4946 172.353 31.5268 172.454 31.5976 172.551C31.6764 172.658 31.806 172.745 31.9864 172.811C32.1483 172.874 32.4527 172.94 32.8996 173.009L36.3656 170.464C36.7955 170.148 37.0163 169.829 37.0279 169.506C37.0287 169.191 36.8284 168.76 36.4268 168.211C36.3953 168.168 36.4118 168.123 36.4763 168.075C36.5407 168.028 36.5887 168.026 36.6202 168.069C36.8958 168.445 37.107 168.745 37.2537 168.968L38.1943 170.287L38.9073 171.228C39.0361 171.381 39.2029 171.598 39.4077 171.878C39.4313 171.91 39.4108 171.95 39.3464 171.997C39.2819 172.045 39.2378 172.052 39.2142 172.02C38.9701 171.686 38.7295 171.516 38.4924 171.508C38.2446 171.508 37.9058 171.666 37.4759 171.981L34.4451 174.206C34.1119 174.451 33.9016 174.672 33.8141 174.868C33.708 175.062 33.718 175.245 33.844 175.417C33.9778 175.6 34.242 175.803 34.6366 176.026L34.6602 176.058C34.6839 176.091 34.6767 176.137 34.6387 176.198C34.5928 176.248 34.5566 176.267 34.5301 176.253L31.7922 174.815C31.7234 174.766 31.6851 174.736 31.6772 174.725C31.5906 174.607 31.6247 174.416 31.7796 174.154C31.9158 173.888 32.1641 173.607 32.5245 173.309C31.7503 173.199 31.1694 173.072 30.782 172.926C30.3867 172.77 30.1103 172.584 29.9528 172.369Z" fill="white"/>
<path d="M30.6305 161.343C30.6028 161.297 30.6047 161.249 30.6363 161.199C30.661 161.137 30.6951 161.116 30.7387 161.136C31.4163 161.3 31.979 161.518 32.4267 161.792C32.863 162.072 33.2165 162.434 33.4872 162.878C33.7926 163.379 33.9335 163.879 33.9098 164.378C33.8861 164.877 33.59 165.3 33.0213 165.648L29.2339 167.965C28.8813 168.181 28.6749 168.393 28.6148 168.602C28.5547 168.811 28.6252 169.08 28.8265 169.41C28.8335 169.422 28.8268 169.449 28.8066 169.493C28.7794 169.525 28.7488 169.552 28.7146 169.572C28.6691 169.6 28.6316 169.615 28.6019 169.618C28.5608 169.627 28.5333 169.621 28.5194 169.598C28.1427 169.031 27.733 168.641 27.2903 168.427C26.8407 168.202 26.3238 168.136 25.7395 168.227C25.6801 168.232 25.6296 168.201 25.5879 168.133C25.5393 168.053 25.5378 167.999 25.5833 167.971L26.9481 167.136C26.5341 166.483 26.0318 165.774 25.441 165.01C25.4271 164.988 25.4587 164.937 25.5358 164.858C25.5946 164.776 25.6752 164.703 25.7776 164.64C25.8913 164.571 26.0189 164.524 26.1604 164.5C26.2836 164.471 26.3534 164.483 26.3698 164.536C26.6618 165.373 27.0138 166.143 27.4258 166.844L31.4691 164.37C31.9013 164.106 32.1539 163.803 32.2267 163.461C32.2926 163.108 32.2145 162.75 31.9924 162.386C31.7147 161.93 31.2734 161.591 30.6684 161.367L30.6305 161.343Z" fill="white"/>
<path d="M21.0851 161.543C21.2641 161.886 21.3085 162.201 21.2183 162.489C21.128 162.777 20.9117 163.011 20.5692 163.19C20.2621 163.351 19.9706 163.384 19.6947 163.287C19.4008 163.185 19.1675 162.969 18.9947 162.638C18.8219 162.307 18.7778 162.007 18.8623 161.736C18.9469 161.466 19.1487 161.248 19.4675 161.081C19.81 160.901 20.1221 160.851 20.4036 160.929C20.6851 161.007 20.9123 161.212 21.0851 161.543ZM30.7431 158.65C30.7617 158.686 30.7355 158.722 30.6646 158.759C30.5938 158.796 30.5491 158.797 30.5306 158.762C30.3392 158.395 30.127 158.19 29.8937 158.147C29.6487 158.11 29.2899 158.215 28.8175 158.462L25.6464 160.124C25.2448 160.334 24.9771 160.527 24.8431 160.703C24.7092 160.878 24.6916 161.061 24.7903 161.25C24.8705 161.403 25.0497 161.588 25.3277 161.804L25.337 161.821C25.3617 161.869 25.3506 161.92 25.3039 161.974C25.2454 162.035 25.201 162.051 25.1707 162.021L22.5327 159.994L22.4872 159.95C22.4563 159.891 22.455 159.817 22.4832 159.727C22.5114 159.636 22.5491 159.579 22.5964 159.554L22.9861 159.35C23.4709 159.126 24.0558 158.835 24.7408 158.476L27.9473 156.796C28.4197 156.548 28.7106 156.313 28.8199 156.09C28.9111 155.862 28.8611 155.565 28.6698 155.198C28.6513 155.163 28.6775 155.126 28.7483 155.089C28.8192 155.052 28.8639 155.051 28.8824 155.087C29.0429 155.394 29.1635 155.639 29.2442 155.823L29.782 156.896L30.3459 157.933C30.4503 158.104 30.5827 158.343 30.7431 158.65Z" fill="white"/>
<path d="M21.7932 155.983C22.1492 155.833 22.4042 155.58 22.5583 155.225C22.7072 154.858 22.8217 154.375 22.9018 153.776C22.9748 153.195 23.0444 152.76 23.1107 152.471C23.1594 152.175 23.2861 151.876 23.4907 151.572C23.683 151.273 23.9756 151.04 24.3684 150.874C24.7858 150.697 25.2228 150.635 25.6793 150.688C26.1357 150.741 26.5688 150.926 26.9784 151.245C27.3757 151.569 27.6963 152.02 27.9401 152.597C28.2253 153.273 28.3293 153.982 28.252 154.724C28.2094 154.829 28.1513 154.897 28.0776 154.928L26.2701 155.737C26.2333 155.753 26.2019 155.73 26.1759 155.669C26.1325 155.6 26.1205 155.555 26.1399 155.532C26.6708 155.075 27.0551 154.529 27.2929 153.892C27.5306 153.256 27.551 152.704 27.3539 152.237C27.245 151.979 27.0796 151.811 26.8578 151.731C26.6307 151.639 26.3638 151.658 26.0568 151.788C25.6026 151.98 25.301 152.26 25.1521 152.627C24.991 153 24.8755 153.497 24.8058 154.121C24.7541 154.649 24.7012 155.055 24.6473 155.339C24.5933 155.623 24.4676 155.907 24.2701 156.194C24.0726 156.48 23.7774 156.707 23.3846 156.873C22.6602 157.18 22.0234 157.146 21.4741 156.77C20.9125 156.4 20.4735 155.84 20.1571 155.091C20.0378 154.808 19.9499 154.549 19.8934 154.312C19.8317 154.063 19.7964 153.774 19.7876 153.445C19.7778 153.319 19.8219 153.235 19.9202 153.193C20.2271 153.063 20.4691 152.968 20.6461 152.907L21.5747 152.535C21.6115 152.52 21.6455 152.549 21.6766 152.623C21.7077 152.696 21.7049 152.741 21.6681 152.757C21.4348 152.855 21.2246 153.06 21.0375 153.371C20.8381 153.687 20.7076 154.047 20.6461 154.449C20.5793 154.84 20.6159 155.201 20.756 155.532C20.9686 156.036 21.3144 156.186 21.7932 155.983Z" fill="white"/>
<path d="M21.428 139.468C21.4123 139.417 21.4261 139.371 21.4692 139.33C21.5084 139.276 21.5466 139.264 21.5839 139.295C22.2002 139.621 22.6917 139.972 23.0581 140.347C23.4118 140.726 23.6651 141.164 23.8179 141.661C23.9903 142.222 24.0034 142.741 23.8573 143.219C23.7112 143.696 23.3196 144.034 22.6826 144.23L18.4398 145.539C18.0448 145.661 17.7925 145.815 17.6827 146.002C17.5729 146.19 17.5748 146.468 17.6884 146.838C17.6923 146.851 17.6791 146.876 17.6487 146.913C17.6144 146.937 17.5781 146.956 17.5399 146.967C17.4889 146.983 17.4488 146.989 17.4194 146.984C17.3772 146.983 17.3522 146.969 17.3444 146.944C17.1191 146.302 16.8183 145.823 16.442 145.506C16.0618 145.177 15.5773 144.984 14.9883 144.929C14.9295 144.919 14.8883 144.876 14.8648 144.8C14.8374 144.71 14.8492 144.658 14.9001 144.642L16.429 144.171C16.1891 143.435 15.8771 142.625 15.4931 141.738C15.4852 141.713 15.5283 141.672 15.6224 141.615C15.6999 141.549 15.7959 141.498 15.9106 141.463C16.038 141.424 16.1732 141.41 16.3163 141.422C16.4428 141.425 16.5074 141.453 16.5104 141.508C16.5866 142.392 16.7379 143.224 16.9642 144.006L21.4936 142.608C21.9778 142.459 22.2973 142.228 22.4522 141.915C22.6032 141.589 22.616 141.223 22.4906 140.815C22.3339 140.305 21.99 139.867 21.4589 139.501L21.428 139.468Z" fill="white"/>
<path d="M19.0135 118.602C19.0073 118.549 19.044 118.518 19.1234 118.509C19.2029 118.499 19.2457 118.521 19.2519 118.574C19.2918 118.919 19.3166 119.191 19.3264 119.391L19.4448 120.585L19.5983 121.735C19.6361 121.946 19.675 122.223 19.7149 122.567C19.7195 122.607 19.6821 122.632 19.6026 122.641C19.5231 122.65 19.4811 122.635 19.4765 122.595C19.4289 122.185 19.3039 121.917 19.1016 121.793C18.8845 121.657 18.5111 121.62 17.9813 121.682L15.1206 122.015C14.4055 122.098 13.8903 122.285 13.5751 122.577C13.2584 122.855 13.1293 123.246 13.1876 123.75C13.2275 124.094 13.3396 124.423 13.5236 124.737C13.7077 125.052 13.9394 125.313 14.2187 125.522L14.3379 125.509L18.3707 125.039C18.9004 124.978 19.2562 124.862 19.438 124.694C19.6049 124.513 19.6646 124.218 19.617 123.807C19.6109 123.754 19.6475 123.723 19.727 123.714C19.8065 123.704 19.8493 123.726 19.8554 123.779C19.8953 124.124 19.9202 124.396 19.93 124.596L20.0483 125.79L20.2018 126.94C20.2396 127.151 20.2785 127.428 20.3184 127.773C20.3231 127.812 20.2856 127.837 20.2062 127.846C20.1267 127.855 20.0847 127.84 20.0801 127.8C20.0324 127.39 19.9075 127.122 19.7052 126.998C19.4881 126.862 19.1147 126.825 18.5849 126.887L15.7242 127.22C15.009 127.303 14.4939 127.49 14.1787 127.782C13.862 128.061 13.7328 128.451 13.7912 128.955C13.828 129.273 13.9311 129.583 14.1004 129.885C14.2549 130.176 14.4586 130.428 14.7114 130.64L18.9627 130.145C19.4925 130.083 19.8482 129.968 20.03 129.799C20.197 129.619 20.2567 129.323 20.2091 128.913C20.2045 128.873 20.2419 128.849 20.3213 128.839C20.4008 128.83 20.4428 128.845 20.4475 128.885C20.4874 129.229 20.5122 129.502 20.522 129.702L20.6404 130.896L20.7962 132.066C20.8324 132.263 20.8706 132.534 20.9105 132.878C20.9151 132.918 20.8777 132.943 20.7982 132.952C20.7187 132.961 20.6767 132.946 20.6721 132.906C20.6245 132.495 20.4995 132.228 20.2972 132.104C20.0817 131.981 19.709 131.951 19.1792 132.013L15.4444 132.447C15.0339 132.495 14.742 132.583 14.5689 132.71C14.381 132.826 14.2993 132.99 14.3239 133.202C14.35 133.427 14.4796 133.734 14.7126 134.123L14.7172 134.163C14.7218 134.202 14.6925 134.239 14.6294 134.274C14.5647 134.295 14.5242 134.293 14.5079 134.268L12.8368 131.663C12.8011 131.587 12.7825 131.542 12.7809 131.529C12.764 131.383 12.8936 131.227 13.1696 131.061C13.4324 130.896 13.8006 130.773 14.2743 130.691C13.0971 129.915 12.4486 129.01 12.3288 127.977C12.2567 127.355 12.3514 126.84 12.613 126.434C12.8746 126.028 13.2855 125.752 13.8458 125.606C12.5611 124.829 11.8543 123.885 11.7253 122.772C11.6424 122.057 11.7847 121.49 12.1522 121.071C12.5183 120.64 13.1185 120.375 13.9528 120.278L17.7671 119.834C18.2969 119.773 18.6526 119.657 18.8344 119.489C19.0014 119.308 19.0611 119.013 19.0135 118.602Z" fill="white"/>
<path d="M18.3963 107.27C18.3983 107.217 18.4329 107.185 18.5 107.174C18.5544 107.15 18.5938 107.165 18.6184 107.219L19.5183 109.315C19.5429 109.37 19.5537 109.437 19.5506 109.517C19.5424 109.73 19.4212 109.932 19.187 110.123C18.9533 110.301 18.6417 110.422 18.2522 110.487L18.8187 111.37C19.0334 111.685 19.1889 111.978 19.2852 112.248C19.3682 112.519 19.4032 112.82 19.3904 113.153C19.3683 113.726 19.225 114.154 18.9606 114.438C18.6962 114.721 18.3374 114.854 17.8844 114.836C17.5247 114.822 17.2416 114.725 17.0351 114.543C16.8153 114.361 16.6503 114.141 16.5401 113.884C16.4172 113.612 16.2847 113.24 16.1428 112.767L15.9822 112.261L15.3921 110.437L14.2529 110.393C13.4002 110.36 12.7779 110.409 12.3858 110.541C11.9943 110.659 11.7921 110.885 11.7793 111.218C11.7521 111.924 12.2829 112.345 13.3719 112.48C13.77 112.536 14.0518 112.667 14.2173 112.873C14.3834 113.066 14.4597 113.336 14.4463 113.683C14.4335 114.016 14.3574 114.26 14.218 114.414C14.0658 114.555 13.8764 114.621 13.6499 114.612C13.2502 114.597 12.8795 114.349 12.5377 113.869C12.1827 113.388 11.9045 112.817 11.7031 112.155C11.5023 111.48 11.4117 110.89 11.4312 110.384C11.4538 109.797 11.6585 109.332 12.0455 108.986C12.4196 108.627 12.9797 108.462 13.7258 108.491L17.2631 108.628C17.6495 108.643 17.9519 108.588 18.1702 108.463C18.389 108.324 18.5033 108.129 18.513 107.875C18.5202 107.689 18.481 107.494 18.3955 107.29L18.3963 107.27ZM17.911 110.514C17.8571 110.525 17.7703 110.529 17.6504 110.524L15.7318 110.45L16.0984 111.325C16.1102 111.365 16.1583 111.5 16.2429 111.731C16.3141 111.96 16.4463 112.165 16.6394 112.346C16.8331 112.514 17.0632 112.603 17.3297 112.613C17.6494 112.626 17.9064 112.535 18.1007 112.343C18.2821 112.136 18.3779 111.9 18.3882 111.633C18.3964 111.42 18.3316 111.197 18.1938 110.965L17.911 110.514Z" fill="white"/>
<path d="M20.8066 94.9024C20.8127 94.8629 20.8553 94.8493 20.9343 94.8616C21.0134 94.8738 21.0499 94.8998 21.0437 94.9393C20.9906 95.2819 20.9422 95.5509 20.8984 95.7465L20.6948 96.9293L20.4787 98.4542C20.4572 98.6802 20.4168 98.9843 20.3576 99.3664C20.3514 99.406 20.3089 99.4196 20.2298 99.4073C20.1508 99.395 20.1143 99.3691 20.1204 99.3295C20.1939 98.8552 20.0924 98.5965 19.8157 98.5535C19.6708 98.531 19.5308 98.5632 19.3959 98.6501L16.1614 100.455L16.4392 100.882L18.4352 101.193C18.9622 101.275 19.3357 101.259 19.5558 101.144C19.7648 101.015 19.9009 100.746 19.9642 100.338C19.9724 100.285 20.016 100.265 20.095 100.277C20.1741 100.289 20.2095 100.322 20.2013 100.374C20.1482 100.717 20.0988 100.993 20.0529 101.201L19.8555 102.345L19.6915 103.534C19.674 103.733 19.6387 104.004 19.5856 104.347C19.5816 104.373 19.54 104.38 19.4609 104.368C19.3819 104.356 19.3444 104.336 19.3485 104.31C19.4118 103.902 19.3625 103.611 19.2005 103.437C19.0273 103.248 18.6773 103.113 18.1503 103.031L8.11096 101.47C7.64983 101.398 7.31331 101.393 7.10139 101.454C6.89151 101.503 6.77024 101.632 6.73756 101.843C6.70897 102.027 6.74263 102.289 6.83855 102.628L6.83548 102.648C6.82936 102.687 6.79029 102.721 6.71829 102.751C6.63516 102.765 6.58904 102.758 6.57995 102.729L5.66358 99.6317L5.65913 99.5298C5.66934 99.4639 5.71249 99.4031 5.78857 99.3475C5.85353 99.2766 5.91235 99.2453 5.96505 99.2535L15.9846 100.812L14.4909 98.697C14.2278 98.3052 13.9315 98.0837 13.6022 98.0325C13.4309 98.0059 13.2823 98.0503 13.1565 98.1656C13.0175 98.2789 12.9296 98.4542 12.8929 98.6914C12.8888 98.7177 12.8472 98.7247 12.7682 98.7125C12.6891 98.7002 12.6517 98.6808 12.6557 98.6545C12.715 98.2724 12.7675 97.9769 12.8133 97.7682L13.0751 96.2099L13.279 94.764C13.2944 94.5775 13.3276 94.3196 13.3787 93.9902C13.3848 93.9506 13.4274 93.937 13.5064 93.9493C13.5855 93.9616 13.6219 93.9875 13.6158 94.0271C13.528 94.5936 13.5718 95.2684 13.7473 96.0513C13.9117 96.819 14.219 97.5347 14.6693 98.1985L15.2112 99.0114L19.1091 96.8446C19.6426 96.5363 20.0479 96.2282 20.325 95.9205C20.5909 95.5975 20.7514 95.2582 20.8066 94.9024Z" fill="white"/>
<path d="M21.9875 85.9609C21.9947 85.9352 22.0275 85.9167 22.0861 85.9054C22.1482 85.8812 22.1885 85.8856 22.207 85.9185C22.5368 86.5229 22.7365 87.0979 22.8059 87.6435C22.8753 88.189 22.8295 88.7507 22.6684 89.3287C22.4429 90.1379 22.0809 90.7912 21.5824 91.2886C21.0711 91.7825 20.4899 92.1046 19.839 92.2549C19.1753 92.4015 18.5096 92.3815 17.8418 92.1948C17.0971 91.9866 16.462 91.6082 15.9366 91.0598C15.4112 90.5114 15.06 89.8594 14.883 89.1039C14.6968 88.3319 14.72 87.5284 14.9526 86.6936C15.1745 85.8973 15.5261 85.331 16.0074 84.9949C16.4886 84.6587 17.108 84.5965 17.8656 84.8084C18.2637 84.9197 18.4431 85.046 18.4037 85.1873L17.1183 89.8742C17.2046 89.9122 17.3504 89.9599 17.5559 90.0174C18.6859 90.3334 19.6435 90.3242 20.4287 89.99C21.2175 89.6429 21.7479 88.9813 22.0199 88.0052C22.1166 87.6584 22.1604 87.3522 22.1514 87.0866C22.1423 86.8211 22.0906 86.4605 21.9961 86.0049L21.9875 85.9609ZM15.1338 87.5334C15.0157 87.9572 15.1035 88.3625 15.3971 88.7492C15.6779 89.1323 16.1268 89.4586 16.7438 89.728L17.4838 86.9237C16.8253 86.7534 16.2977 86.7097 15.9009 86.7926C15.504 86.8754 15.2484 87.1224 15.1338 87.5334Z" fill="white"/>
<path d="M28.8352 69.0372C28.8523 69.001 28.8966 68.9851 28.9683 68.9895C29.0456 68.9818 29.0817 68.9989 29.0767 69.0408L29.1113 72.1102C29.112 72.14 29.1038 72.173 29.0867 72.2092C29.0299 72.3298 28.8522 72.3785 28.5536 72.3553C28.2486 72.3143 27.8703 72.1944 27.4186 71.9955C27.9836 73.2362 28.0472 74.3208 27.6094 75.2495C27.2968 75.9128 26.8445 76.3405 26.2528 76.5327C25.6547 76.707 25.0182 76.6346 24.3432 76.3154L21.6854 75.0584C20.902 74.6878 20.4221 74.6895 20.2459 75.0634C20.1834 75.1961 20.1545 75.3668 20.1593 75.5755L20.1507 75.5936C20.128 75.6419 20.0808 75.6638 20.0092 75.6594C19.9255 75.6493 19.8861 75.6233 19.8912 75.5815L19.8767 72.61L19.9013 72.511C19.9297 72.4507 19.9883 72.4047 20.077 72.3729C20.1593 72.3233 20.2245 72.3099 20.2728 72.3327L24.2684 74.2225C25.5702 74.8381 26.457 74.6454 26.9288 73.6444C27.0539 73.3791 27.1247 73.0881 27.1413 72.7714C27.1515 72.437 27.1054 72.1128 27.0028 71.7988L23.9111 70.3366C23.1277 69.9661 22.6478 69.9678 22.4716 70.3417C22.409 70.4743 22.3773 70.6511 22.3764 70.8719L22.3679 70.89C22.3508 70.9262 22.3065 70.9421 22.2349 70.9377C22.1512 70.9276 22.1118 70.9016 22.1168 70.8597L22.1024 67.8883C22.1017 67.8585 22.1099 67.8255 22.127 67.7893C22.1554 67.729 22.2139 67.6829 22.3026 67.6511C22.385 67.6016 22.4502 67.5882 22.4984 67.611L27.3077 69.8855C27.7175 70.0793 28.0238 70.18 28.2267 70.1874C28.4352 70.1828 28.5821 70.09 28.6674 69.9091C28.747 69.7403 28.7973 69.4617 28.8182 69.0733L28.8352 69.0372Z" fill="white"/>
<path d="M33.3735 64.3529C33.0232 64.9044 32.654 65.3489 32.2658 65.6865L35.504 67.7503C35.8413 67.9653 36.1101 68.0892 36.3104 68.122C36.5179 68.1436 36.7141 68.071 36.899 67.9042C37.1023 67.7334 37.3433 67.4285 37.6221 66.9895C37.6436 66.9558 37.688 66.9604 37.7555 67.0034C37.823 67.0464 37.846 67.0848 37.8245 67.1185C37.56 67.5349 37.3471 67.8577 37.1857 68.0869L36.3217 69.4099L35.7058 70.4167C35.6098 70.5926 35.4653 70.8326 35.2723 71.1365C35.2509 71.1702 35.2064 71.1656 35.1389 71.1226C35.0715 71.0796 35.0485 71.0412 35.0699 71.0075C35.2415 70.7374 35.3329 70.5189 35.344 70.3521C35.3736 70.1812 35.324 70.0231 35.1952 69.8778C35.0735 69.7212 34.844 69.5354 34.5067 69.3204L26.6978 64.3435C26.338 64.1142 26.0544 63.9888 25.8469 63.9672C25.6395 63.9457 25.4714 64.0362 25.3427 64.2388C25.2283 64.4189 25.1426 64.7279 25.0856 65.1659L25.0641 65.1996C25.0427 65.2334 24.9967 65.2436 24.9262 65.2303C24.8485 65.2282 24.8112 65.2124 24.8142 65.1827L25.1733 62.0437C25.1763 62.0141 25.1886 61.9823 25.21 61.9486C25.2815 61.836 25.4414 61.7956 25.6897 61.8274C25.9452 61.848 26.2467 61.9453 26.5943 62.1193C26.374 60.8247 26.5392 59.7442 27.0896 58.8775C27.3899 58.4049 27.7924 58.0447 28.2971 57.7972C28.809 57.5385 29.3797 57.4358 30.0092 57.4891C30.6388 57.5425 31.2683 57.7698 31.898 58.1711C32.7975 58.7444 33.4217 59.4031 33.7704 60.1471C34.1079 60.884 34.2237 61.6219 34.1177 62.3607C34.0076 63.0811 33.7596 63.7451 33.3735 64.3529ZM27.3264 60.5937C27.0047 61.1002 26.8915 61.6763 26.9868 62.322L27.1217 62.408L31.1863 64.9986C31.6247 64.9301 32.0028 64.8074 32.3205 64.6305C32.627 64.4463 32.9054 64.1573 33.1556 63.7634C33.8777 62.6267 33.2717 61.442 31.3378 60.2095C30.4832 59.6648 29.6968 59.4482 28.9784 59.5596C28.256 59.6525 27.7053 59.9972 27.3264 60.5937Z" fill="white"/>
<path d="M44.5426 47.6164C44.5785 47.5769 44.6255 47.5747 44.6837 47.6097C44.7411 47.6259 44.7617 47.6627 44.7455 47.7201L44.085 49.9052C44.0688 49.9626 44.0338 50.0209 43.9801 50.0802C43.8366 50.2381 43.6139 50.3147 43.3119 50.3101C43.0189 50.2956 42.7026 50.1878 42.363 49.9866L42.2283 51.0273C42.1896 51.407 42.1201 51.7315 42.0197 52.0007C41.9094 52.261 41.7422 52.5145 41.5181 52.7613C41.1326 53.1857 40.7476 53.4212 40.3632 53.4677C39.9787 53.5142 39.619 53.3848 39.2839 53.0794C39.0178 52.837 38.8642 52.5797 38.823 52.3077C38.772 52.0267 38.7873 51.7521 38.8689 51.4837C38.9497 51.1965 39.0878 50.8263 39.2832 50.373L39.4864 49.8817L40.2087 48.1047L39.366 47.3368C38.7353 46.7621 38.2277 46.3987 37.8433 46.2469C37.4679 46.0851 37.1681 46.1277 36.944 46.3744C36.4689 46.8975 36.604 47.5619 37.3494 48.3673C37.6182 48.6664 37.7494 48.9483 37.7431 49.2131C37.7457 49.468 37.6305 49.7238 37.3974 49.9804C37.1733 50.2272 36.9582 50.3649 36.7521 50.3935C36.545 50.4033 36.3578 50.3319 36.1902 50.1792C35.8946 49.9098 35.7706 49.4811 35.8182 48.8932C35.856 48.2963 36.0108 47.6796 36.2825 47.0433C36.5631 46.3971 36.8738 45.8865 37.2144 45.5114C37.6088 45.0772 38.065 44.8525 38.583 44.8375C39.1001 44.8036 39.6346 45.0381 40.1865 45.541L42.8031 47.9253C43.0889 48.1858 43.3555 48.3385 43.6028 48.3835C43.8591 48.4186 44.0724 48.3424 44.2427 48.1548C44.3682 48.0166 44.4637 47.8421 44.5292 47.6312L44.5426 47.6164ZM42.0848 49.7872C42.0364 49.7611 41.9678 49.7077 41.8791 49.6269L40.46 48.3337L40.1775 49.2397C40.1604 49.2783 40.1102 49.4129 40.0268 49.6436C39.9335 49.8653 39.9026 50.1076 39.9338 50.3706C39.9741 50.6238 40.0928 50.8402 40.2899 51.0198C40.5264 51.2353 40.7809 51.3319 41.0533 51.3096C41.3249 51.2684 41.5503 51.1491 41.7296 50.9517C41.873 50.7938 41.9667 50.5815 42.0107 50.315L42.0848 49.7872Z" fill="white"/>
<path d="M46.6456 36.1795C46.8737 35.9746 47.1676 35.863 47.5271 35.8448C47.8876 35.8078 48.1701 35.9035 48.3746 36.1321C48.5614 36.3407 48.6525 36.5725 48.648 36.8274C48.6347 37.0723 48.5238 37.2884 48.3155 37.4754C48.1667 37.6091 48.016 37.6906 47.8634 37.7201C47.7208 37.7407 47.5465 37.7359 47.3406 37.7058C47.1624 37.6866 47.0208 37.6883 46.9158 37.7109C46.8118 37.7147 46.7152 37.7567 46.6259 37.8369C46.5267 37.9259 46.4531 38.0637 46.4052 38.2501C46.3584 38.4176 46.3226 38.7275 46.2979 39.1798L49.1656 42.3838C49.5213 42.7812 49.8601 42.9698 50.1819 42.9496C50.4949 42.9194 50.9044 42.6772 51.4103 42.2228C51.45 42.1872 51.4965 42.1992 51.5499 42.2588C51.6032 42.3184 51.6101 42.366 51.5704 42.4017C51.2232 42.7135 50.9459 42.9535 50.7386 43.1217L49.52 44.1892L48.6553 44.9925C48.5154 45.1361 48.3165 45.3237 48.0586 45.5553C48.0288 45.5821 47.9873 45.5656 47.9339 45.506C47.8806 45.4464 47.8688 45.4032 47.8985 45.3765C48.206 45.1003 48.3521 44.8437 48.3368 44.6066C48.3125 44.3596 48.1225 44.0374 47.7668 43.64L45.2593 40.8383C44.9836 40.5303 44.7438 40.3424 44.54 40.2745C44.3372 40.1879 44.1564 40.2158 43.9977 40.3583C43.829 40.5098 43.6532 40.7931 43.4701 41.2084L43.4404 41.2351C43.4106 41.2619 43.3636 41.2593 43.2993 41.2274C43.2449 41.1867 43.2232 41.1524 43.2341 41.1247L44.3955 38.2538C44.4373 38.1805 44.4631 38.1394 44.473 38.1305C44.5821 38.0325 44.7747 38.0477 45.0507 38.1762C45.3278 38.2858 45.6318 38.5055 45.9629 38.8355C45.9962 38.0529 46.0662 37.4614 46.1729 37.0609C46.2896 36.6514 46.4472 36.3576 46.6456 36.1795Z" fill="white"/>
<path d="M57.2274 36.0678C57.2698 36.0354 57.3178 36.0324 57.3713 36.0587C57.4353 36.0769 57.4595 36.1087 57.4439 36.1542C57.3502 36.8461 57.1904 37.4291 56.9646 37.9032C56.7307 38.3667 56.4071 38.7561 55.9936 39.0714C55.5271 39.4272 55.0448 39.619 54.5468 39.6468C54.0487 39.6745 53.5979 39.423 53.1944 38.8923L50.5075 35.3577C50.2573 35.0286 50.0255 34.8449 49.8121 34.8064C49.5986 34.768 49.3382 34.866 49.0307 35.1005C49.0201 35.1086 48.9921 35.1048 48.9467 35.0892C48.9119 35.0654 48.8824 35.0376 48.8582 35.0058C48.8259 34.9633 48.807 34.9274 48.8015 34.8981C48.7879 34.8582 48.7917 34.8301 48.8129 34.814C49.3374 34.3803 49.6833 33.932 49.8506 33.4691C50.0285 32.998 50.0421 32.4762 49.8915 31.9035C49.8804 31.8449 49.9067 31.7913 49.9703 31.7428C50.0445 31.6862 50.0978 31.6791 50.13 31.7216L51.0983 32.9953C51.7051 32.5157 52.3579 31.9424 53.0567 31.2752C53.0779 31.2591 53.1314 31.2854 53.2171 31.3541C53.3054 31.4041 53.3859 31.4769 53.4585 31.5725C53.5392 31.6786 53.5987 31.8009 53.6369 31.9394C53.6778 32.0592 53.6729 32.13 53.6225 32.1517C52.8204 32.5287 52.092 32.9585 51.4372 33.4411L54.3057 37.2146C54.6124 37.618 54.939 37.8384 55.2857 37.8758C55.6429 37.9051 55.9912 37.7904 56.3305 37.5317C56.7545 37.2082 57.0469 36.7336 57.2077 36.1079L57.2274 36.0678Z" fill="white"/>
<path d="M56.5219 26.2451C56.199 26.4577 55.8899 26.5335 55.5946 26.4724C55.2994 26.4113 55.0458 26.2191 54.8337 25.8958C54.6436 25.6059 54.5827 25.3187 54.6512 25.0342C54.7236 24.7312 54.9156 24.4771 55.2275 24.2718C55.5393 24.0666 55.8336 23.9926 56.1104 24.0499C56.3872 24.1071 56.6243 24.2863 56.8217 24.5873C57.0338 24.9106 57.1148 25.2164 57.0648 25.5048C57.0147 25.7931 56.8338 26.0399 56.5219 26.2451ZM60.3482 35.5786C60.3148 35.6006 60.2762 35.5782 60.2323 35.5113C60.1884 35.4444 60.1832 35.4 60.2166 35.378C60.5619 35.1507 60.7446 34.9188 60.7647 34.682C60.7775 34.4342 60.6376 34.0873 60.3451 33.6413L58.3815 30.6479C58.1328 30.2688 57.9147 30.0213 57.727 29.9054C57.5394 29.7895 57.3564 29.7902 57.1782 29.9075C57.0335 30.0028 56.8676 30.1997 56.6808 30.4983L56.6641 30.5093C56.6195 30.5386 56.5678 30.5327 56.509 30.4916C56.4428 30.4394 56.4228 30.3967 56.4489 30.3636L58.2036 27.5326L58.2428 27.4829C58.2985 27.4463 58.3725 27.4375 58.4647 27.4566C58.557 27.4757 58.6177 27.5075 58.647 27.5521L58.8883 27.92C59.1586 28.3806 59.5058 28.9342 59.9299 29.5809L61.9155 32.6077C62.208 33.0537 62.4704 33.32 62.7026 33.4065C62.9386 33.4747 63.2293 33.3951 63.5746 33.1679C63.608 33.1459 63.6466 33.1683 63.6905 33.2352C63.7344 33.3021 63.7396 33.3465 63.7062 33.3685C63.4166 33.5591 63.1846 33.7038 63.0103 33.8026L61.9969 34.4456L61.0222 35.1111C60.8625 35.2322 60.6378 35.3881 60.3482 35.5786Z" fill="white"/>
<path d="M61.819 26.5476C62.0043 26.8869 62.2809 27.1155 62.649 27.2331C63.0287 27.3444 63.5201 27.4097 64.1231 27.429C64.708 27.4431 65.1473 27.4686 65.4408 27.5054C65.7397 27.5241 66.0503 27.6201 66.3726 27.7931C66.6886 27.9545 66.9488 28.2225 67.1532 28.597C67.3704 28.9949 67.4755 29.4238 67.4683 29.8838C67.4612 30.3438 67.3195 30.7938 67.0433 31.234C66.7607 31.6624 66.3446 32.0272 65.795 32.3282C65.1518 32.6805 64.4575 32.8556 63.712 32.8535C63.6035 32.8217 63.5301 32.7707 63.4918 32.7004L62.5079 30.9818C62.4888 30.9467 62.5084 30.9131 62.5669 30.8811C62.6307 30.8309 62.6748 30.8144 62.6993 30.8314C63.2058 31.314 63.7872 31.6417 64.4435 31.8143C65.0998 31.9869 65.6501 31.9515 66.0945 31.7081C66.3401 31.5736 66.4915 31.3918 66.5488 31.1628C66.6177 30.9274 66.5724 30.6634 66.4126 30.3708C66.1763 29.9378 65.8682 29.6657 65.4884 29.5544C65.1023 29.4315 64.5961 29.3667 63.9697 29.3602C63.439 29.362 63.0301 29.3504 62.7429 29.3252C62.4557 29.3001 62.16 29.2036 61.8558 29.0358C61.5515 28.868 61.2971 28.5969 61.0927 28.2224C60.7158 27.5319 60.6866 26.8942 61.0053 26.3092C61.3175 25.7124 61.8303 25.2187 62.5437 24.828C62.8126 24.6807 63.0619 24.5669 63.2916 24.4867C63.5329 24.4002 63.8168 24.3359 64.1433 24.2939C64.2677 24.2713 64.3555 24.3069 64.4066 24.4005C64.5663 24.6931 64.685 24.9245 64.7628 25.0947L65.2244 25.9821C65.2436 26.0172 65.2181 26.0539 65.1479 26.0924C65.0778 26.1308 65.0331 26.1325 65.0139 26.0974C64.8925 25.875 64.668 25.6863 64.3404 25.5314C64.0063 25.3647 63.6362 25.271 63.2299 25.2503C62.8353 25.2231 62.4802 25.2961 62.1644 25.469C61.685 25.7316 61.5698 26.0911 61.819 26.5476Z" fill="white"/>
<path d="M78.1206 24.5026C78.1697 24.4818 78.2169 24.4907 78.2622 24.5295C78.3198 24.563 78.3353 24.5998 78.3089 24.64C78.0465 25.2869 77.7472 25.812 77.4109 26.2151C77.0693 26.606 76.6592 26.9029 76.1804 27.1057C75.6402 27.3346 75.1254 27.4006 74.6358 27.3039C74.1463 27.2072 73.7719 26.8518 73.5126 26.2377L71.7854 22.1474C71.6246 21.7666 71.4456 21.5311 71.2483 21.4409C71.051 21.3507 70.7744 21.3811 70.4183 21.5319C70.4061 21.5371 70.3799 21.5265 70.3398 21.5C70.3119 21.4684 70.2902 21.4341 70.2747 21.3973C70.2539 21.3482 70.2445 21.3087 70.2464 21.2789C70.2431 21.2369 70.2538 21.2107 70.2783 21.2003C70.8941 20.9104 71.3404 20.562 71.6172 20.1551C71.9063 19.743 72.0489 19.241 72.045 18.6489C72.0488 18.5894 72.0875 18.544 72.1612 18.5128C72.2471 18.4764 72.3005 18.4828 72.3212 18.5319L72.9436 20.0059C73.6505 19.6919 74.4252 19.2985 75.2676 18.8258C75.2922 18.8154 75.3375 18.8541 75.4035 18.942C75.4766 19.0123 75.5365 19.1028 75.5832 19.2134C75.6351 19.3362 75.6624 19.4694 75.6652 19.6131C75.675 19.7392 75.6528 19.8065 75.5985 19.8151C74.7279 19.9812 73.9155 20.2168 73.1615 20.5218L75.0053 24.8884C75.2024 25.3552 75.4643 25.6497 75.7909 25.772C76.1298 25.889 76.4957 25.8644 76.8885 25.6979C77.3796 25.4899 77.7806 25.1028 78.0915 24.5366L78.1206 24.5026Z" fill="white"/>
<path d="M98.7697 19.887C98.8218 19.8756 98.8564 19.9089 98.8734 19.9871C98.8905 20.0653 98.873 20.11 98.8209 20.1215C98.4822 20.1956 98.2138 20.2475 98.0156 20.2773L96.8391 20.5144L95.7102 20.7821C95.5046 20.8407 95.2325 20.9071 94.8939 20.9813C94.8548 20.9898 94.8268 20.955 94.8097 20.8768C94.7927 20.7987 94.8037 20.7553 94.8427 20.7468C95.2465 20.6584 95.5001 20.5073 95.6036 20.2936C95.7173 20.0639 95.7172 19.6886 95.6035 19.1675L94.9895 16.3537C94.836 15.6503 94.5986 15.1563 94.2772 14.8718C93.9688 14.5844 93.5672 14.4949 93.0722 14.6033C92.7336 14.6774 92.4171 14.8218 92.1228 15.0364C91.8284 15.251 91.591 15.5077 91.4106 15.8065L91.4362 15.9238L92.3017 19.8904C92.4155 20.4115 92.5653 20.754 92.7512 20.9181C92.9473 21.0662 93.2472 21.0961 93.651 21.0077C93.7031 20.9963 93.7376 21.0297 93.7547 21.1078C93.7718 21.186 93.7542 21.2308 93.7021 21.2422C93.3635 21.3163 93.0951 21.3683 92.8968 21.398L91.7203 21.6351L90.5915 21.9028C90.3859 21.9614 90.1138 22.0278 89.7752 22.102C89.7361 22.1105 89.708 22.0757 89.691 21.9976C89.6739 21.9194 89.6849 21.8761 89.724 21.8675C90.1278 21.7791 90.3814 21.628 90.4849 21.4143C90.5985 21.1847 90.5985 20.8093 90.4848 20.2882L89.8708 17.4745C89.7173 16.771 89.4798 16.277 89.1584 15.9925C88.8501 15.7052 88.4484 15.6157 87.9535 15.724C87.6409 15.7925 87.3425 15.926 87.0584 16.1247C86.7844 16.3076 86.5543 16.5354 86.3682 16.8082L87.2807 20.9898C87.3944 21.5108 87.5442 21.8534 87.7301 22.0174C87.9262 22.1656 88.2261 22.1955 88.6299 22.1071C88.669 22.0985 88.697 22.1333 88.7141 22.2115C88.7312 22.2896 88.7201 22.333 88.6811 22.3415C88.3424 22.4157 88.074 22.4676 87.8758 22.4974L86.6993 22.7345L85.5509 23.0064C85.3583 23.0622 85.0927 23.1272 84.7541 23.2013C84.715 23.2099 84.687 23.1751 84.6699 23.0969C84.6528 23.0188 84.6639 22.9754 84.7029 22.9669C85.1067 22.8784 85.3603 22.7274 85.4638 22.5136C85.5644 22.2869 85.5579 21.9129 85.4442 21.3919L84.6426 17.7183C84.5544 17.3145 84.4384 17.0328 84.2944 16.8732C84.1606 16.6978 83.9895 16.6329 83.7811 16.6785C83.5596 16.727 83.267 16.8866 82.903 17.1574L82.8639 17.166C82.8248 17.1745 82.7852 17.1491 82.7449 17.0896C82.7177 17.0274 82.7156 16.9869 82.7389 16.9681L85.1646 15.0448C85.237 15.0016 85.2798 14.9786 85.2928 14.9758C85.4361 14.9444 85.6041 15.0578 85.7969 15.3158C85.9868 15.5609 86.146 15.915 86.2744 16.3783C86.9298 15.1292 87.7655 14.3934 88.7814 14.171C89.3936 14.037 89.9147 14.0798 90.3448 14.2996C90.7749 14.5194 91.0901 14.9008 91.2905 15.4438C91.9362 14.0877 92.8061 13.2898 93.9002 13.0503C94.6035 12.8963 95.1816 12.9813 95.6344 13.3053C96.1003 13.6264 96.4227 14.1973 96.6018 15.018L97.4205 18.7697C97.5342 19.2908 97.684 19.6333 97.8699 19.7973C98.066 19.9455 98.3659 19.9754 98.7697 19.887Z" fill="white"/>
<path d="M109.326 18.1453C109.379 18.1418 109.414 18.1728 109.432 18.2385C109.462 18.29 109.452 18.3307 109.4 18.3609L107.409 19.474C107.357 19.5041 107.292 19.5218 107.212 19.527C106.999 19.541 106.785 19.4415 106.571 19.2285C106.37 19.0145 106.217 18.7173 106.111 18.3367L105.293 18.9919C105.001 19.2382 104.726 19.4233 104.467 19.5473C104.207 19.6579 103.911 19.7242 103.578 19.746C103.006 19.7837 102.565 19.6857 102.256 19.4522C101.947 19.2187 101.777 18.8757 101.748 18.4234C101.724 18.0641 101.792 17.7724 101.951 17.5481C102.109 17.3106 102.311 17.1236 102.556 16.9872C102.813 16.8367 103.169 16.6663 103.624 16.476L104.112 16.2635L105.864 15.4868L105.79 14.3492C105.734 13.4977 105.62 12.8838 105.449 12.5076C105.29 12.1306 105.045 11.953 104.712 11.9748C104.007 12.0212 103.644 12.593 103.622 13.6901C103.608 14.0919 103.507 14.3858 103.319 14.5719C103.144 14.7571 102.884 14.8611 102.538 14.8839C102.205 14.9057 101.955 14.8554 101.786 14.7329C101.63 14.5961 101.545 14.4147 101.53 14.1885C101.504 13.7894 101.712 13.3949 102.154 13.005C102.595 12.6018 103.135 12.2657 103.772 11.9966C104.422 11.7267 105 11.5751 105.506 11.5418C106.091 11.5033 106.575 11.6585 106.959 12.0074C107.355 12.3421 107.578 12.882 107.627 13.6271L107.858 17.1595C107.883 17.5453 107.97 17.8403 108.117 18.0444C108.277 18.2477 108.483 18.341 108.736 18.3244C108.923 18.3121 109.112 18.2528 109.306 18.1466L109.326 18.1453ZM106.049 18.0001C106.032 17.9477 106.02 17.8617 106.012 17.7419L105.887 15.826L105.055 16.2816C105.016 16.2976 104.886 16.3595 104.666 16.4676C104.445 16.5623 104.255 16.7151 104.095 16.926C103.948 17.1361 103.884 17.3742 103.901 17.6403C103.922 17.9596 104.038 18.2058 104.25 18.379C104.474 18.5379 104.72 18.6087 104.986 18.5912C105.199 18.5771 105.413 18.4895 105.63 18.3283L106.049 18.0001Z" fill="white"/>
<path d="M122.499 19.2693C122.539 19.2715 122.557 19.3125 122.553 19.3924C122.549 19.4723 122.526 19.5112 122.486 19.509C122.14 19.4903 121.868 19.4689 121.669 19.4447L120.472 19.36L118.933 19.2968C118.706 19.2979 118.399 19.288 118.013 19.2671C117.973 19.2649 117.955 19.2239 117.96 19.144C117.964 19.0641 117.986 19.0253 118.026 19.0274C118.505 19.0534 118.752 18.9265 118.768 18.6469C118.776 18.5005 118.729 18.3645 118.629 18.2389L116.51 15.2L116.113 15.519L116.004 17.5361C115.975 18.0686 116.028 18.4387 116.164 18.6463C116.314 18.8414 116.595 18.9501 117.007 18.9724C117.061 18.9752 117.085 19.0166 117.081 19.0965C117.077 19.1764 117.048 19.2149 116.995 19.212C116.648 19.1933 116.369 19.1715 116.157 19.1467L115 19.0641L113.8 19.0193C113.6 19.0218 113.327 19.0137 112.98 18.995C112.954 18.9935 112.943 18.9529 112.947 18.873C112.951 18.7931 112.967 18.7539 112.993 18.7553C113.406 18.7776 113.691 18.6996 113.847 18.5211C114.018 18.33 114.117 17.9682 114.146 17.4356L114.695 7.29046C114.72 6.82447 114.691 6.48911 114.609 6.28436C114.54 6.08033 114.399 5.97256 114.186 5.96104C113.999 5.95096 113.743 6.01051 113.415 6.13968L113.395 6.1386C113.355 6.13644 113.317 6.101 113.281 6.03227C113.258 5.95095 113.261 5.90435 113.288 5.89247L116.279 4.67215L116.379 4.65758C116.446 4.66118 116.511 4.69806 116.574 4.76823C116.651 4.82581 116.688 4.88122 116.685 4.93448L116.137 15.0597L118.092 13.3627C118.455 13.0619 118.646 12.7451 118.664 12.4122C118.673 12.2392 118.614 12.0958 118.487 11.9821C118.36 11.855 118.177 11.785 117.938 11.7721C117.911 11.7706 117.9 11.73 117.904 11.6501C117.908 11.5702 117.924 11.531 117.951 11.5324C118.337 11.5533 118.636 11.5762 118.848 11.601L120.425 11.7063L121.884 11.7651C122.071 11.7619 122.331 11.7693 122.664 11.7873C122.704 11.7895 122.721 11.8305 122.717 11.9104C122.713 11.9902 122.691 12.0291 122.651 12.0269C122.078 11.996 121.411 12.1068 120.65 12.3594C119.902 12.5994 119.221 12.9765 118.606 13.4907L117.851 14.1108L120.397 17.7736C120.757 18.2738 121.104 18.6464 121.438 18.8915C121.786 19.124 122.14 19.2499 122.499 19.2693Z" fill="white"/>
<path d="M131.238 19.4806C131.264 19.4851 131.286 19.5159 131.303 19.573C131.333 19.6323 131.333 19.6729 131.303 19.6947C130.736 20.0845 130.184 20.3418 129.649 20.4666C129.114 20.5914 128.55 20.6031 127.959 20.5018C127.131 20.36 126.444 20.0665 125.898 19.6212C125.354 19.1628 124.974 18.6175 124.757 17.9851C124.542 17.3397 124.494 16.6752 124.61 15.9918C124.74 15.2295 125.051 14.5589 125.542 13.9802C126.033 13.4014 126.645 12.9855 127.378 12.7322C128.127 12.4681 128.928 12.4092 129.782 12.5555C130.597 12.6951 131.196 12.9871 131.58 13.4317C131.964 13.8762 132.09 14.4862 131.958 15.2616C131.888 15.6691 131.781 15.8604 131.637 15.8357L126.843 15.035C126.814 15.1247 126.782 15.2747 126.746 15.485C126.548 16.6416 126.656 17.5935 127.07 18.3407C127.497 19.0902 128.209 19.5504 129.208 19.7215C129.563 19.7823 129.872 19.7946 130.135 19.7585C130.398 19.7224 130.752 19.6341 131.195 19.4936L131.238 19.4806ZM128.966 12.8215C128.532 12.7473 128.138 12.8759 127.784 13.2076C127.432 13.5261 127.154 14.006 126.95 14.6474L129.815 15.0975C129.916 14.425 129.905 13.8955 129.782 13.5091C129.658 13.1228 129.386 12.8936 128.966 12.8215Z" fill="white"/>
<path d="M149.195 24.6875C149.233 24.7009 149.253 24.7435 149.256 24.8152C149.272 24.8914 149.258 24.9292 149.216 24.9284L146.168 25.2695C146.139 25.2732 146.105 25.2683 146.067 25.255C145.942 25.2104 145.875 25.0383 145.868 24.7387C145.878 24.4309 145.959 24.0422 146.11 23.5726C144.934 24.2592 143.863 24.4309 142.895 24.0878C142.204 23.8428 141.733 23.4352 141.482 22.8652C141.247 22.2871 141.255 21.646 141.504 20.942L142.483 18.17C142.772 17.3528 142.721 16.8752 142.332 16.7371C142.194 16.6881 142.021 16.6764 141.814 16.702L141.795 16.6953C141.745 16.6775 141.718 16.6327 141.715 16.5609C141.717 16.4766 141.739 16.4348 141.781 16.4356L144.733 16.1243L144.834 16.1389C144.897 16.1611 144.949 16.2148 144.989 16.3C145.047 16.377 145.067 16.4406 145.049 16.4909L143.576 20.6584C143.097 22.0161 143.378 22.8799 144.421 23.2497C144.698 23.3477 144.994 23.3892 145.311 23.374C145.644 23.3508 145.962 23.2724 146.264 23.1389L147.403 19.9143C147.692 19.0971 147.641 18.6195 147.252 18.4814C147.113 18.4324 146.935 18.4185 146.715 18.4396L146.696 18.4329C146.658 18.4196 146.638 18.377 146.635 18.3052C146.637 18.2209 146.659 18.1791 146.701 18.1799L149.653 17.8686C149.683 17.8649 149.716 17.8698 149.754 17.8831C149.817 17.9054 149.869 17.9591 149.909 18.0443C149.967 18.1213 149.987 18.1849 149.969 18.2352L148.197 23.2513C148.046 23.6787 147.977 23.9938 147.99 24.1965C148.016 24.4037 148.123 24.5407 148.311 24.6076C148.487 24.6699 148.769 24.6921 149.157 24.6742L149.195 24.6875Z" fill="white"/>
<path d="M153.845 28.5197C153.261 28.2273 152.781 27.905 152.405 27.553L150.691 30.9892C150.512 31.3471 150.417 31.6275 150.405 31.8303C150.406 32.0391 150.498 32.2271 150.683 32.3942C150.874 32.5791 151.202 32.788 151.667 33.0207C151.702 33.0386 151.702 33.0834 151.667 33.155C151.631 33.2266 151.595 33.2534 151.56 33.2355C151.118 33.0147 150.776 32.8357 150.531 32.6984L149.127 31.9733L148.063 31.463C147.878 31.3855 147.625 31.2661 147.303 31.105C147.267 31.0871 147.267 31.0423 147.303 30.9707C147.339 30.8991 147.374 30.8723 147.41 30.8902C147.696 31.0334 147.923 31.1021 148.09 31.0961C148.262 31.1081 148.414 31.0425 148.545 30.8993C148.688 30.7621 148.849 30.5146 149.028 30.1566L153.161 21.8704C153.352 21.4886 153.447 21.1933 153.447 20.9845C153.447 20.7757 153.339 20.6176 153.125 20.5102C152.934 20.4147 152.618 20.361 152.177 20.349L152.141 20.331C152.105 20.3131 152.09 20.2684 152.096 20.1968C152.09 20.1192 152.102 20.0805 152.132 20.0805L155.288 20.1168C155.318 20.1168 155.35 20.1257 155.386 20.1436C155.505 20.2033 155.562 20.3584 155.556 20.609C155.562 20.8655 155.497 21.1758 155.36 21.5397C156.623 21.1879 157.714 21.2417 158.632 21.7013C159.133 21.9519 159.532 22.3159 159.831 22.7932C160.141 23.2765 160.302 23.8344 160.315 24.4668C160.327 25.0992 160.166 25.7495 159.833 26.4176C159.357 27.3721 158.767 28.0611 158.064 28.4846C157.367 28.8961 156.646 29.0869 155.901 29.057C155.174 29.0211 154.489 28.842 153.845 28.5197ZM156.952 22.1127C156.415 21.8441 155.831 21.7903 155.2 21.9513L155.128 22.0945L152.976 26.4076C153.09 26.8372 153.251 27.2011 153.46 27.4994C153.675 27.7859 153.991 28.0335 154.408 28.2424C155.612 28.8451 156.726 28.1204 157.75 26.0683C158.202 25.1615 158.336 24.3561 158.151 23.6521C157.983 22.9421 157.584 22.429 156.952 22.1127Z" fill="white"/>
<path d="M172.218 38.3543C172.261 38.3862 172.268 38.4328 172.239 38.4943C172.228 38.5531 172.194 38.5772 172.135 38.5667L169.899 38.1221C169.841 38.1116 169.779 38.0824 169.715 38.0346C169.544 37.9071 169.446 37.6926 169.421 37.3911C169.406 37.0976 169.482 36.7718 169.649 36.4136L168.601 36.3812C168.22 36.3798 167.891 36.3422 167.614 36.2685C167.344 36.184 167.076 36.0421 166.809 35.8429C166.349 35.5002 166.077 35.1395 165.993 34.7608C165.909 34.3822 166.002 34.0109 166.273 33.647C166.487 33.3581 166.728 33.1798 166.994 33.1121C167.268 33.0338 167.543 33.0222 167.817 33.0773C168.11 33.1297 168.492 33.2311 168.961 33.3816L169.47 33.536L171.306 34.0821L171.986 33.1671C172.495 32.4821 172.806 31.9406 172.919 31.5426C173.043 31.1525 172.971 30.8579 172.704 30.6587C172.138 30.2363 171.491 30.436 170.764 31.2578C170.493 31.5549 170.226 31.7133 169.962 31.7329C169.709 31.7604 169.444 31.6706 169.166 31.4634C168.899 31.2642 168.741 31.0632 168.692 30.8606C168.662 30.6552 168.714 30.4615 168.85 30.2796C169.088 29.9585 169.502 29.793 170.091 29.7829C170.687 29.7622 171.315 29.8561 171.974 30.0647C172.644 30.2812 173.182 30.5409 173.588 30.8438C174.058 31.1944 174.327 31.6272 174.393 32.142C174.477 32.6541 174.297 33.2098 173.851 33.8092L171.74 36.6506C171.509 36.961 171.384 37.2416 171.364 37.4925C171.354 37.7514 171.451 37.9566 171.654 38.108C171.803 38.2196 171.986 38.2977 172.202 38.3423L172.218 38.3543ZM169.819 36.1168C169.841 36.066 169.887 35.9925 169.958 35.8961L171.104 34.355L170.176 34.162C170.136 34.1488 169.997 34.112 169.759 34.0514C169.53 33.9801 169.286 33.9729 169.028 34.0299C168.78 34.0948 168.577 34.2342 168.418 34.4483C168.227 34.7051 168.156 34.9683 168.205 35.2376C168.273 35.5043 168.414 35.7173 168.627 35.8767C168.798 36.0042 169.019 36.0768 169.288 36.0946L169.819 36.1168Z" fill="white"/>
<path d="M183.334 38.9273C183.561 39.1338 183.702 39.4153 183.756 39.7717C183.83 40.1272 183.763 40.4185 183.557 40.6455C183.369 40.8527 183.148 40.9671 182.894 40.9885C182.65 41.0001 182.424 40.9116 182.217 40.723C182.069 40.5883 181.973 40.4464 181.928 40.2974C181.893 40.1574 181.88 39.9832 181.889 39.775C181.89 39.5954 181.874 39.4545 181.841 39.3521C181.827 39.2489 181.775 39.1569 181.686 39.0761C181.588 38.9863 181.444 38.9269 181.254 38.8981C181.082 38.8684 180.771 38.8643 180.319 38.8856L177.428 42.0688C177.07 42.4636 176.917 42.8203 176.97 43.139C177.032 43.4478 177.314 43.8313 177.816 44.2893C177.856 44.3252 177.849 44.3728 177.795 44.432C177.741 44.4912 177.694 44.5028 177.655 44.4669C177.31 44.1526 177.044 43.9007 176.855 43.7112L175.671 42.6053L174.786 41.8253C174.629 41.7005 174.422 41.5213 174.166 41.2878C174.137 41.2609 174.149 41.2178 174.203 41.1586C174.256 41.0993 174.298 41.0832 174.328 41.1101C174.633 41.3885 174.903 41.508 175.137 41.4686C175.38 41.4194 175.68 41.1973 176.039 40.8025L178.567 38.0191C178.845 37.7131 179.007 37.4551 179.054 37.2451C179.119 37.0342 179.073 36.8569 178.915 36.7132C178.748 36.5605 178.448 36.4141 178.017 36.2739L177.988 36.2469C177.958 36.22 177.956 36.1729 177.981 36.1055C178.016 36.0472 178.048 36.0221 178.077 36.0302L181.046 36.8959C181.123 36.93 181.166 36.9516 181.176 36.9606C181.285 37.0593 181.289 37.2528 181.189 37.5409C181.109 37.8281 180.921 38.1534 180.627 38.5168C181.408 38.4705 182.002 38.4802 182.411 38.5459C182.83 38.6205 183.137 38.7477 183.334 38.9273Z" fill="white"/>
<path d="M184.955 49.9276C184.991 49.9667 184.999 50.0142 184.978 50.07C184.966 50.1357 184.937 50.163 184.89 50.1518C184.193 50.1265 183.598 50.0246 183.105 49.8462C182.622 49.6587 182.203 49.3743 181.85 48.9932C181.45 48.5633 181.213 48.1014 181.136 47.6076C181.06 47.1139 181.266 46.6398 181.754 46.1854L185.003 43.1593C185.305 42.8776 185.465 42.6284 185.482 42.4119C185.5 42.1953 185.377 41.9454 185.114 41.662C185.105 41.6522 185.106 41.6239 185.117 41.5771C185.137 41.5401 185.162 41.5079 185.191 41.4807C185.23 41.4443 185.264 41.422 185.292 41.4136C185.331 41.3961 185.359 41.3971 185.377 41.4166C185.859 41.8968 186.339 42.1975 186.815 42.3187C187.3 42.4496 187.82 42.4119 188.374 42.2054C188.432 42.1886 188.487 42.2095 188.542 42.2682C188.605 42.3366 188.617 42.3889 188.578 42.4253L187.408 43.5158C187.944 44.0735 188.577 44.6678 189.308 45.2986C189.326 45.3182 189.306 45.3741 189.246 45.4663C189.205 45.5593 189.14 45.6466 189.052 45.7284C188.955 45.8193 188.839 45.8906 188.705 45.9424C188.59 45.9949 188.519 45.997 188.493 45.9488C188.04 45.1864 187.541 44.5026 186.998 43.8975L183.529 47.1281C183.159 47.4734 182.972 47.8207 182.968 48.1699C182.974 48.5289 183.122 48.8648 183.412 49.1775C183.775 49.5684 184.275 49.8132 184.913 49.9119L184.955 49.9276Z" fill="white"/>
<path d="M194.21 47.7373C193.966 47.4374 193.86 47.1372 193.89 46.8368C193.921 46.5364 194.086 46.264 194.386 46.0195C194.654 45.8004 194.933 45.7103 195.223 45.7494C195.531 45.7904 195.803 45.9557 196.039 46.2453C196.274 46.5349 196.378 46.8206 196.349 47.1022C196.32 47.3838 196.166 47.6384 195.887 47.866C195.588 48.1104 195.292 48.2225 195.001 48.2022C194.709 48.1819 194.446 48.027 194.21 47.7373ZM185.328 52.5067C185.303 52.4757 185.322 52.4349 185.384 52.3843C185.446 52.3337 185.489 52.3239 185.514 52.355C185.775 52.6756 186.024 52.8339 186.261 52.8296C186.509 52.817 186.839 52.6421 187.252 52.3049L190.026 50.0415C190.377 49.7549 190.601 49.5122 190.697 49.3134C190.793 49.1145 190.774 48.9323 190.639 48.7668C190.53 48.6323 190.317 48.4873 190.002 48.3318L189.989 48.3163C189.956 48.2749 189.956 48.2228 189.991 48.1599C190.036 48.0887 190.077 48.0644 190.112 48.087L193.102 49.5448L193.156 49.5788C193.198 49.6305 193.214 49.7033 193.204 49.7971C193.195 49.891 193.169 49.9548 193.128 49.9885L192.787 50.2667C192.357 50.5832 191.842 50.9859 191.243 51.4748L188.439 53.7634C188.025 54.1006 187.788 54.3893 187.725 54.6296C187.681 54.8717 187.79 55.1531 188.051 55.4738C188.076 55.5048 188.058 55.5456 187.996 55.5962C187.934 55.6468 187.89 55.6565 187.865 55.6255C187.646 55.3566 187.479 55.1403 187.363 54.9767L186.621 54.0331L185.861 53.1302C185.725 52.9835 185.547 52.7756 185.328 52.5067Z" fill="white"/>
<path d="M194.818 53.5506C194.499 53.769 194.299 54.0675 194.218 54.446C194.145 54.8354 194.129 55.3315 194.169 55.9343C194.212 56.5185 194.23 56.9587 194.222 57.2549C194.233 57.5545 194.168 57.8736 194.028 58.2121C193.899 58.543 193.658 58.829 193.306 59.07C192.932 59.3262 192.516 59.4736 192.058 59.5124C191.601 59.5512 191.139 59.4549 190.675 59.2236C190.221 58.9848 189.818 58.6065 189.465 58.0889C189.051 57.4832 188.809 56.8088 188.738 56.0658C188.759 55.9545 188.802 55.8763 188.868 55.8311L190.479 54.6794C190.512 54.6568 190.547 54.673 190.585 54.728C190.641 54.7866 190.662 54.8289 190.647 54.855C190.218 55.4079 189.949 56.0199 189.842 56.691C189.735 57.3622 189.825 57.907 190.11 58.3255C190.268 58.5567 190.464 58.6895 190.697 58.7237C190.938 58.7689 191.195 58.6974 191.471 58.5091C191.878 58.2303 192.118 57.8962 192.191 57.5068C192.275 57.1098 192.29 56.5989 192.234 55.9741C192.18 55.4455 192.152 55.0369 192.148 54.7482C192.145 54.4596 192.212 54.1553 192.349 53.8354C192.486 53.5155 192.73 53.235 193.082 52.994C193.731 52.5495 194.362 52.4568 194.975 52.716C195.598 52.9676 196.14 53.4293 196.598 54.1011C196.771 54.3544 196.908 54.5915 197.011 54.8123C197.121 55.0441 197.212 55.3206 197.286 55.6417C197.321 55.7634 197.294 55.8544 197.206 55.9147C196.931 56.103 196.713 56.2444 196.551 56.3389L195.715 56.8873C195.682 56.9099 195.643 56.8882 195.598 56.8221C195.553 56.756 195.547 56.7117 195.58 56.6891C195.789 56.546 195.954 56.3034 196.076 55.9615C196.209 55.612 196.265 55.2339 196.246 54.827C196.234 54.4311 196.127 54.0845 195.924 53.7872C195.616 53.3356 195.247 53.2568 194.818 53.5506Z" fill="white"/>
<path d="M198.422 69.5591C198.447 69.6059 198.443 69.6539 198.409 69.7029C198.381 69.7636 198.346 69.7828 198.304 69.7605C197.635 69.5645 197.083 69.3193 196.649 69.025C196.227 68.7243 195.891 68.3458 195.642 67.8893C195.361 67.3744 195.244 66.8683 195.291 66.371C195.339 65.8737 195.655 65.4649 196.24 65.1446L200.134 63.0117C200.496 62.8131 200.713 62.611 200.783 62.4054C200.853 62.1998 200.795 61.9273 200.61 61.5879C200.603 61.5762 200.611 61.5491 200.634 61.5065C200.662 61.4755 200.694 61.4505 200.729 61.4313C200.776 61.4056 200.814 61.3923 200.844 61.3912C200.886 61.3836 200.913 61.3916 200.925 61.415C201.275 61.999 201.665 62.4084 202.097 62.6431C202.536 62.8895 203.049 62.9808 203.637 62.9172C203.696 62.915 203.745 62.949 203.784 63.0192C203.828 63.1011 203.827 63.1549 203.781 63.1805L202.377 63.9491C202.76 64.6215 203.227 65.3534 203.781 66.1448C203.794 66.1682 203.76 66.2172 203.679 66.2918C203.616 66.3718 203.532 66.4406 203.427 66.4982C203.31 66.5623 203.18 66.6029 203.038 66.6202C202.913 66.6427 202.844 66.6274 202.83 66.5742C202.579 65.7238 202.264 64.9385 201.886 64.2182L197.729 66.4952C197.285 66.7386 197.018 67.0292 196.929 67.3668C196.846 67.7162 196.907 68.0781 197.111 68.4526C197.367 68.9207 197.791 69.2811 198.385 69.5336L198.422 69.5591Z" fill="white"/>
<path d="M205.116 89.9467C205.133 89.9974 205.103 90.0351 205.027 90.0599C204.951 90.0846 204.905 90.0716 204.888 90.0209C204.781 89.6911 204.703 89.429 204.654 89.2346L204.304 88.0868L203.927 86.9895C203.849 86.7907 203.756 86.5264 203.649 86.1966C203.637 86.1585 203.669 86.1271 203.745 86.1024C203.821 86.0777 203.865 86.0843 203.877 86.1224C204.005 86.5156 204.18 86.7531 204.403 86.8349C204.642 86.9253 205.015 86.888 205.523 86.7232L208.262 85.8328C208.946 85.6102 209.414 85.3248 209.666 84.9766C209.922 84.6411 209.971 84.2324 209.815 83.7504C209.708 83.4206 209.534 83.1198 209.292 82.8481C209.049 82.5763 208.771 82.3654 208.456 82.2154L208.342 82.2525L204.481 83.5077C203.974 83.6726 203.647 83.8557 203.502 84.0571C203.374 84.267 203.374 84.5686 203.501 84.9618C203.518 85.0125 203.488 85.0502 203.412 85.075C203.336 85.0997 203.289 85.0867 203.273 85.036C203.166 84.7062 203.088 84.4441 203.039 84.2497L202.688 83.102L202.312 82.0046C202.233 81.8058 202.141 81.5415 202.034 81.2117C202.022 81.1736 202.054 81.1422 202.13 81.1175C202.206 81.0928 202.25 81.0994 202.262 81.1375C202.39 81.5307 202.565 81.7682 202.787 81.85C203.027 81.9404 203.4 81.9032 203.908 81.7383L206.646 80.8479C207.331 80.6253 207.799 80.3399 208.051 79.9917C208.307 79.6563 208.356 79.2475 208.2 78.7655C208.102 78.4611 207.94 78.1773 207.714 77.9141C207.505 77.6594 207.256 77.453 206.967 77.2948L202.897 78.618C202.389 78.7828 202.063 78.966 201.918 79.1673C201.79 79.3772 201.79 79.6788 201.917 80.072C201.929 80.1101 201.897 80.1415 201.821 80.1662C201.745 80.1909 201.701 80.1843 201.689 80.1462C201.582 79.8164 201.504 79.5543 201.455 79.36L201.104 78.2122L200.721 77.0958C200.647 76.9097 200.557 76.6517 200.45 76.3219C200.437 76.2839 200.469 76.2525 200.545 76.2278C200.621 76.203 200.666 76.2097 200.678 76.2477C200.805 76.6409 200.98 76.8785 201.203 76.9603C201.439 77.038 201.81 76.9944 202.317 76.8295L205.893 75.6671C206.286 75.5393 206.555 75.3958 206.699 75.2366C206.861 75.086 206.909 74.9092 206.843 74.7063C206.773 74.4906 206.586 74.2151 206.281 73.8796L206.268 73.8415C206.256 73.8034 206.278 73.7614 206.333 73.7155C206.392 73.6822 206.432 73.6761 206.453 73.6974L208.603 75.9216C208.653 75.9894 208.68 76.0297 208.684 76.0424C208.73 76.1819 208.633 76.3605 208.395 76.578C208.17 76.7914 207.834 76.985 207.385 77.1587C208.692 77.6874 209.505 78.4464 209.826 79.4357C210.019 80.0319 210.027 80.555 209.851 81.0049C209.674 81.4549 209.326 81.8065 208.805 82.0599C210.217 82.5682 211.096 83.3551 211.441 84.4206C211.663 85.1056 211.635 85.6895 211.357 86.1725C211.083 86.6681 210.547 87.0457 209.748 87.3054L206.096 88.4926C205.589 88.6575 205.263 88.8406 205.118 89.042C204.989 89.2519 204.989 89.5535 205.116 89.9467Z" fill="white"/>
<path d="M207.812 100.096C207.821 100.149 207.794 100.187 207.73 100.211C207.682 100.246 207.64 100.24 207.605 100.192L206.3 98.3214C206.265 98.2732 206.241 98.2096 206.227 98.1307C206.192 97.9203 206.27 97.6978 206.461 97.4631C206.654 97.2415 206.934 97.0594 207.302 96.9167L206.569 96.1674C206.295 95.9023 206.084 95.6471 205.935 95.4017C205.799 95.154 205.703 94.8658 205.648 94.537C205.554 93.9715 205.608 93.5232 205.809 93.192C206.011 92.8609 206.335 92.6579 206.782 92.5831C207.138 92.5237 207.435 92.5618 207.673 92.6976C207.926 92.8312 208.132 93.013 208.292 93.2431C208.467 93.4841 208.672 93.8216 208.907 94.2555L209.166 94.719L210.113 96.3855L211.238 96.1974C212.079 96.0566 212.679 95.8819 213.036 95.6734C213.395 95.4781 213.548 95.216 213.493 94.8873C213.377 94.1902 212.772 93.8859 211.678 93.9742C211.277 94.0008 210.974 93.9297 210.771 93.7611C210.569 93.6056 210.44 93.3568 210.383 93.0149C210.328 92.6861 210.353 92.4318 210.458 92.252C210.579 92.0831 210.751 91.9799 210.974 91.9425C211.369 91.8765 211.782 92.044 212.214 92.4449C212.659 92.8436 213.047 93.3464 213.378 93.9535C213.711 94.5736 213.919 95.1336 214.003 95.6334C214.099 96.212 213.993 96.7097 213.684 97.1264C213.39 97.5541 212.875 97.8295 212.139 97.9528L208.647 98.537C208.266 98.6008 207.981 98.716 207.792 98.8828C207.606 99.0626 207.534 99.2775 207.576 99.5274C207.606 99.7115 207.684 99.8945 207.809 100.076L207.812 100.096ZM207.631 96.8211C207.682 96.7992 207.766 96.7783 207.884 96.7585L209.778 96.4416L209.242 95.6594C209.222 95.6221 209.148 95.4994 209.018 95.2912C208.902 95.0808 208.731 94.9067 208.505 94.7687C208.282 94.6439 208.039 94.6035 207.776 94.6475C207.46 94.7003 207.227 94.8407 207.075 95.0688C206.939 95.3079 206.893 95.5589 206.937 95.8219C206.972 96.0324 207.081 96.2373 207.263 96.4366L207.631 96.8211Z" fill="white"/>
<path d="M207.955 112.728C207.957 112.768 207.918 112.79 207.839 112.794C207.759 112.798 207.718 112.78 207.716 112.74C207.698 112.394 207.691 112.12 207.695 111.92L207.655 110.721L207.557 109.183C207.533 108.958 207.511 108.652 207.491 108.266C207.489 108.226 207.528 108.204 207.608 108.2C207.688 108.196 207.729 108.214 207.731 108.254C207.755 108.733 207.907 108.966 208.187 108.952C208.333 108.944 208.464 108.884 208.578 108.772L211.38 106.348L211.022 105.985L209.004 106.087C208.472 106.114 208.109 106.205 207.917 106.362C207.738 106.531 207.659 106.822 207.68 107.235C207.683 107.288 207.644 107.317 207.564 107.321C207.484 107.325 207.443 107.3 207.44 107.247C207.423 106.901 207.416 106.621 207.418 106.407L207.38 105.247L207.3 104.05C207.277 103.851 207.257 103.578 207.239 103.232C207.238 103.205 207.277 103.19 207.357 103.186C207.437 103.182 207.478 103.193 207.479 103.22C207.5 103.633 207.607 103.908 207.801 104.045C208.008 104.195 208.379 104.256 208.911 104.229L219.058 103.719C219.524 103.695 219.855 103.632 220.05 103.529C220.246 103.439 220.338 103.287 220.328 103.074C220.318 102.888 220.232 102.639 220.07 102.326L220.069 102.306C220.067 102.266 220.098 102.225 220.163 102.182C220.241 102.151 220.288 102.149 220.303 102.174L221.827 105.021L221.852 105.12C221.855 105.187 221.825 105.255 221.762 105.325C221.713 105.408 221.662 105.45 221.608 105.453L211.481 105.962L213.372 107.73C213.709 108.06 214.044 108.216 214.377 108.2C214.55 108.191 214.686 108.117 214.786 107.979C214.899 107.84 214.95 107.65 214.938 107.411C214.937 107.384 214.976 107.369 215.056 107.365C215.136 107.361 215.176 107.372 215.178 107.398C215.197 107.785 215.205 108.085 215.203 108.298L215.262 109.877L215.355 111.335C215.378 111.52 215.397 111.78 215.414 112.113C215.416 112.153 215.377 112.174 215.297 112.179C215.217 112.183 215.176 112.165 215.174 112.125C215.146 111.552 214.966 110.9 214.636 110.169C214.319 109.451 213.874 108.812 213.298 108.254L212.603 107.568L209.225 110.481C208.765 110.892 208.43 111.276 208.221 111.633C208.026 112.004 207.937 112.368 207.955 112.728Z" fill="white"/>
</g>
</svg>
