<svg width="331" height="303" viewBox="0 0 331 303" fill="none" xmlns="http://www.w3.org/2000/svg">
<circle cx="7.86647" cy="7.86647" r="7.86647" fill="#CFA09F"/>
<circle cx="36.1091" cy="7.86647" r="7.86647" fill="#CFA09F"/>
<circle cx="65.636" cy="7.86647" r="7.86647" fill="#CFA09F"/>
<circle cx="93.8787" cy="7.86647" r="7.86647" fill="#CFA09F"/>
<circle cx="122.121" cy="7.86647" r="7.86647" fill="#CFA09F"/>
<circle cx="150.365" cy="7.86647" r="7.86647" fill="#CFA09F"/>
<circle cx="179.891" cy="7.86647" r="7.86647" fill="#CFA09F"/>
<circle cx="208.134" cy="7.86647" r="7.86647" fill="#CFA09F"/>
<circle cx="236.377" cy="7.86647" r="7.86647" fill="#CFA09F"/>
<circle cx="264.619" cy="7.86647" r="7.86647" fill="#CFA09F"/>
<circle cx="294.146" cy="7.86647" r="7.86647" fill="#CFA09F"/>
<circle cx="322.389" cy="7.86647" r="7.86647" fill="#CFA09F"/>
<circle cx="7.86647" cy="36.1093" r="7.86647" fill="#CFA09F"/>
<circle cx="36.1091" cy="36.1093" r="7.86647" fill="#CFA09F"/>
<circle cx="65.636" cy="36.1093" r="7.86647" fill="#CFA09F"/>
<circle cx="93.8787" cy="36.1093" r="7.86647" fill="#CFA09F"/>
<circle cx="122.121" cy="36.1093" r="7.86647" fill="#CFA09F"/>
<circle cx="150.365" cy="36.1093" r="7.86647" fill="#CFA09F"/>
<circle cx="179.891" cy="36.1093" r="7.86647" fill="#CFA09F"/>
<circle cx="208.134" cy="36.1093" r="7.86647" fill="#CFA09F"/>
<circle cx="236.377" cy="36.1093" r="7.86647" fill="#CFA09F"/>
<circle cx="264.619" cy="36.1093" r="7.86647" fill="#CFA09F"/>
<circle cx="294.146" cy="36.1093" r="7.86647" fill="#CFA09F"/>
<circle cx="322.389" cy="36.1093" r="7.86647" fill="#CFA09F"/>
<circle cx="7.86647" cy="65.6359" r="7.86647" fill="#CFA09F"/>
<circle cx="36.1091" cy="65.6359" r="7.86647" fill="#CFA09F"/>
<circle cx="65.636" cy="65.6359" r="7.86647" fill="#CFA09F"/>
<circle cx="93.8787" cy="65.6359" r="7.86647" fill="#CFA09F"/>
<circle cx="122.121" cy="65.6359" r="7.86647" fill="#CFA09F"/>
<circle cx="150.365" cy="65.6359" r="7.86647" fill="#CFA09F"/>
<circle cx="179.891" cy="65.6359" r="7.86647" fill="#CFA09F"/>
<circle cx="208.134" cy="65.6359" r="7.86647" fill="#CFA09F"/>
<circle cx="236.377" cy="65.6359" r="7.86647" fill="#CFA09F"/>
<circle cx="264.619" cy="65.6359" r="7.86647" fill="#CFA09F"/>
<circle cx="294.146" cy="65.6359" r="7.86647" fill="#CFA09F"/>
<circle cx="322.389" cy="65.6359" r="7.86647" fill="#CFA09F"/>
<circle cx="7.86647" cy="93.8787" r="7.86647" fill="#CFA09F"/>
<circle cx="36.1091" cy="93.8787" r="7.86647" fill="#CFA09F"/>
<circle cx="65.636" cy="93.8787" r="7.86647" fill="#CFA09F"/>
<circle cx="93.8787" cy="93.8787" r="7.86647" fill="#CFA09F"/>
<circle cx="122.121" cy="93.8787" r="7.86647" fill="#CFA09F"/>
<circle cx="150.365" cy="93.8787" r="7.86647" fill="#CFA09F"/>
<circle cx="179.891" cy="93.8787" r="7.86647" fill="#CFA09F"/>
<circle cx="208.134" cy="93.8787" r="7.86647" fill="#CFA09F"/>
<circle cx="236.377" cy="93.8787" r="7.86647" fill="#CFA09F"/>
<circle cx="264.619" cy="93.8787" r="7.86647" fill="#CFA09F"/>
<circle cx="294.146" cy="93.8787" r="7.86647" fill="#CFA09F"/>
<circle cx="322.389" cy="93.8787" r="7.86647" fill="#CFA09F"/>
<circle cx="7.86647" cy="122.122" r="7.86647" fill="#CFA09F"/>
<circle cx="36.1091" cy="122.122" r="7.86647" fill="#CFA09F"/>
<circle cx="65.636" cy="122.122" r="7.86647" fill="#CFA09F"/>
<circle cx="93.8787" cy="122.122" r="7.86647" fill="#CFA09F"/>
<circle cx="122.121" cy="122.122" r="7.86647" fill="#CFA09F"/>
<circle cx="150.365" cy="122.122" r="7.86647" fill="#CFA09F"/>
<circle cx="179.891" cy="122.122" r="7.86647" fill="#CFA09F"/>
<circle cx="208.134" cy="122.122" r="7.86647" fill="#CFA09F"/>
<circle cx="236.377" cy="122.122" r="7.86647" fill="#CFA09F"/>
<circle cx="264.619" cy="122.122" r="7.86647" fill="#CFA09F"/>
<circle cx="294.146" cy="122.122" r="7.86647" fill="#CFA09F"/>
<circle cx="322.389" cy="122.122" r="7.86647" fill="#CFA09F"/>
<circle cx="7.86647" cy="150.364" r="7.86647" fill="#CFA09F"/>
<circle cx="36.1091" cy="150.364" r="7.86647" fill="#CFA09F"/>
<circle cx="65.636" cy="150.364" r="7.86647" fill="#CFA09F"/>
<circle cx="93.8787" cy="150.364" r="7.86647" fill="#CFA09F"/>
<circle cx="122.121" cy="150.364" r="7.86647" fill="#CFA09F"/>
<circle cx="150.365" cy="150.364" r="7.86647" fill="#CFA09F"/>
<circle cx="179.891" cy="150.364" r="7.86647" fill="#CFA09F"/>
<circle cx="208.134" cy="150.364" r="7.86647" fill="#CFA09F"/>
<circle cx="236.377" cy="150.364" r="7.86647" fill="#CFA09F"/>
<circle cx="264.619" cy="150.364" r="7.86647" fill="#CFA09F"/>
<circle cx="294.146" cy="150.364" r="7.86647" fill="#CFA09F"/>
<circle cx="322.389" cy="150.364" r="7.86647" fill="#CFA09F"/>
<circle cx="7.86647" cy="179.891" r="7.86647" fill="#CFA09F"/>
<circle cx="36.1091" cy="179.891" r="7.86647" fill="#CFA09F"/>
<circle cx="65.636" cy="179.891" r="7.86647" fill="#CFA09F"/>
<circle cx="93.8787" cy="179.891" r="7.86647" fill="#CFA09F"/>
<circle cx="122.121" cy="179.891" r="7.86647" fill="#CFA09F"/>
<circle cx="150.365" cy="179.891" r="7.86647" fill="#CFA09F"/>
<circle cx="179.891" cy="179.891" r="7.86647" fill="#CFA09F"/>
<circle cx="208.134" cy="179.891" r="7.86647" fill="#CFA09F"/>
<circle cx="236.377" cy="179.891" r="7.86647" fill="#CFA09F"/>
<circle cx="264.619" cy="179.891" r="7.86647" fill="#CFA09F"/>
<circle cx="294.146" cy="179.891" r="7.86647" fill="#CFA09F"/>
<circle cx="322.389" cy="179.891" r="7.86647" fill="#CFA09F"/>
<circle cx="7.86647" cy="208.134" r="7.86647" fill="#CFA09F"/>
<circle cx="36.1091" cy="208.134" r="7.86647" fill="#CFA09F"/>
<circle cx="65.636" cy="208.134" r="7.86647" fill="#CFA09F"/>
<circle cx="93.8787" cy="208.134" r="7.86647" fill="#CFA09F"/>
<circle cx="122.121" cy="208.134" r="7.86647" fill="#CFA09F"/>
<circle cx="150.365" cy="208.134" r="7.86647" fill="#CFA09F"/>
<circle cx="179.891" cy="208.134" r="7.86647" fill="#CFA09F"/>
<circle cx="208.134" cy="208.134" r="7.86647" fill="#CFA09F"/>
<circle cx="236.377" cy="208.134" r="7.86647" fill="#CFA09F"/>
<circle cx="264.619" cy="208.134" r="7.86647" fill="#CFA09F"/>
<circle cx="294.146" cy="208.134" r="7.86647" fill="#CFA09F"/>
<circle cx="322.389" cy="208.134" r="7.86647" fill="#CFA09F"/>
<circle cx="7.86647" cy="236.377" r="7.86647" fill="#CFA09F"/>
<circle cx="36.1091" cy="236.377" r="7.86647" fill="#CFA09F"/>
<circle cx="65.636" cy="236.377" r="7.86647" fill="#CFA09F"/>
<circle cx="93.8787" cy="236.377" r="7.86647" fill="#CFA09F"/>
<circle cx="122.121" cy="236.377" r="7.86647" fill="#CFA09F"/>
<circle cx="150.365" cy="236.377" r="7.86647" fill="#CFA09F"/>
<circle cx="179.891" cy="236.377" r="7.86647" fill="#CFA09F"/>
<circle cx="208.134" cy="236.377" r="7.86647" fill="#CFA09F"/>
<circle cx="236.377" cy="236.377" r="7.86647" fill="#CFA09F"/>
<circle cx="264.619" cy="236.377" r="7.86647" fill="#CFA09F"/>
<circle cx="294.146" cy="236.377" r="7.86647" fill="#CFA09F"/>
<circle cx="322.389" cy="236.377" r="7.86647" fill="#CFA09F"/>
<circle cx="7.86647" cy="264.619" r="7.86647" fill="#CFA09F"/>
<circle cx="36.1091" cy="264.619" r="7.86647" fill="#CFA09F"/>
<circle cx="65.636" cy="264.619" r="7.86647" fill="#CFA09F"/>
<circle cx="93.8787" cy="264.619" r="7.86647" fill="#CFA09F"/>
<circle cx="122.121" cy="264.619" r="7.86647" fill="#CFA09F"/>
<circle cx="150.365" cy="264.619" r="7.86647" fill="#CFA09F"/>
<circle cx="179.891" cy="264.619" r="7.86647" fill="#CFA09F"/>
<circle cx="208.134" cy="264.619" r="7.86647" fill="#CFA09F"/>
<circle cx="236.377" cy="264.619" r="7.86647" fill="#CFA09F"/>
<circle cx="264.619" cy="264.619" r="7.86647" fill="#CFA09F"/>
<circle cx="294.146" cy="264.619" r="7.86647" fill="#CFA09F"/>
<circle cx="322.389" cy="264.619" r="7.86647" fill="#CFA09F"/>
<circle cx="7.86647" cy="294.146" r="7.86647" fill="#CFA09F"/>
<circle cx="36.1091" cy="294.146" r="7.86647" fill="#CFA09F"/>
<circle cx="65.636" cy="294.146" r="7.86647" fill="#CFA09F"/>
<circle cx="93.8787" cy="294.146" r="7.86647" fill="#CFA09F"/>
<circle cx="122.121" cy="294.146" r="7.86647" fill="#CFA09F"/>
<circle cx="150.365" cy="294.146" r="7.86647" fill="#CFA09F"/>
<circle cx="179.891" cy="294.146" r="7.86647" fill="#CFA09F"/>
<circle cx="208.134" cy="294.146" r="7.86647" fill="#CFA09F"/>
<circle cx="236.377" cy="294.146" r="7.86647" fill="#CFA09F"/>
<circle cx="264.619" cy="294.146" r="7.86647" fill="#CFA09F"/>
<circle cx="294.146" cy="294.146" r="7.86647" fill="#CFA09F"/>
<circle cx="322.389" cy="294.146" r="7.86647" fill="#CFA09F"/>
</svg>
