<svg width="292" height="268" viewBox="0 0 292 268" fill="none" xmlns="http://www.w3.org/2000/svg">
<circle cx="6.95526" cy="6.95526" r="6.95526" fill="#CFA09F"/>
<circle cx="31.9266" cy="6.95526" r="6.95526" fill="#CFA09F"/>
<circle cx="58.0329" cy="6.95526" r="6.95526" fill="#CFA09F"/>
<circle cx="83.0042" cy="6.95526" r="6.95526" fill="#CFA09F"/>
<circle cx="107.976" cy="6.95526" r="6.95526" fill="#CFA09F"/>
<circle cx="132.947" cy="6.95526" r="6.95526" fill="#CFA09F"/>
<circle cx="159.053" cy="6.95526" r="6.95526" fill="#CFA09F"/>
<circle cx="184.024" cy="6.95526" r="6.95526" fill="#CFA09F"/>
<circle cx="208.996" cy="6.95526" r="6.95526" fill="#CFA09F"/>
<circle cx="233.967" cy="6.95526" r="6.95526" fill="#CFA09F"/>
<circle cx="260.073" cy="6.95526" r="6.95526" fill="#CFA09F"/>
<circle cx="285.045" cy="6.95526" r="6.95526" fill="#CFA09F"/>
<circle cx="6.95526" cy="31.9266" r="6.95526" fill="#CFA09F"/>
<circle cx="31.9266" cy="31.9266" r="6.95526" fill="#CFA09F"/>
<circle cx="58.0329" cy="31.9266" r="6.95526" fill="#CFA09F"/>
<circle cx="83.0042" cy="31.9266" r="6.95526" fill="#CFA09F"/>
<circle cx="107.976" cy="31.9266" r="6.95526" fill="#CFA09F"/>
<circle cx="132.947" cy="31.9266" r="6.95526" fill="#CFA09F"/>
<circle cx="159.053" cy="31.9266" r="6.95526" fill="#CFA09F"/>
<circle cx="184.024" cy="31.9266" r="6.95526" fill="#CFA09F"/>
<circle cx="208.996" cy="31.9266" r="6.95526" fill="#CFA09F"/>
<circle cx="233.967" cy="31.9266" r="6.95526" fill="#CFA09F"/>
<circle cx="260.073" cy="31.9266" r="6.95526" fill="#CFA09F"/>
<circle cx="285.045" cy="31.9266" r="6.95526" fill="#CFA09F"/>
<circle cx="6.95526" cy="58.0329" r="6.95526" fill="#CFA09F"/>
<circle cx="31.9266" cy="58.0329" r="6.95526" fill="#CFA09F"/>
<circle cx="58.0329" cy="58.0329" r="6.95526" fill="#CFA09F"/>
<circle cx="83.0042" cy="58.0329" r="6.95526" fill="#CFA09F"/>
<circle cx="107.976" cy="58.0329" r="6.95526" fill="#CFA09F"/>
<circle cx="132.947" cy="58.0329" r="6.95526" fill="#CFA09F"/>
<circle cx="159.053" cy="58.0329" r="6.95526" fill="#CFA09F"/>
<circle cx="184.024" cy="58.0329" r="6.95526" fill="#CFA09F"/>
<circle cx="208.996" cy="58.0329" r="6.95526" fill="#CFA09F"/>
<circle cx="233.967" cy="58.0329" r="6.95526" fill="#CFA09F"/>
<circle cx="260.073" cy="58.0329" r="6.95526" fill="#CFA09F"/>
<circle cx="285.045" cy="58.0329" r="6.95526" fill="#CFA09F"/>
<circle cx="6.95526" cy="83.0042" r="6.95526" fill="#CFA09F"/>
<circle cx="31.9266" cy="83.0042" r="6.95526" fill="#CFA09F"/>
<circle cx="58.0329" cy="83.0042" r="6.95526" fill="#CFA09F"/>
<circle cx="83.0042" cy="83.0042" r="6.95526" fill="#CFA09F"/>
<circle cx="107.976" cy="83.0042" r="6.95526" fill="#CFA09F"/>
<circle cx="132.947" cy="83.0042" r="6.95526" fill="#CFA09F"/>
<circle cx="159.053" cy="83.0042" r="6.95526" fill="#CFA09F"/>
<circle cx="184.024" cy="83.0042" r="6.95526" fill="#CFA09F"/>
<circle cx="208.996" cy="83.0042" r="6.95526" fill="#CFA09F"/>
<circle cx="233.967" cy="83.0042" r="6.95526" fill="#CFA09F"/>
<circle cx="260.073" cy="83.0042" r="6.95526" fill="#CFA09F"/>
<circle cx="285.045" cy="83.0042" r="6.95526" fill="#CFA09F"/>
<circle cx="6.95526" cy="107.976" r="6.95526" fill="#CFA09F"/>
<circle cx="31.9266" cy="107.976" r="6.95526" fill="#CFA09F"/>
<circle cx="58.0329" cy="107.976" r="6.95526" fill="#CFA09F"/>
<circle cx="83.0042" cy="107.976" r="6.95526" fill="#CFA09F"/>
<circle cx="107.976" cy="107.976" r="6.95526" fill="#CFA09F"/>
<circle cx="132.947" cy="107.976" r="6.95526" fill="#CFA09F"/>
<circle cx="159.053" cy="107.976" r="6.95526" fill="#CFA09F"/>
<circle cx="184.024" cy="107.976" r="6.95526" fill="#CFA09F"/>
<circle cx="208.996" cy="107.976" r="6.95526" fill="#CFA09F"/>
<circle cx="233.967" cy="107.976" r="6.95526" fill="#CFA09F"/>
<circle cx="260.073" cy="107.976" r="6.95526" fill="#CFA09F"/>
<circle cx="285.045" cy="107.976" r="6.95526" fill="#CFA09F"/>
<circle cx="6.95526" cy="132.947" r="6.95526" fill="#CFA09F"/>
<circle cx="31.9266" cy="132.947" r="6.95526" fill="#CFA09F"/>
<circle cx="58.0329" cy="132.947" r="6.95526" fill="#CFA09F"/>
<circle cx="83.0042" cy="132.947" r="6.95526" fill="#CFA09F"/>
<circle cx="107.976" cy="132.947" r="6.95526" fill="#CFA09F"/>
<circle cx="132.947" cy="132.947" r="6.95526" fill="#CFA09F"/>
<circle cx="159.053" cy="132.947" r="6.95526" fill="#CFA09F"/>
<circle cx="184.024" cy="132.947" r="6.95526" fill="#CFA09F"/>
<circle cx="208.996" cy="132.947" r="6.95526" fill="#CFA09F"/>
<circle cx="233.967" cy="132.947" r="6.95526" fill="#CFA09F"/>
<circle cx="260.073" cy="132.947" r="6.95526" fill="#CFA09F"/>
<circle cx="285.045" cy="132.947" r="6.95526" fill="#CFA09F"/>
<circle cx="6.95526" cy="159.053" r="6.95526" fill="#CFA09F"/>
<circle cx="31.9266" cy="159.053" r="6.95526" fill="#CFA09F"/>
<circle cx="58.0329" cy="159.053" r="6.95526" fill="#CFA09F"/>
<circle cx="83.0042" cy="159.053" r="6.95526" fill="#CFA09F"/>
<circle cx="107.976" cy="159.053" r="6.95526" fill="#CFA09F"/>
<circle cx="132.947" cy="159.053" r="6.95526" fill="#CFA09F"/>
<circle cx="159.053" cy="159.053" r="6.95526" fill="#CFA09F"/>
<circle cx="184.024" cy="159.053" r="6.95526" fill="#CFA09F"/>
<circle cx="208.996" cy="159.053" r="6.95526" fill="#CFA09F"/>
<circle cx="233.967" cy="159.053" r="6.95526" fill="#CFA09F"/>
<circle cx="260.073" cy="159.053" r="6.95526" fill="#CFA09F"/>
<circle cx="285.045" cy="159.053" r="6.95526" fill="#CFA09F"/>
<circle cx="6.95526" cy="184.024" r="6.95526" fill="#CFA09F"/>
<circle cx="31.9266" cy="184.024" r="6.95526" fill="#CFA09F"/>
<circle cx="58.0329" cy="184.024" r="6.95526" fill="#CFA09F"/>
<circle cx="83.0042" cy="184.024" r="6.95526" fill="#CFA09F"/>
<circle cx="107.976" cy="184.024" r="6.95526" fill="#CFA09F"/>
<circle cx="132.947" cy="184.024" r="6.95526" fill="#CFA09F"/>
<circle cx="159.053" cy="184.024" r="6.95526" fill="#CFA09F"/>
<circle cx="184.024" cy="184.024" r="6.95526" fill="#CFA09F"/>
<circle cx="208.996" cy="184.024" r="6.95526" fill="#CFA09F"/>
<circle cx="233.967" cy="184.024" r="6.95526" fill="#CFA09F"/>
<circle cx="260.073" cy="184.024" r="6.95526" fill="#CFA09F"/>
<circle cx="285.045" cy="184.024" r="6.95526" fill="#CFA09F"/>
<circle cx="6.95526" cy="208.996" r="6.95526" fill="#CFA09F"/>
<circle cx="31.9266" cy="208.996" r="6.95526" fill="#CFA09F"/>
<circle cx="58.0329" cy="208.996" r="6.95526" fill="#CFA09F"/>
<circle cx="83.0042" cy="208.996" r="6.95526" fill="#CFA09F"/>
<circle cx="107.976" cy="208.996" r="6.95526" fill="#CFA09F"/>
<circle cx="132.947" cy="208.996" r="6.95526" fill="#CFA09F"/>
<circle cx="159.053" cy="208.996" r="6.95526" fill="#CFA09F"/>
<circle cx="184.024" cy="208.996" r="6.95526" fill="#CFA09F"/>
<circle cx="208.996" cy="208.996" r="6.95526" fill="#CFA09F"/>
<circle cx="233.967" cy="208.996" r="6.95526" fill="#CFA09F"/>
<circle cx="260.073" cy="208.996" r="6.95526" fill="#CFA09F"/>
<circle cx="285.045" cy="208.996" r="6.95526" fill="#CFA09F"/>
<circle cx="6.95526" cy="233.967" r="6.95526" fill="#CFA09F"/>
<circle cx="31.9266" cy="233.967" r="6.95526" fill="#CFA09F"/>
<circle cx="58.0329" cy="233.967" r="6.95526" fill="#CFA09F"/>
<circle cx="83.0042" cy="233.967" r="6.95526" fill="#CFA09F"/>
<circle cx="107.976" cy="233.967" r="6.95526" fill="#CFA09F"/>
<circle cx="132.947" cy="233.967" r="6.95526" fill="#CFA09F"/>
<circle cx="159.053" cy="233.967" r="6.95526" fill="#CFA09F"/>
<circle cx="184.024" cy="233.967" r="6.95526" fill="#CFA09F"/>
<circle cx="208.996" cy="233.967" r="6.95526" fill="#CFA09F"/>
<circle cx="233.967" cy="233.967" r="6.95526" fill="#CFA09F"/>
<circle cx="260.073" cy="233.967" r="6.95526" fill="#CFA09F"/>
<circle cx="285.045" cy="233.967" r="6.95526" fill="#CFA09F"/>
<circle cx="6.95526" cy="260.073" r="6.95526" fill="#CFA09F"/>
<circle cx="31.9266" cy="260.073" r="6.95526" fill="#CFA09F"/>
<circle cx="58.0329" cy="260.073" r="6.95526" fill="#CFA09F"/>
<circle cx="83.0042" cy="260.073" r="6.95526" fill="#CFA09F"/>
<circle cx="107.976" cy="260.073" r="6.95526" fill="#CFA09F"/>
<circle cx="132.947" cy="260.073" r="6.95526" fill="#CFA09F"/>
<circle cx="159.053" cy="260.073" r="6.95526" fill="#CFA09F"/>
<circle cx="184.024" cy="260.073" r="6.95526" fill="#CFA09F"/>
<circle cx="208.996" cy="260.073" r="6.95526" fill="#CFA09F"/>
<circle cx="233.967" cy="260.073" r="6.95526" fill="#CFA09F"/>
<circle cx="260.073" cy="260.073" r="6.95526" fill="#CFA09F"/>
<circle cx="285.045" cy="260.073" r="6.95526" fill="#CFA09F"/>
</svg>
