<svg width="140" height="140" viewBox="0 0 140 140" fill="none" xmlns="http://www.w3.org/2000/svg">
<g filter="url(#filter0_f_36_35)">
<circle cx="70" cy="70" r="25" fill="#986660" fill-opacity="0.7"/>
</g>
<path d="M65.375 66.325C65.375 65.6017 65.305 65.0767 65.165 64.75C65.0483 64.4233 64.8033 64.2017 64.43 64.085C64.0567 63.9683 63.4383 63.91 62.575 63.91C62.5283 63.91 62.505 63.84 62.505 63.7C62.505 63.56 62.5283 63.49 62.575 63.49C63.3217 63.49 63.905 63.5017 64.325 63.525L66.81 63.56L69.26 63.525C69.7033 63.5017 70.2983 63.49 71.045 63.49C71.115 63.49 71.15 63.56 71.15 63.7C71.15 63.84 71.115 63.91 71.045 63.91C70.2283 63.91 69.6217 63.9683 69.225 64.085C68.8517 64.2017 68.595 64.435 68.455 64.785C68.315 65.1117 68.245 65.625 68.245 66.325V74.165C68.245 74.8883 68.3033 75.4133 68.42 75.74C68.56 76.0667 68.8167 76.2883 69.19 76.405C69.5633 76.5217 70.1817 76.58 71.045 76.58C71.115 76.58 71.15 76.65 71.15 76.79C71.15 76.93 71.115 77 71.045 77C70.2983 77 69.715 76.9883 69.295 76.965L66.81 76.93L64.36 76.965C63.9167 76.9883 63.3217 77 62.575 77C62.5283 77 62.505 76.93 62.505 76.79C62.505 76.65 62.5283 76.58 62.575 76.58C63.3917 76.58 63.9867 76.5217 64.36 76.405C64.7567 76.2883 65.025 76.0667 65.165 75.74C65.305 75.39 65.375 74.865 65.375 74.165V66.325ZM76.2261 77.385C75.6428 77.385 75.1761 77.21 74.8261 76.86C74.4761 76.51 74.3011 76.0433 74.3011 75.46C74.3011 74.9 74.4761 74.4567 74.8261 74.13C75.1761 73.8033 75.6428 73.64 76.2261 73.64C76.8328 73.64 77.2994 73.8033 77.6261 74.13C77.9528 74.4567 78.1161 74.9 78.1161 75.46C78.1161 76.0667 77.9528 76.545 77.6261 76.895C77.2994 77.2217 76.8328 77.385 76.2261 77.385Z" fill="#351415"/>
<defs>
<filter id="filter0_f_36_35" x="0" y="0" width="140" height="140" filterUnits="userSpaceOnUse" color-interpolation-filters="sRGB">
<feFlood flood-opacity="0" result="BackgroundImageFix"/>
<feBlend mode="normal" in="SourceGraphic" in2="BackgroundImageFix" result="shape"/>
<feGaussianBlur stdDeviation="22.5" result="effect1_foregroundBlur_36_35"/>
</filter>
</defs>
</svg>
