<svg width="93" height="100" viewBox="0 0 93 100" fill="none" xmlns="http://www.w3.org/2000/svg">
<path d="M62.5816 0.200012C61.0959 0.665939 59.9001 2.47143 59.9001 4.25748C59.9001 5.20876 60.335 6.4124 63.6506 14.935L67.3829 24.5254L67.3467 33.0868L67.2923 41.6289L64.3572 41.6871L61.422 41.7259L61.3677 27.6122L61.3133 13.479L60.7879 12.4501C60.1357 11.2076 59.7914 10.9164 56.041 8.5285C52.2543 6.10178 51.5296 5.94648 49.6815 7.09189C49.2105 7.38309 48.7213 7.92667 48.4133 8.48967L47.9059 9.40211L47.8516 14.3526L47.7972 19.3031H43.5033C39.4629 19.3031 39.173 19.3225 38.4845 19.7108C37.5424 20.2544 36.8177 21.0309 36.3466 22.021C36.0567 22.6228 35.948 23.3023 35.8755 25.1466L35.7668 27.4957L34.4986 26.9521C30.422 25.1855 25.5663 25.3019 21.6528 27.2433C16.8697 29.5924 13.3185 34.3487 12.3583 39.6487C12.2133 40.5223 12.0503 41.3571 12.014 41.4736C11.9597 41.6677 11.09 41.7259 8.42664 41.7259C4.2776 41.7259 3.42605 41.9589 1.94037 43.4343C-0.84982 46.2299 -0.505576 51.1416 2.64697 53.3547L3.58911 54.0148L2.73756 55.0243C2.26649 55.5679 1.61424 56.558 1.28811 57.2181C0.0923207 59.6254 0.110439 59.4895 0.0198485 68.2256C-0.0526239 76.3017 0.0560847 78.5537 0.635863 81.0387C2.61073 89.5031 8.64406 96.1231 16.5617 98.5304C19.2794 99.3652 19.8773 99.3846 46.3659 99.3846C72.8546 99.3846 73.4525 99.3652 76.1702 98.5304C84.0878 96.1231 90.1211 89.5031 92.096 81.0387C92.6757 78.5537 92.7845 76.3017 92.712 68.2256C92.6214 59.4895 92.6395 59.6254 91.4437 57.2181C91.1176 56.558 90.4653 55.5679 89.9943 55.0243L89.1427 54.0148L90.0849 53.3547C93.2374 51.1416 93.5816 46.2299 90.7915 43.4343C89.2514 41.9007 88.5448 41.7259 83.5986 41.7259H79.3408V32.9704V24.2148L82.9826 14.8768C84.9756 9.73215 86.6605 5.16992 86.7149 4.74282C86.8598 3.61683 86.4794 2.41318 85.7184 1.50073C84.3958 -0.0717773 84.9031 -0.0135345 73.3619 0.00587463C67.7271 0.00587463 62.8896 0.102943 62.5816 0.200012ZM65.7523 7.26661V11.2464H67.2923H68.8323V7.26661V3.2868H70.2818H71.7312L71.7675 9.63508L71.8218 16.0028L73.3256 16.061L74.8113 16.1193V9.69332V3.2868H76.2608H77.7102L77.7464 7.20837L77.8008 11.1494L79.3046 11.2076L80.7903 11.2658V7.26661V3.2868H82.0223C83.3449 3.2868 83.6892 3.48093 83.6892 4.21866C83.6892 4.47103 82.131 8.68381 80.2286 13.5955L76.7499 22.5064H73.3619C70.8616 22.5064 69.9194 22.4481 69.7926 22.254C69.5389 21.924 62.8534 4.58751 62.8534 4.27689C62.8534 4.141 62.944 3.86921 63.0345 3.65566C63.1976 3.34504 63.4332 3.2868 64.484 3.2868H65.7523V7.26661ZM54.9901 11.5765C56.8563 12.7607 57.9977 13.6149 58.1245 13.9061C58.2514 14.1973 58.3238 15.9445 58.3238 18.4295V22.5064H54.6096H50.8954V16.3328C50.8954 9.86804 50.9136 9.69332 51.6926 9.69332C51.8919 9.69332 53.3776 10.5475 54.9901 11.5765ZM47.4349 23.0111C47.8154 23.5159 47.8154 23.71 47.8154 32.6209V41.7259H46.2934H44.7715L44.6447 40.5999C44.4816 39.1051 43.5938 36.2707 42.8148 34.7758C42.0719 33.3586 40.1876 30.796 39.4629 30.2136L38.9375 29.8059V26.6027C38.9375 22.2152 38.6114 22.5064 43.3945 22.5064H47.0725L47.4349 23.0111ZM58.3238 33.6692V41.7259H54.6096H50.8954V33.6692V25.6126H54.6096H58.3238V33.6692ZM76.2608 33.6692V41.7259H73.2713H70.2818V33.6692V25.6126H73.2713H76.2608V33.6692ZM31.6178 29.3012C32.3969 29.5147 33.7376 30.0583 34.5892 30.5048C35.8393 31.1455 36.4191 31.6308 37.7598 33.0674C38.6476 34.0381 39.6622 35.3388 40.0065 35.9407C40.6768 37.2025 41.6009 39.9205 41.6914 40.9494L41.7458 41.6289L28.3747 41.6871L15.0035 41.7259L15.1122 41.0076C16.1993 34.0381 21.7616 28.9711 28.3565 28.9323C29.6067 28.9129 30.6394 29.0294 31.6178 29.3012ZM17.377 44.9098C17.377 44.9486 17.2139 45.3563 17.0146 45.8222C16.5798 46.8512 16.5435 49.0061 16.924 50.1709C17.069 50.598 17.1958 51.0057 17.1958 51.0833C17.1958 51.1804 14.4962 51.2387 11.1987 51.2387C5.41904 51.2387 5.16538 51.2192 4.51313 50.831C3.60723 50.2874 3.06369 49.2196 3.06369 47.9966C3.06369 46.7541 3.60723 45.8611 4.69431 45.2592C5.47339 44.8515 5.63646 44.8321 11.4342 44.8321C14.6955 44.8321 17.377 44.871 17.377 44.9098ZM23.5915 45.1039C24.4974 45.4534 24.9685 45.9193 25.3671 46.8706C25.82 47.9189 25.7838 48.6178 25.2765 49.8214C24.751 51.0057 24.1169 51.4328 22.8486 51.4328C19.2431 51.4328 18.301 46.4046 21.671 45.1233C22.5225 44.7933 22.7399 44.7933 23.5915 45.1039ZM64.7558 45.1622C64.2666 46.4046 64.1398 47.0259 64.1216 48.1519C64.1216 48.8702 64.2485 49.8215 64.3934 50.268C64.5384 50.7145 64.6652 51.1222 64.6652 51.161C64.6652 51.1998 62.8534 51.2387 60.643 51.2192H56.6026L56.0591 50.3068C55.733 49.7826 55.1532 49.1614 54.6278 48.8119L53.74 48.2295H46.3659H38.9919L38.1041 48.8119C37.5786 49.1614 36.9989 49.7826 36.6727 50.3068L36.1292 51.2192H32.107C29.8785 51.2387 28.0666 51.1998 28.0666 51.161C28.0666 51.1222 28.1935 50.7145 28.3384 50.268C28.4834 49.8215 28.6102 48.8702 28.6102 48.1519C28.5921 47.0259 28.4652 46.4046 27.9761 45.1622C27.8492 44.8515 28.7914 44.8321 46.3659 44.8321C63.9405 44.8321 64.8826 44.8515 64.7558 45.1622ZM71.5682 45.3175C73.6699 46.5017 73.6699 49.6661 71.55 51.1998C69.7926 52.4811 67.0205 50.6562 67.0205 48.2295C67.0205 47.5112 67.5641 46.2105 68.0714 45.7446C68.9773 44.871 70.4267 44.6962 71.5682 45.3175ZM88.0375 45.2592C89.6138 46.1134 90.1573 48.0354 89.2877 49.6856C88.5629 51.0639 88.0013 51.2387 84.1602 51.2387H80.7903V52.8888V54.539H82.0223C85.1567 54.539 87.7114 56.228 88.9978 59.14L89.5776 60.4602V69.7787V79.0973L89.0702 80.8446C88.4361 83.0965 87.041 86.1445 85.8996 87.7364C84.7944 89.3089 82.4753 91.6774 81.1164 92.6481C79.667 93.677 77.366 94.8224 75.4454 95.4437L73.8148 95.9872H46.3659H18.917L17.2864 95.4437C15.1666 94.7642 12.3401 93.2499 10.8545 92.0463C9.3869 90.862 7.17649 88.3771 6.27059 86.921C5.31033 85.3485 4.24136 82.883 3.66158 80.8446L3.15428 79.0973V69.7787V60.4602L3.73406 59.14C4.38631 57.684 5.72705 56.1309 6.92284 55.4708C8.44476 54.6555 9.26007 54.539 14.2244 54.539H18.9532L18.2829 55.2961C17.1052 56.6162 16.7428 57.6646 16.7428 59.7807C16.7428 61.3532 16.8153 61.7803 17.1777 62.5957C18.0292 64.44 19.8229 65.8572 21.6347 66.129C22.0877 66.1872 22.45 66.2649 22.45 66.3037C22.45 66.3231 22.2507 66.7696 21.9971 67.2938C20.4389 70.6329 21.671 74.6904 24.7148 76.2823C25.8562 76.8842 27.8673 77.0395 29.0088 76.6124L29.7879 76.3406L29.806 77.7189C29.8241 80.1651 31.0742 82.1647 33.2665 83.2907C35.2052 84.2808 37.6511 84.0672 39.2817 82.7471C39.6441 82.4559 40.0065 82.1064 40.0789 81.9706C40.3326 81.524 40.5138 81.6988 40.8399 82.6306C41.0573 83.2324 41.5465 83.9702 42.2169 84.6691C43.0865 85.5621 43.5033 85.8533 44.4816 86.1833C45.9854 86.6687 46.7464 86.6687 48.2502 86.1833C49.2286 85.8533 49.6453 85.5621 50.515 84.6691C51.1853 83.9702 51.6745 83.2324 51.8919 82.65C52.0731 82.1259 52.2543 81.7182 52.3268 81.7182C52.3811 81.7182 52.671 81.99 52.9609 82.3006C53.9936 83.4266 56.0229 84.1255 57.5991 83.9119C58.9036 83.7372 60.498 82.8636 61.3677 81.8347C62.491 80.5339 62.9077 79.4079 62.9258 77.7189L62.944 76.3406L63.723 76.6124C64.8645 77.0395 66.8756 76.8842 68.017 76.2823C71.0609 74.6904 72.2929 70.6329 70.7347 67.2938C70.4811 66.7696 70.2818 66.3231 70.2818 66.3037C70.2818 66.2649 70.6441 66.1872 71.0971 66.129C73.8511 65.7213 75.9165 63.2363 76.0433 60.169C76.1339 58.2276 75.6629 56.8298 74.449 55.5097L73.5612 54.539H75.6447H77.7102V52.8888V51.2387H76.6231C76.0252 51.2387 75.536 51.1998 75.536 51.161C75.536 51.1222 75.6629 50.7145 75.8078 50.268C76.2064 49.0643 76.152 46.8706 75.7172 45.8222C75.5179 45.3563 75.3549 44.9486 75.3549 44.9098C75.3549 44.871 78.0363 44.8321 81.2976 44.8321C87.0954 44.8321 87.2584 44.8515 88.0375 45.2592ZM52.816 51.4328C53.7762 51.8405 54.0117 52.7723 53.595 54.4419C53.3233 55.4903 51.7832 57.1404 50.8048 57.4316C49.8446 57.7034 42.8872 57.7034 41.927 57.4316C40.9486 57.1404 39.4086 55.4903 39.1368 54.4419C38.7201 52.8112 38.9556 51.8405 39.8615 51.4522C40.4594 51.1804 52.1818 51.1804 52.816 51.4328ZM36.1111 54.7719C36.8539 57.5481 38.4845 59.4701 40.8761 60.4019C41.782 60.7708 42.4162 60.829 45.5868 60.9067C49.6996 61.0037 51.131 60.8096 52.6891 60.0331C54.3922 59.1789 55.9323 57.121 56.5845 54.869C56.6751 54.5584 57.0737 54.539 61.6213 54.539H66.5495L65.8066 55.3544C64.6289 56.6745 64.2303 57.684 64.1579 59.5283C64.0854 60.9649 64.1398 61.2173 64.6471 62.3627C64.9551 63.0616 65.2087 63.6634 65.2087 63.7217C65.2087 63.7605 64.8464 63.8576 64.4115 63.8964C62.6541 64.1099 60.7879 65.6048 59.9726 67.4491C59.6465 68.1674 59.5015 68.8663 59.4472 70.1282C59.3747 71.623 59.3203 71.8172 59.0667 71.7007C58.9036 71.623 58.342 71.4677 57.7984 71.3707C55.28 70.8465 52.2543 72.6326 51.3303 75.234L51.0223 76.1076L50.4606 75.5252C48.2864 73.312 44.4454 73.312 42.2712 75.5252L41.7096 76.1076L41.4016 75.234C40.4775 72.6326 37.4337 70.8271 34.9334 71.3707C34.3899 71.4871 33.792 71.6425 33.5927 71.7201C33.2484 71.8366 33.2303 71.7395 33.2303 70.1282C33.2122 68.7304 33.1397 68.2451 32.7773 67.4491C31.9258 65.5854 30.0778 64.1099 28.3203 63.8964C27.8855 63.8576 27.5231 63.7799 27.5231 63.7605C27.5231 63.7217 27.7405 63.2363 28.0304 62.6733C28.4652 61.7609 28.5196 61.4309 28.5196 59.8778C28.5196 58.3441 28.4471 57.9946 28.0123 57.1016C27.7405 56.5386 27.1789 55.7232 26.7984 55.3155L26.0737 54.539H31.0561C34.8972 54.539 36.0567 54.5972 36.1111 54.7719ZM23.8632 56.888C25.9649 57.9946 26.2911 61.1202 24.443 62.4209C23.0479 63.411 21.4898 63.2169 20.3846 61.9162C19.3156 60.6349 19.2975 58.9653 20.3302 57.7034C21.363 56.4415 22.4863 56.1891 23.8632 56.888ZM71.8399 57.2763C72.5647 57.7422 73.1807 58.9071 73.1807 59.7807C73.1807 61.7609 71.3326 63.3722 69.4484 63.0034C68.633 62.8286 67.4735 61.7026 67.1836 60.8096C66.3139 57.9558 69.3578 55.6261 71.8399 57.2763ZM28.4834 67.2355C29.8966 67.8762 30.6938 69.7011 30.2589 71.2542C29.9147 72.4772 28.9001 73.4868 27.8492 73.6615C27.3419 73.7391 26.744 73.7003 26.3635 73.5644C25.5845 73.2926 24.5155 72.0696 24.3524 71.2348C23.8089 68.5557 26.2186 66.2066 28.4834 67.2355ZM66.7669 67.3714C67.9989 67.9927 68.6693 69.5652 68.3975 71.1571C68.2344 72.0307 67.1836 73.2732 66.3683 73.5644C64.1035 74.3798 61.8388 72.0113 62.4729 69.5264C62.9983 67.3909 64.937 66.4202 66.7669 67.3714ZM37.5786 75.0981C38.5751 75.8164 39.0462 77.0589 38.7744 78.1655C38.2128 80.3592 36.093 81.3881 34.3174 80.301C32.0164 78.9032 32.3425 75.6029 34.8972 74.6322C35.785 74.2827 36.6727 74.438 37.5786 75.0981ZM58.3238 74.8263C59.8458 75.6611 60.4437 77.7772 59.5378 79.2138C58.034 81.6017 54.7002 81.0387 53.9936 78.2819C53.3414 75.7387 56.041 73.6032 58.3238 74.8263ZM48.1234 77.5636C49.3373 78.5343 49.6996 79.7962 49.1742 81.2328C48.1777 84.0478 44.2642 83.8925 43.467 80.9999C43.0503 79.5244 43.7026 77.9519 45.0071 77.3307C45.7861 76.9424 47.5074 77.0783 48.1234 77.5636Z" fill="white"/>
</svg>
