<svg width="22" height="26" viewBox="0 0 22 26" fill="none" xmlns="http://www.w3.org/2000/svg">
<path fill-rule="evenodd" clip-rule="evenodd" d="M15.0631 2.01477V5C15.0631 6.10457 15.9359 7 17.0125 7H19.9221C19.8696 6.55899 19.675 6.14585 19.3656 5.82843L16.205 2.58579C15.8956 2.26836 15.493 2.06866 15.0631 2.01477ZM0.442871 7C0.442871 3.13401 3.49754 0 7.26566 0H14.8266C15.8606 0 16.8523 0.421426 17.5834 1.17157L20.744 4.41421C21.4752 5.16436 21.8859 6.18178 21.8859 7.24264V19C21.8859 22.866 18.8312 26 15.0631 26H7.26566C3.49754 26 0.442871 22.866 0.442871 19V7ZM5.31629 14C4.77799 14 4.34161 14.4477 4.34161 15C4.34161 15.5523 4.77799 16 5.31629 16H16.5251C17.0635 16 17.4998 15.5523 17.4998 15C17.4998 14.4477 17.0635 14 16.5251 14H5.31629ZM4.34161 11C4.34161 10.4477 4.77799 10 5.31629 10H11.1644C11.7027 10 12.1391 10.4477 12.1391 11C12.1391 11.5523 11.7027 12 11.1644 12H5.31629C4.77799 12 4.34161 11.5523 4.34161 11Z" fill="#351415"/>
</svg>
