<svg width="130" height="44" viewBox="0 0 130 44" fill="none" xmlns="http://www.w3.org/2000/svg">
<path fill-rule="evenodd" clip-rule="evenodd" d="M111.084 27.9162C111.084 27.9162 111.084 27.916 111.084 27.916C117.121 30.3308 123.158 31.9403 130 31.5377C126.14 32.0525 122.28 32.0736 118.42 31.7062C116.45 31.5186 115.531 33.6109 117.384 34.3049C119.226 34.9949 121.256 35.3704 123.56 35.5625C119.236 35.5625 115.461 35.0124 111.782 33.6852C111.161 33.4614 110.691 34.2154 111.16 34.6792C111.723 35.2355 110.946 36.7637 110.235 36.4151C109.602 36.1046 108.98 35.7726 108.369 35.4192C107.752 35.0626 107.093 35.7168 107.445 36.3363C107.903 37.1418 107.155 38.0388 106.458 37.428C106.367 37.3483 106.277 37.2675 106.187 37.1856C105.628 36.6724 104.698 37.045 104.809 37.796C104.851 38.0797 104.901 38.3635 104.959 38.6472C105.097 39.3228 104.179 39.8786 103.743 39.344C103.674 39.2589 103.605 39.173 103.538 39.0861C103.133 38.5662 101.605 38.9595 101.47 39.6044C101.34 40.2304 100.463 40.0311 100.297 39.4136C100.165 38.9218 99.9856 38.4665 99.7454 38.054C99.3872 37.4387 98.5821 37.7883 98.4653 38.4906C98.4262 38.7253 98.3794 38.9566 98.3254 39.1851C98.0408 40.3877 96.706 40.0273 96.4008 38.8299C96.3405 38.5931 96.2658 38.358 96.1737 38.1256C95.9031 37.4429 95.0033 37.5176 94.599 38.1306C94.5031 38.2761 94.4045 38.4199 94.3034 38.5621C93.6911 39.423 92.6538 38.2295 92.761 37.1785C92.8401 36.4033 91.9691 36.5682 91.4569 37.1555C90.6105 38.1258 89.5971 38.8605 88.4472 39.4358C87.3765 39.9715 86.9202 38.2821 87.6897 37.3649C88.3474 36.581 87.272 36.1435 86.3635 36.6144C83.2807 38.2124 79.3557 38.6652 75.6661 39.5881C78.6099 38.4106 81.5537 37.4482 83.8676 35.7564C84.6068 35.216 83.8581 34.2651 82.9551 34.4175C81.8416 34.6055 81.8253 32.1756 82.8498 31.7006C83.6421 31.3333 84.4028 30.899 85.1278 30.3826C85.4979 30.119 85.9856 30.0735 86.3937 30.2733C89.3104 31.7016 101.267 36.6824 111.084 27.9164C111.084 27.9163 111.084 27.9163 111.084 27.9162Z" fill="#351415"/>
<path fill-rule="evenodd" clip-rule="evenodd" d="M18.514 27.9161C18.514 27.9158 18.5138 27.9157 18.5135 27.9158C12.8791 30.3307 6.84205 31.9403 0 31.5377C3.81932 32.0835 7.82363 32.0744 11.8875 31.6357C13.7874 31.4305 14.7011 33.3654 12.9365 34.099C10.9573 34.9216 8.75336 35.3521 6.43964 35.5625C10.2274 35.5625 14.0148 35.0673 17.6082 33.883C18.2997 33.6551 18.739 34.5961 18.1867 35.0705C17.554 35.614 18.3413 37.0678 19.1002 36.7218C19.9943 36.3141 20.8604 35.8658 21.7033 35.3768C22.227 35.0729 22.7377 35.7558 22.4272 36.2757C22.0382 36.927 22.963 37.856 23.5444 37.3686C23.7154 37.2252 23.8835 37.0782 24.0483 36.9275C24.5212 36.4952 25.318 36.8139 25.2385 37.4497C25.2145 37.6416 25.1868 37.8336 25.1555 38.0256C25.0217 38.8455 26.0708 39.442 26.543 38.7585C26.6171 38.6511 26.6907 38.5422 26.7638 38.4316C27.1542 37.841 28.2811 38.2333 28.3714 38.9355C28.4664 39.6749 29.5355 39.5425 29.7823 38.8391C29.8446 38.6615 29.911 38.4897 29.9822 38.3241C30.254 37.692 31.0579 37.948 31.2243 38.6155C31.2397 38.6775 31.2559 38.7393 31.2727 38.8009C31.5243 39.7228 33.3219 39.259 33.6777 38.3721C33.7291 38.244 33.785 38.1166 33.8458 37.9901C34.1376 37.3821 34.9605 37.4587 35.3081 38.0366C35.3995 38.1886 35.4931 38.3388 35.5889 38.4872C36.1435 39.346 37.2119 38.1128 37.1811 37.091C37.1586 36.3449 38.0048 36.526 38.4891 37.0939C39.3177 38.0655 40.304 38.804 41.4035 39.3838C42.3789 39.8981 42.8942 38.3034 42.1747 37.4678C41.5506 36.743 42.5131 36.1612 43.365 36.5961C43.9574 36.8985 44.5689 37.1602 45.196 37.3918C46.0932 37.7232 46.6272 36.1514 45.872 35.5647C45.2429 35.0759 45.8321 34.2179 46.6144 34.368C46.7964 34.4029 46.9786 34.4344 47.1612 34.4628C48.2964 34.6396 48.425 32.2733 47.3759 31.8049C46.5132 31.4198 45.6837 30.9574 44.8957 30.3983C44.5109 30.1253 44.0065 30.0747 43.5806 30.2776C40.5697 31.7115 28.3223 36.6737 18.5142 27.9164C18.5141 27.9163 18.514 27.9162 18.514 27.9161Z" fill="#351415"/>
<path d="M84.1168 8.59748C84.1172 8.59748 84.1175 8.59741 84.1179 8.59727C90.9604 5.7796 103.034 1.3531 112.29 0.145248C115.32 -0.211357 118.903 0.0635991 121.92 1.24975C124.029 2.07917 121.751 3.63195 119.51 3.29039C108.592 1.626 91.0925 9.62044 82.8378 13.6722C81.7875 14.1877 80.564 13.6253 80.8828 12.4996C81.3521 10.8424 82.7339 9.15091 84.1158 8.59768C84.1161 8.59755 84.1165 8.59748 84.1168 8.59748Z" fill="#351415"/>
<path d="M45.4802 8.59748C45.4798 8.59748 45.4794 8.59741 45.4791 8.59725C39.0391 5.77958 26.9653 1.3531 17.3067 0.145248C14.5852 -0.175029 11.4817 0.0141334 8.73067 0.915321C6.5509 1.62937 8.85704 3.42793 11.138 3.18603C22.1663 2.01648 38.8757 9.65915 46.7348 13.626C47.7915 14.1594 49.0346 13.5998 48.7037 12.4633C48.2246 10.8178 46.853 9.14686 45.4812 8.59768C45.4809 8.59754 45.4805 8.59748 45.4802 8.59748Z" fill="#351415"/>
</svg>
