<svg width="70" height="62" viewBox="0 0 70 62" fill="none" xmlns="http://www.w3.org/2000/svg">
<path d="M18.2351 61.6889C17.7451 61.6889 17.2627 61.4778 16.933 61.0804C16.341 60.3615 16.443 59.2966 17.1612 58.6962C19.9937 56.3544 19.2494 50.7411 19.2411 50.6814C19.106 49.7597 19.74 48.8976 20.6699 48.7625C21.5999 48.6275 22.4538 49.2614 22.5889 50.1914C22.6313 50.4956 23.6456 57.7238 19.3171 61.3086C18.9958 61.5622 18.6071 61.689 18.235 61.689L18.2351 61.6889Z" fill="#351415"/>
<path d="M16.7557 52.7185C16.0114 52.7185 15.3356 52.2197 15.1322 51.4843L9.16375 29.9687C8.91018 29.0724 9.44269 28.1342 10.3391 27.8889C11.2354 27.6435 12.1736 28.1678 12.4189 29.0642L17.9817 49.1003L23.6376 48.1113L21.8112 29.292C21.718 28.362 22.4033 27.5335 23.3326 27.4492C24.2626 27.356 25.0911 28.0412 25.1755 28.9706L27.1539 49.3449C27.2382 50.2241 26.6296 51.0191 25.7592 51.1712L17.0515 52.6927C16.9501 52.7098 16.8487 52.718 16.7555 52.718L16.7557 52.7185Z" fill="#351415"/>
<path d="M16.3073 32.2764C7.31186 32.2764 0 25.0394 0 16.1382C0 7.23592 7.32122 0 16.3073 0C18.015 0 19.79 0.329648 21.295 0.921719C29.3262 4.09199 35.9882 5.5716 41.6104 5.41052L49.7013 3.4916C50.2084 3.37307 50.7327 3.4916 51.1384 3.81299C51.5441 4.13438 51.7812 4.62443 51.7812 5.14043V27.121C51.7812 27.6364 51.5447 28.127 51.1384 28.4484C50.7327 28.7698 50.2002 28.8878 49.7013 28.7698L41.6104 26.8338C35.9038 26.6481 29.2672 28.1188 21.3116 31.3398C19.8244 31.9472 18.0494 32.2769 16.3074 32.2769L16.3073 32.2764ZM16.3073 3.38917C9.18066 3.38917 3.38087 9.11227 3.38087 16.1463C3.38087 23.1804 9.18005 28.9035 16.3073 28.9035C17.6094 28.9035 18.9705 28.6582 20.0443 28.2189C28.5237 24.7868 35.6752 23.2311 41.9071 23.4764C42.0168 23.4764 42.127 23.4935 42.2367 23.5189L48.3997 24.9896V7.29498L42.2284 8.75746C42.1187 8.78282 42.0085 8.79992 41.8905 8.79992C35.761 9.00279 28.609 7.45598 20.0534 4.07395C18.9453 3.64287 17.5843 3.38929 16.3076 3.38929L16.3073 3.38917Z" fill="#351415"/>
<path d="M41.9835 25.7336C41.5188 25.7336 41.1378 25.3532 41.1378 24.8879V7.46503C41.1378 7.00035 41.5182 6.61938 41.9835 6.61938C42.4481 6.61938 42.8291 6.99974 42.8291 7.46503V24.8879C42.8285 25.3615 42.4482 25.7336 41.9835 25.7336Z" fill="#351415"/>
<path d="M15.6566 23.2986C11.6749 23.2986 8.42855 20.0947 8.42855 16.1466C8.42855 12.2067 11.6666 8.99463 15.6566 8.99463C19.6472 8.99463 22.8847 12.1986 22.8847 16.1466C22.8853 20.0859 19.6389 23.2986 15.6566 23.2986ZM15.6566 10.6853C12.6049 10.6853 10.1192 13.1367 10.1192 16.1466C10.1192 19.1566 12.6049 21.6079 15.6566 21.6079C18.7084 21.6079 21.194 19.1566 21.194 16.1466C21.1946 13.1285 18.709 10.6853 15.6566 10.6853Z" fill="#351415"/>
<path d="M62.6114 8.85853H55.003C54.5383 8.85853 54.1574 8.47817 54.1574 8.01288C54.1574 7.5482 54.5377 7.16724 55.003 7.16724H62.6114C63.0761 7.16724 63.457 7.54759 63.457 8.01288C63.4564 8.47816 63.0761 8.85853 62.6114 8.85853Z" fill="#351415"/>
<path d="M69.1633 15.9601H56.1608C55.6961 15.9601 55.3151 15.5797 55.3151 15.1144C55.3151 14.6498 55.6955 14.2688 56.1608 14.2688H69.1544C69.619 14.2688 70 14.6492 70 15.1144C70 15.5797 69.6279 15.9601 69.1632 15.9601H69.1633Z" fill="#351415"/>
<path d="M57.006 23.2985H54.1482C53.6836 23.2985 53.3026 22.9181 53.3026 22.4528C53.3026 21.9881 53.683 21.6072 54.1482 21.6072H57.006C57.4707 21.6072 57.8517 21.9875 57.8517 22.4528C57.8511 22.9181 57.4796 23.2985 57.006 23.2985Z" fill="#351415"/>
</svg>
