<svg width="98" height="79" viewBox="0 0 98 79" fill="none" xmlns="http://www.w3.org/2000/svg">
<path d="M21.2639 40.6022L12.6863 36.0513V43.7311C13.5662 44.0152 14.2259 44.5842 14.6658 45.438C15.5457 46.5759 16.2054 47.9979 16.2054 49.7041C16.2054 51.4109 15.5457 53.1171 14.6658 54.255C14.4461 54.5391 14.0062 55.1081 13.5662 55.3929L17.0853 64.21C17.305 64.4941 17.305 64.7789 17.305 65.063C17.305 66.2009 16.6453 67.054 15.7654 67.054H6.74784C6.52814 67.054 6.30789 67.054 6.08819 66.7699C5.42855 66.4858 4.9886 65.063 5.42855 64.21L9.16728 55.3929C8.72733 54.824 8.2874 54.5398 8.06769 54.255C7.1878 53.1171 6.52814 51.4109 6.52814 49.7041C6.52814 47.9972 7.18779 46.5752 8.06769 45.438C8.50764 44.5849 9.16728 44.0159 9.82693 43.7311V34.3451L1.46956 29.7942C0.809912 29.2252 0.369962 28.0873 0.809912 27.2342C0.809912 26.6653 1.24986 26.3812 1.46956 26.0963L10.2669 21.2613C10.4866 20.9772 10.9265 20.6923 11.3665 20.6923L48.5358 0.21309C48.9758 -0.0710299 49.4157 -0.0710299 49.8556 0.21309L96.9211 26.0963C97.5807 26.6653 98.0207 27.8032 97.5807 28.6563C97.5807 29.2252 97.1408 29.5094 96.9211 29.7942L76.6873 40.8871L79.3264 66.201C79.5461 66.4851 79.5461 66.7699 79.5461 67.3389C79.5461 71.0367 75.8074 74.1649 69.8689 76.1559C64.5906 77.8628 57.3324 79 49.1949 79C41.0572 79 33.7994 77.8621 28.5209 76.1559C22.5824 74.1649 19.0639 71.036 19.0639 67.3389V66.7699C19.0639 66.7699 18.8442 66.4858 19.0639 66.4858L21.2631 40.6026L21.2639 40.6022ZM76.2479 36.9044L92.5238 27.8025L49.1968 3.91093L12.6885 24.1064V31.7863L21.7061 36.6213V35.7682C21.9258 34.6303 22.3658 33.4931 22.8057 32.6393C23.4654 31.5014 24.1255 30.9325 25.0049 30.3642C32.9223 26.3822 40.8406 24.3912 48.9771 24.3912C56.8946 24.3912 64.8128 26.3822 72.73 30.0801C73.6099 30.6491 74.4892 31.218 74.9292 32.0711C75.5888 33.209 75.8091 34.3462 76.0288 35.4841L76.2485 36.9062L76.2479 36.9044ZM76.4676 67.0548V66.7707C76.0277 65.3486 73.3885 63.6418 69.2098 62.2197C64.1512 60.5129 57.1133 59.3757 49.1955 59.3757C41.278 59.3757 34.2402 60.5135 29.1811 62.2197C24.7822 63.6418 21.9233 65.6327 21.9233 67.3396C21.9233 69.0465 24.7827 70.7526 29.1811 72.4595C34.2397 74.1664 41.2776 75.0195 49.1955 75.0195C57.1129 75.0195 64.1507 74.1664 69.2098 72.4595C73.8285 70.7527 76.4676 69.0465 76.4676 67.3396V67.0555V67.0548ZM75.808 61.3659L73.1688 36.052C73.1688 35.483 72.9491 34.9141 72.7289 34.63C72.5092 34.061 72.0692 33.7769 71.6293 33.7769C64.1512 30.079 56.4532 28.088 48.9763 28.3729C41.2786 28.3729 33.8003 30.0797 26.1026 34.0617C25.6626 34.0617 25.4429 34.3458 25.2227 34.9148C25.003 35.1989 24.7827 35.7679 24.7827 36.3368L22.3633 61.6508C23.9028 60.5129 26.102 59.3757 28.5215 58.5219C33.7997 56.815 41.0579 55.6778 49.1955 55.6778C57.3331 55.6778 64.5909 56.8157 69.8695 58.5219C72.2889 59.3749 74.2684 60.2287 75.808 61.3659H75.808ZM11.3668 47.1449C10.9268 47.429 10.4869 47.429 10.0469 47.9979C9.82722 48.2821 9.60697 49.1358 9.60697 49.7048C9.60697 50.2738 9.82667 51.1268 10.0469 51.4116C10.4869 51.9806 10.9268 52.2647 11.3668 52.2647C11.8067 52.2647 12.2466 51.9806 12.6866 51.4116C12.9063 51.1275 13.1265 50.2738 13.1265 49.7048C13.1265 49.1358 12.9068 48.2828 12.6866 47.9979C12.2466 47.429 11.8067 47.1449 11.3668 47.1449ZM9.16756 63.3575H13.3462L11.3668 58.2376L9.16756 63.3575ZM9.82721 25.8131L5.86822 27.8041L9.82721 30.0792V25.8131Z" fill="#351415"/>
</svg>
