<svg width="158" height="83" viewBox="0 0 158 83" fill="none" xmlns="http://www.w3.org/2000/svg">
<path d="M156.442 75.6976C157.437 77.7205 157.606 79.3471 153.785 80.1847C147.074 81.6492 139.82 83.5326 132.915 82.8593H132.916C132.22 82.8518 131.658 82.3353 131.65 81.6964C131.599 77.6196 129.99 74.2331 128.369 70.5298C126.987 67.3525 125.865 63.6484 123.942 60.7353V60.7342C123.925 60.7353 123.908 60.7331 123.893 60.7278C123.209 60.7192 122.509 60.7117 121.799 60.7117C121.023 60.7063 120.249 60.6623 119.479 60.5796L118.931 60.5098L118.652 60.4797L118.29 60.4013C117.92 60.324 117.54 60.2467 117.16 60.1608C116.401 60.0073 115.625 59.843 114.866 59.6497C113.315 59.289 111.763 58.8595 110.187 58.5417C109.794 58.4558 109.401 58.3785 109.009 58.2936C108.616 58.2099 108.217 58.1841 107.811 58.1304C107.406 58.0768 107.019 58.0102 106.613 57.9758C106.221 57.9683 105.813 57.9597 105.408 57.9458H105.409C104.608 57.9189 103.807 57.9543 103.013 58.0542C102.15 58.1347 101.295 58.2829 100.458 58.4955L99.792 58.6351L99.4555 58.7049L99.1844 58.7672C98.7287 58.8756 98.2566 58.9991 97.8021 59.0914C96.886 59.2697 95.9805 59.4522 95.0539 59.6422C93.2977 59.944 91.5789 60.411 89.9266 61.0381L89.2722 61.3248L88.986 61.445V61.4439C88.9755 61.4525 88.9638 61.46 88.9521 61.4665L88.8937 61.4976L88.7838 61.5599C88.4718 61.7446 88.1096 61.9937 87.7369 62.2578C87.0031 62.785 86.2354 63.3401 85.393 63.862H85.3918C84.4711 64.4815 83.4159 64.9099 82.2977 65.1182C81.9459 65.1676 81.5884 65.1762 81.2344 65.1407C81.0053 65.1107 80.7787 65.0613 80.559 64.9926C80.441 64.9539 80.3311 64.9153 80.2225 64.8723C80.1465 64.8412 80.1126 64.8186 80.0612 64.7939L79.7574 64.6318C79.6476 64.5695 79.5974 64.5395 79.581 64.5309C79.5892 64.5309 79.6149 64.5395 79.581 64.5234H79.5752L79.5576 64.4997L79.5156 64.4697L79.4221 64.3999L79.2538 64.2603H79.255C79.0225 64.0627 78.8075 63.848 78.6147 63.6172L78.5633 63.5474C78.5458 63.5699 78.5387 63.5946 78.5212 63.6172C78.3284 63.848 78.1134 64.0628 77.8809 64.2603L77.7045 64.3999L77.6192 64.4697L77.5771 64.4997L77.5526 64.5234C77.5526 64.5234 77.5187 64.5395 77.3668 64.6318L77.0723 64.7939C77.0116 64.8176 76.9871 64.8412 76.9111 64.8723C76.8013 64.911 76.6926 64.9496 76.5734 64.9926C76.3537 65.0613 76.1282 65.1107 75.8992 65.1407C75.5452 65.1762 75.1876 65.1676 74.8359 65.1182C73.7177 64.912 72.6614 64.4836 71.7418 63.862C70.8899 63.3423 70.1305 62.7796 69.3862 62.2578C69.0496 62.0098 68.7003 61.7768 68.3392 61.561L68.2294 61.4987L68.1791 61.4676L68.1534 61.4536C68.1453 61.445 67.859 61.3215 67.859 61.3215L67.2046 61.0348V61.0338C65.5489 60.4067 63.8278 59.9386 62.0681 59.639C61.152 59.4522 60.2359 59.2664 59.328 59.0882C58.8723 58.9959 58.4003 58.8713 57.9364 58.7639L57.6665 58.7017L57.337 58.6319L56.6709 58.4923V58.4912C55.8343 58.2797 54.979 58.1315 54.1167 58.0499C53.3221 57.9511 52.5217 57.9146 51.7213 57.9425C51.3159 57.9565 50.9116 57.9651 50.5143 57.9726C50.11 58.0123 49.7139 58.0735 49.3085 58.1272C48.9042 58.1809 48.5151 58.2131 48.119 58.2904C47.7229 58.3688 47.3338 58.4526 46.9412 58.5385C45.3708 58.8563 43.8004 59.2815 42.2614 59.6465C41.5019 59.8398 40.726 60.0073 39.9595 60.1576C39.5798 60.2435 39.2082 60.3208 38.8285 60.3981L38.4732 60.4765L38.1963 60.5066L37.6401 60.5764L37.6413 60.5753C36.8736 60.658 36.1024 60.7031 35.3301 60.7084C34.6127 60.7084 33.9127 60.7159 33.2292 60.7245V60.7235C33.2163 60.7299 33.2023 60.732 33.1871 60.731C31.2569 63.6452 30.1432 67.3449 28.7598 70.5255C27.1415 74.2299 25.5301 77.6205 25.4799 81.6921L25.481 81.6932C25.4694 82.331 24.9097 82.8453 24.2156 82.8561C19.4087 83.3199 14.847 82.4223 10.1753 81.4688L10.1741 81.4677C7.59414 81.1209 5.0423 80.6195 2.53474 79.9645C-0.661116 78.8951 -0.290591 77.3189 0.713123 75.4709C0.759861 75.2873 0.848663 75.1155 0.974857 74.9663L1.05431 74.8718C1.45861 74.1739 1.90613 73.4384 2.26014 72.6793C2.34544 72.4667 2.5102 72.2884 2.72403 72.1757C4.33416 68.7269 4.89152 64.4268 6.25729 61.1723C8.01932 56.9794 10.0173 52.8027 12.0669 48.7181C13.9388 44.6401 16.5035 40.8606 19.6653 37.5215C22.9883 34.236 26.6316 31.2907 29.4302 27.5874C32.1632 23.969 33.909 20.2334 36.253 16.4518C38.3024 13.1511 41.2457 11.6319 44.7712 9.79574C50.0244 7.05238 55.2522 -0.610629 61.9568 0.0388924H61.9556C62.1215 0.0517771 62.2828 0.0968736 62.4288 0.17096C62.5959 0.177402 62.7607 0.218205 62.9091 0.291216C66.425 1.91145 72.4473 2.97122 74.3273 6.52201C74.3693 6.59502 74.4009 6.67233 74.4196 6.75393C74.5177 6.92251 74.5797 7.1061 74.6054 7.29617C74.6743 8.0306 74.6381 8.77039 74.4955 9.49622C74.7573 9.66372 75.0085 9.84517 75.2469 10.0395C75.5074 10.2435 75.7458 10.4722 75.9549 10.7213L76.2751 11.1014C76.3756 11.2636 76.4691 11.4279 76.5614 11.5964H76.5625C76.6525 11.7478 76.7296 11.9057 76.7904 12.0689L76.9084 12.4178L76.9598 12.5971L76.9773 12.6358L76.9855 12.6583L77.0276 12.8205L77.0369 12.9139L77.0954 13.294C77.2554 14.3162 77.3396 15.2771 77.4506 16.1683C77.509 16.5795 77.5814 16.9822 77.6352 17.3848C77.766 17.8261 77.9051 18.2674 78.0278 18.7012L78.0254 18.7023C78.1692 19.1447 78.3468 19.5763 78.5571 19.9961C78.7709 19.5785 78.9485 19.1457 79.0875 18.7023C79.2184 18.2685 79.3575 17.8272 79.4918 17.3859C79.5503 16.9833 79.611 16.5806 79.6776 16.1694C79.7781 15.2782 79.8634 14.3172 80.0328 13.2951L80.0831 12.915L80.1006 12.8215L80.1438 12.6594L80.152 12.6369L80.1602 12.5982L80.221 12.4189L80.3296 12.07L80.3273 12.0689C80.3915 11.9057 80.471 11.7478 80.5645 11.5964C80.6486 11.4268 80.7491 11.2636 80.8414 11.1014L81.1709 10.7213C81.3766 10.4679 81.6138 10.2392 81.879 10.0395C82.1174 9.84518 82.3674 9.66372 82.6292 9.49622C82.4889 8.77039 82.4504 8.03167 82.5111 7.29617C82.5415 7.10719 82.6046 6.92358 82.6969 6.75393C82.7238 6.67447 82.7553 6.59717 82.7904 6.52201C84.6786 2.97231 90.6927 1.91158 94.2086 0.291212C94.3605 0.219273 94.5276 0.178471 94.6982 0.170956C94.8407 0.0968694 94.9985 0.0517742 95.1609 0.0388883C98.2141 -0.255307 100.871 1.33271 103.122 3.0688C106.555 5.70369 109.534 8.34606 113.478 10.3603C117.011 12.1642 119.702 13.995 121.414 17.4553H121.412C123.129 21.0168 125.233 24.4109 127.694 27.5827C130.835 31.6038 134.956 34.6661 138.362 38.4627H138.363C141.366 41.9555 143.822 45.8188 145.658 49.9386C147.588 54.0273 149.833 58.13 151.325 62.3765C152.346 65.2519 152.986 69.0872 154.412 72.1784H154.411C154.618 72.2933 154.778 72.4683 154.865 72.6756C155.178 73.3488 155.541 74.0081 155.886 74.6287C155.972 74.7489 156.055 74.852 156.148 74.9615H156.147C156.331 75.1709 156.433 75.4296 156.442 75.697L156.442 75.6976ZM149.595 78.5956C150.033 78.5258 154.782 77.5133 154.807 77.5648V77.5659C154.59 77.1139 154.349 76.6715 154.082 76.2431C152.167 73.8186 151.465 70.7726 150.539 67.9282C149.024 63.4712 147.24 59.0947 145.194 54.8201C143.506 50.6487 141.374 46.6405 138.827 42.8547C136.018 39.0807 132.223 36.2996 129.012 32.8736C126.266 30.085 123.859 27.0303 121.834 23.7629C119.693 20.0436 118.648 15.812 114.421 13.5336C111.275 12.04 108.309 10.2425 105.576 8.17138C102.843 5.87683 99.4032 2.09617 95.3686 2.35922C93.5049 3.20101 91.5488 3.84633 89.6759 4.6677C88.1055 5.34952 85.8726 6.13225 85.021 7.64401C85.0128 7.85232 85.0128 8.06921 85.021 8.27858C85.8903 7.85984 86.7082 7.42604 87.5845 6.98476V6.98583C89.3793 6.0066 91.3167 5.26574 93.3367 4.78472C93.8742 4.68164 94.4222 4.62903 94.9726 4.6301C95.2612 4.62903 95.5486 4.6548 95.8326 4.70634L96.0429 4.73747L96.1562 4.76217L96.2146 4.77076L96.2392 4.77827L96.3245 4.8019L96.6446 4.89424C96.855 4.96403 97.0571 5.01449 97.2768 5.10361C97.4965 5.19273 97.7488 5.29688 97.9849 5.39781H97.986C98.4079 5.59 98.8192 5.80261 99.2176 6.03345C100.565 6.87524 101.802 7.85876 102.903 8.96248C104.435 10.5001 105.877 12.1117 107.222 13.7898C108.167 14.9612 108.69 15.6119 108.563 15.7353C108.436 15.8588 107.677 15.4025 106.48 14.4125C105.282 13.4225 103.698 11.87 101.637 10.1509C100.551 9.22858 99.3671 8.40828 98.1041 7.70175C97.7769 7.52996 97.4393 7.37427 97.0922 7.23684C96.0909 6.77514 94.9423 6.65702 93.8545 6.90399C92.0796 7.39577 90.3841 8.1012 88.8116 9.00311C87.9516 9.44441 87.0157 9.96516 86.0715 10.429V10.4301C85.1823 10.7908 84.3457 11.2536 83.585 11.8087C83.432 11.9268 83.2941 12.0589 83.1714 12.2039L82.995 12.4057H82.9938C82.9693 12.4605 82.9412 12.5152 82.9109 12.5678C82.877 12.6376 82.8256 12.6301 82.7917 12.7547L82.6737 13.1154L82.6152 13.2862L82.6071 13.3248L82.5556 13.6738C82.4037 14.565 82.3114 15.5109 82.1759 16.4956C82.0754 17.0153 81.9726 17.5264 81.8815 18.0375C81.7377 18.4873 81.594 18.9211 81.4515 19.3603C81.0799 20.4426 80.609 21.1266 80.2877 21.8943V21.8921C79.9699 22.5009 79.7887 23.1623 79.7572 23.8366C79.7619 23.9182 79.7759 23.9988 79.7981 24.0771C79.7981 24.0696 79.7806 24.061 79.7561 24.0771C79.7981 24.1244 79.8869 24.1974 79.957 24.264L79.9827 24.2865C80.0073 24.3091 80.0587 24.3176 80.0914 24.3402L80.0926 24.3413C80.2036 24.3703 80.3157 24.3885 80.4302 24.395C81.0063 24.4003 81.5777 24.3091 82.1175 24.1244C83.314 23.5693 84.3866 22.8112 85.2792 21.8921C86.075 21.0815 86.8076 20.2193 87.4713 19.313C87.4888 19.2271 87.4794 19.1509 87.4888 19.0725C87.1686 18.9083 86.8777 18.6989 86.6276 18.453C86.2339 18.0708 85.9803 17.5865 85.902 17.0658C85.8845 16.705 85.978 16.501 86.1462 16.4462C86.4839 16.3141 86.9817 16.865 87.7482 17.1506C88.7905 17.4759 89.9274 17.4233 90.9288 17.0045C91.9874 16.6631 92.8906 16.006 93.4924 15.1363C93.6466 14.8485 93.7681 14.5479 93.8546 14.2365C93.9212 13.9498 93.9855 13.7168 94.1584 13.6632C94.3313 13.6095 94.551 13.6793 94.7999 13.9423C95.1481 14.3868 95.3128 14.9312 95.2626 15.4766C95.2193 16.0167 95.0406 16.5396 94.7391 17.0045C94.8057 17.0164 94.8711 17.0314 94.9342 17.0496C95.3923 17.2204 95.8083 17.4738 96.1564 17.7937C96.722 18.2823 97.4044 18.8084 98.0879 19.3893C98.8123 19.9014 99.5041 20.39 100.364 21.0406C100.778 21.3735 101.216 21.6527 101.629 22.0489C102.043 22.444 102.472 22.8391 102.903 23.2418L102.987 23.3191L103.081 23.4286L103.212 23.5832L103.473 23.901C103.651 24.1104 103.836 24.3262 104.014 24.5442C104.36 25.0327 104.747 25.5277 105.068 26.0474C105.144 26.1676 105.22 26.3018 105.296 26.4264H105.294C106.059 27.1426 106.723 27.9446 107.272 28.8133C109.001 31.5018 109.38 34.0746 108.984 34.1444C108.714 34.1981 108.148 33.0621 107.247 31.4784C107.306 31.7812 107.356 32.0797 107.39 32.3781H107.389C107.459 32.8763 107.488 33.3788 107.474 33.8814C107.474 34.1219 107.482 34.3463 107.482 34.5793C107.482 34.8112 107.474 35.0131 107.465 35.23C107.447 36.09 107.406 36.9136 107.334 37.6641V37.663C107.254 38.8656 106.973 40.0499 106.5 41.1731C106.129 41.9709 105.758 42.3435 105.615 42.2812C105.438 42.2114 105.484 41.754 105.53 40.9648C105.572 40.5063 105.581 39.9104 105.572 39.2211V39.22C105.162 40.472 104.61 41.681 103.928 42.8277C103.376 43.75 102.695 44.6025 101.903 45.3617C100.981 46.2164 99.9014 46.9132 98.7154 47.4232C96.5059 48.4765 93.808 49.4611 91.1509 50.5155C90.4965 50.8022 89.8282 51.0889 89.1528 51.3842C88.8326 51.5313 88.4447 51.6773 88.1748 51.8255L88.176 51.8244C88.0358 51.8953 87.9002 51.9726 87.7693 52.0563C87.6268 52.1497 87.4831 52.2432 87.3405 52.3441C86.123 53.2095 84.9931 54.1759 83.9673 55.2303C82.8841 56.3018 81.9575 57.4979 81.2097 58.7874C80.8615 59.3693 80.6302 60.005 80.5262 60.6621C80.5016 60.8081 80.4934 60.9563 80.5016 61.1045C80.7517 60.7201 81.0601 60.37 81.4177 60.0662C82.1445 59.4413 83.0372 59.0021 84.0058 58.7949C84.4814 58.6929 84.9768 58.7036 85.4454 58.826C85.9034 58.9527 86.2855 59.2426 86.5086 59.6313C86.5379 59.6818 86.5624 59.7333 86.5846 59.787C86.7949 59.6399 87.0228 59.5003 87.2682 59.3532L87.4621 59.233L87.5638 59.1793L87.614 59.1557L87.7239 59.102L88.044 58.9624L88.6983 58.6757L88.6972 58.6746C90.5515 57.9542 92.4865 57.4205 94.4658 57.0856C95.3819 56.9062 96.2781 56.7366 97.172 56.5659C97.6195 56.48 98.0319 56.3726 98.4619 56.2792L98.8545 56.1858L99.1922 56.116L99.8606 55.9914C100.76 55.7767 101.676 55.6285 102.601 55.5491C103.555 55.4352 104.519 55.402 105.48 55.4492C105.952 55.4717 106.417 55.4879 106.872 55.5104C107.328 55.5577 107.775 55.6307 108.222 55.6972C108.67 55.7638 109.116 55.8175 109.545 55.9141L110.81 56.1933C112.48 56.5734 114.031 57.0351 115.532 57.4334C116.283 57.6428 117.025 57.821 117.75 57.9917C118.112 58.0851 118.474 58.17 118.829 58.2548L118.96 58.2859L119.028 58.302L119.061 58.3096L119.062 58.3074C119.139 58.3246 119.218 58.3385 119.298 58.3471L119.846 58.4309H119.847C120.186 58.491 120.529 58.5318 120.875 58.5511C121.204 58.5737 121.53 58.6048 121.887 58.6134C122.605 58.6521 123.304 58.6832 123.995 58.7133V58.7143C125.423 58.7702 126.834 59.0214 128.183 59.4584C128.509 59.5776 128.824 59.7193 129.127 59.8836L129.592 60.1166L129.702 60.1703L129.71 60.1778C129.71 60.1778 129.841 60.2637 129.828 60.2562L129.827 60.2573C129.847 60.268 129.867 60.2809 129.885 60.2949L130.053 60.4344H130.055C130.542 60.8027 130.992 61.2129 131.396 61.6595C132.121 62.4562 132.75 63.3206 133.276 64.2397C134.081 65.6645 134.772 67.1399 135.343 68.6569C136.259 71.121 136.7 72.4847 136.531 72.5631C136.363 72.6415 135.545 71.3777 134.322 69.053V69.0519C133.593 67.6582 132.784 66.2999 131.901 64.9835C131.368 64.1922 130.749 63.4524 130.055 62.7749C129.688 62.4173 129.287 62.0898 128.857 61.7978L128.689 61.6775L128.58 61.6314L128.225 61.4832V61.4843C127.988 61.3661 127.739 61.2684 127.483 61.1911C127.339 61.1439 127.179 61.1127 127.027 61.0709C128.553 63.8839 129.549 67.0224 130.805 69.9055C132.375 73.5014 133.832 76.7935 134.111 80.6085C139.418 80.8748 144.393 79.4489 149.597 78.5996L149.595 78.5956ZM105.45 36.6035C105.416 36.1783 105.384 35.7434 105.34 35.2806C105.323 35.0637 105.308 34.8469 105.29 34.6225C105.273 34.3991 105.247 34.1887 105.222 33.9632V33.9643C105.199 33.5294 105.141 33.0967 105.045 32.6705C104.679 30.7528 103.936 28.9113 102.852 27.2384C102.575 26.78 102.262 26.3773 101.975 25.9586C101.807 25.7342 101.629 25.5248 101.461 25.3079L101.199 24.9901L101.069 24.828C101.055 24.814 101.043 24.7979 101.035 24.7818L100.967 24.7195C100.614 24.3588 100.268 24.0066 99.92 23.6662C99.5717 23.3258 99.1604 23.007 98.8076 22.6827C98.0142 22.0084 97.2652 21.3599 96.5641 20.7586C95.9402 20.1154 95.3571 19.5421 94.843 18.9547V18.9537C94.6911 18.755 94.5065 18.5789 94.295 18.434C94.177 18.3642 94.177 18.3256 93.9492 18.3803C93.5192 18.5124 92.963 18.8377 92.5096 18.9816C92.3916 19.0213 92.2701 19.0557 92.1474 19.0825C92.0539 19.1212 91.9616 19.1684 91.8611 19.2028H91.86C91.1811 19.4487 90.4578 19.5775 89.7275 19.5829C89.1608 21.0292 88.2857 22.3563 87.1546 23.4891C86.3869 24.2579 85.4767 24.8957 84.4648 25.3724C83.8303 25.6655 83.1514 25.8685 82.4504 25.9737C81.7808 26.2067 81.0716 26.3334 80.3565 26.3452C79.7115 26.3581 79.0805 26.1691 78.5687 25.8094C78.0581 26.1691 77.4306 26.357 76.788 26.3452C76.0729 26.3334 75.3637 26.2078 74.6941 25.9737C73.9907 25.8685 73.3072 25.6655 72.6704 25.3724C71.662 24.8957 70.7541 24.2579 69.9888 23.4891C68.8565 22.3542 67.979 21.026 67.4053 19.5796C66.675 19.5731 65.9517 19.4443 65.2717 19.1995C65.1782 19.1608 65.0859 19.1136 64.9948 19.0792C64.8756 19.0481 64.7506 19.018 64.6232 18.9783C64.1757 18.8387 63.6195 18.5145 63.1907 18.377C62.9628 18.3233 62.9628 18.3609 62.8436 18.4307C62.6321 18.5767 62.4475 18.7518 62.2945 18.9504C61.771 19.5398 61.1996 20.1132 60.5652 20.7542C59.8664 21.3555 59.1256 22.0008 58.3311 22.6783C57.9759 23.0026 57.5377 23.3129 57.2093 23.6618C56.881 24.0108 56.5258 24.3598 56.1717 24.7152L56.1133 24.7688C56.1133 24.7688 56.0794 24.8161 56.0713 24.8247L55.9404 24.9868L55.6868 25.3046C55.5197 25.5215 55.341 25.7298 55.1634 25.9553C54.8841 26.374 54.5639 26.7767 54.287 27.2351V27.2341C53.2109 28.9112 52.4689 30.7505 52.0938 32.6661C52.0074 33.0945 51.9478 33.5261 51.9174 33.961C51.8999 34.1854 51.8753 34.4023 51.859 34.6202C51.8414 34.8382 51.8169 35.0615 51.8005 35.2784C51.7667 35.7433 51.7328 36.1782 51.7001 36.6012C51.8847 37.0125 52.0927 37.4699 52.3228 37.9809L52.3217 37.9799C52.9339 39.4047 53.6911 40.7726 54.5815 42.0686C55.126 42.8363 55.7721 43.5396 56.5059 44.1602C57.3204 44.8323 58.2563 45.3703 59.2705 45.7493C61.6062 46.7113 64.0939 47.5005 66.911 48.5151C67.6109 48.7781 68.319 49.0734 69.0365 49.3568C69.4081 49.519 69.7364 49.6274 70.15 49.8207C70.3101 49.8991 70.5789 50.0451 70.7483 50.1471C70.9165 50.248 71.1105 50.3715 71.2893 50.4799H71.2881C72.6681 51.4098 73.9499 52.4567 75.116 53.6066C76.3838 54.8156 77.4728 56.1728 78.3549 57.6439C78.4309 57.776 78.5068 57.9156 78.5734 58.0552C78.6494 57.9156 78.7172 57.776 78.7931 57.6439C79.6776 56.1729 80.769 54.8158 82.0401 53.6066C83.2051 52.4545 84.4869 51.4076 85.868 50.4799C86.0445 50.3715 86.2232 50.2555 86.4067 50.1471C86.5913 50.0387 86.846 49.8991 87.0061 49.8207C87.4104 49.6274 87.7399 49.519 88.1103 49.3568C88.8347 49.0691 89.5498 48.7749 90.2357 48.5151C93.0611 47.5004 95.5488 46.7112 97.8763 45.7493C98.894 45.3703 99.8323 44.8323 100.65 44.1602C101.38 43.5364 102.027 42.8342 102.573 42.0686C103.458 40.7694 104.214 39.4015 104.833 37.9799C105.053 37.472 105.256 37.0147 105.45 36.6035ZM85.8097 60.3315C85.7665 60.2574 85.7151 60.1876 85.6578 60.1221C85.4148 59.859 84.9836 59.7893 84.3176 59.9675C83.5931 60.1951 82.9295 60.5591 82.3686 61.038C81.879 61.4159 81.5098 61.9077 81.2983 62.4628C81.6991 62.4682 82.0999 62.4424 82.496 62.3855C82.9622 62.2019 83.4062 61.9732 83.8198 61.7037C84.4695 61.3086 85.118 60.8286 85.8097 60.3315ZM77.3852 23.8258C77.3478 23.1515 77.1655 22.4901 76.8465 21.8813C76.5333 21.1136 76.0531 20.4242 75.6909 19.3473C75.5472 18.9135 75.4046 18.4786 75.2609 18.0245C75.1604 17.5134 75.0669 17.0023 74.9664 16.4826C74.8356 15.4991 74.7386 14.5585 74.5738 13.6608L74.5224 13.3118V13.2732L74.4722 13.1089L74.3542 12.7481C74.3121 12.6279 74.27 12.6279 74.2362 12.5613C74.2023 12.4947 74.1777 12.4528 74.1427 12.3992L73.9662 12.1973H73.9674C73.8506 12.0513 73.7139 11.9181 73.5608 11.8022C72.7966 11.2513 71.9612 10.7886 71.0743 10.4235C70.129 9.9586 69.1942 9.4475 68.3331 8.99762C66.7604 8.09893 65.0648 7.39457 63.2913 6.90494C62.214 6.57639 61.035 6.68697 60.0524 7.20774C59.7241 7.31618 59.3689 7.532 59.0335 7.68019H59.0324C57.7657 8.39098 56.5809 9.21884 55.4967 10.1487C53.4449 11.858 51.8581 13.4279 50.6545 14.4037C49.465 15.4033 48.6915 15.8468 48.5804 15.7362C48.4694 15.6256 48.973 14.962 49.9207 13.7906C51.2656 12.1124 52.7075 10.5007 54.2394 8.96332C55.3401 7.85954 56.5764 6.87599 57.9247 6.03428C58.3219 5.80343 58.7332 5.5919 59.1539 5.39864C59.3911 5.29771 59.6189 5.19678 59.8538 5.10445C60.0898 5.0121 60.2838 4.96486 60.4953 4.89507L60.8154 4.80273L60.8995 4.77911L60.9253 4.77159L60.9743 4.763L61.0842 4.74046L61.3038 4.70932H61.305C61.5878 4.6567 61.8752 4.63094 62.1638 4.63201C62.7106 4.63094 63.2563 4.68247 63.7915 4.78663C65.8141 5.26658 67.7525 6.00744 69.5496 6.98774C70.426 7.42905 71.2509 7.86282 72.1132 8.28156C72.1226 8.07004 72.1191 7.85851 72.1039 7.647C71.1878 6.02677 68.6463 5.15168 66.952 4.45381C65.2309 3.74838 63.4526 3.13099 61.7652 2.36113C57.7001 2.09807 54.3361 5.9023 51.5576 8.1733C48.8339 10.4056 45.7387 11.7296 42.7112 13.5355C38.3425 16.1317 37.8552 19.9983 35.2986 23.7648C33.2269 27.0053 30.8234 30.0569 28.122 32.8774C24.8164 36.1242 20.8787 39.045 18.3071 42.8585C15.8499 46.6905 13.7173 50.6913 11.931 54.824C9.90487 59.1048 8.12311 63.4802 6.59338 67.9321C5.58967 70.9246 4.91547 74.1318 2.76548 76.6194C2.75613 76.6355 2.73977 76.6419 2.72341 76.658C2.53763 77.1691 2.59255 77.5718 3.21182 77.7403C4.88154 78.1817 6.57698 78.4297 8.29007 78.7314C13.2316 79.6076 17.9742 80.8702 23.0127 80.6297C23.292 76.8095 24.7502 73.5163 26.3183 69.9268C27.5838 67.0406 28.5711 63.9054 30.1053 61.0921C29.9534 61.1308 29.7921 61.1619 29.6496 61.2124V61.2134C29.3925 61.2897 29.1436 61.3874 28.9076 61.5066L28.5454 61.6547L28.4601 61.6934C28.4426 61.7009 28.2743 61.8136 28.2743 61.8136C27.8443 62.1057 27.4435 62.4321 27.0766 62.7897C26.3814 63.4693 25.761 64.2091 25.2223 64.9994C24.3413 66.3158 23.5362 67.674 22.8106 69.0678C21.5791 71.3923 20.7857 72.6636 20.6011 72.5779C20.4164 72.492 20.871 71.1348 21.7894 68.6717C22.3561 67.1534 23.0466 65.6769 23.8564 64.2556C24.3822 63.3386 25.0085 62.4732 25.7271 61.6744C26.1361 61.2298 26.5883 60.8208 27.0767 60.4503L27.2449 60.3108L27.287 60.2796C27.3291 60.2485 27.3723 60.2195 27.4179 60.1937L27.4354 60.1862L27.5452 60.1325L28.0009 59.8995C28.3059 59.7342 28.6237 59.5924 28.9532 59.4732C30.3016 59.0363 31.7131 58.7861 33.141 58.7292C33.8315 58.6991 34.5408 58.668 35.257 58.6293C35.6204 58.6207 35.9406 58.5896 36.2607 58.567C36.609 58.5477 36.956 58.5069 37.2983 58.4468L37.8463 58.363L38.0742 58.3319V58.3308C38.087 58.3233 38.1022 58.3179 38.1163 58.3158L38.184 58.2997L38.3149 58.2685C38.6771 58.1826 39.0393 58.0989 39.4027 58.0055C40.1295 57.8348 40.8621 57.6565 41.6275 57.4472C43.1289 57.0531 44.6806 56.5871 46.3504 56.207L47.6146 55.9279C48.0365 55.8355 48.491 55.7883 48.9385 55.711C49.386 55.6337 49.8242 55.5714 50.2799 55.5241C50.7426 55.5016 51.2065 55.4855 51.6715 55.4629V55.464C52.6331 55.4179 53.596 55.4511 54.5506 55.5639C55.476 55.6455 56.3921 55.7926 57.2918 56.0063L57.9578 56.1372L58.2955 56.207L58.6881 56.3005C59.11 56.3928 59.5213 56.5012 59.9687 56.5871C60.8626 56.7579 61.7728 56.9275 62.6842 57.1068C64.6636 57.4375 66.5986 57.9658 68.4529 58.682L69.1072 58.9687L69.4274 59.1082L69.536 59.1619L69.5874 59.1856L69.6809 59.2392L69.8819 59.3595C70.1261 59.5077 70.3539 59.6473 70.5654 59.7933C70.5911 59.7396 70.6087 59.6923 70.6414 59.6386V59.6397C70.8634 59.251 71.2466 58.9611 71.7035 58.8344C72.1732 58.711 72.6687 58.7002 73.1431 58.8022C74.1152 59.0105 75.0103 59.4486 75.7405 60.0735C76.0981 60.3784 76.4066 60.7285 76.6566 61.1129C76.6601 60.9647 76.6519 60.8165 76.6321 60.6705C76.5246 60.0134 76.2932 59.3788 75.9485 58.7958C75.1972 57.5073 74.2706 56.3112 73.1898 55.2386C72.1639 54.1843 71.0351 53.2179 69.8177 52.3525C69.674 52.2516 69.5315 52.1592 69.3877 52.0647C69.244 51.9713 69.1692 51.9251 68.9834 51.8328C68.7135 51.6846 68.3291 51.5386 68.0055 51.3915C67.3219 51.0973 66.6547 50.8095 66.0062 50.5228C63.3515 49.4695 60.6513 48.4785 58.4417 47.4305V47.4316C57.2486 46.9205 56.1632 46.2194 55.2353 45.3615C54.4431 44.6013 53.7631 43.7498 53.2116 42.8275C52.5292 41.6797 51.9753 40.4707 51.5594 39.2198C51.55 39.9091 51.5676 40.5051 51.6108 40.9636C51.661 41.7538 51.7019 42.2101 51.5255 42.2799C51.3736 42.3422 51.002 41.9696 50.641 41.1719V41.173C50.1678 40.0499 49.8862 38.8655 49.8055 37.6628C49.7296 36.9102 49.6863 36.0888 49.6747 35.2287C49.6665 35.0118 49.6665 34.7949 49.6595 34.578V33.8801V33.8812C49.6525 33.3787 49.6828 32.8762 49.7506 32.378C49.7845 32.0838 49.8359 31.7767 49.8943 31.4782C48.9923 33.0598 48.4268 34.1979 48.158 34.1442C47.7654 34.0744 48.1323 31.4986 49.8698 28.8131C50.4143 27.9455 51.078 27.1456 51.8433 26.4327C51.9193 26.3124 51.9952 26.1782 52.0712 26.0536C52.3902 25.534 52.7793 25.039 53.1251 24.5504C53.3016 24.3324 53.4803 24.1166 53.6568 23.9073L53.9267 23.5895L54.0575 23.4348L54.151 23.3253L54.2363 23.248C54.6651 22.8454 55.087 22.4427 55.5006 22.0551C55.9142 21.6675 56.3606 21.3808 56.7742 21.0469C57.6342 20.3962 58.3259 19.9077 59.0515 19.3955C59.7351 18.8146 60.4175 18.2875 60.9737 17.8L60.9713 17.8011C61.3242 17.48 61.7425 17.2277 62.2029 17.057C62.266 17.0376 62.3302 17.0215 62.3968 17.0108C62.0965 16.5459 61.9166 16.023 61.8734 15.484C61.8231 14.9374 61.9879 14.3942 62.3361 13.9496C62.5885 13.6866 62.8163 13.6254 62.9776 13.6705C63.1388 13.7166 63.2136 13.9582 63.2814 14.2438C63.3643 14.5552 63.4858 14.8569 63.6436 15.1436C64.2442 16.0111 65.1439 16.6683 66.1978 17.0108C67.1992 17.4306 68.3361 17.4833 69.3784 17.1579C70.1543 16.8712 70.6427 16.3161 70.9897 16.4535C71.1498 16.5072 71.2515 16.708 71.2328 17.0731V17.072C71.1545 17.5927 70.9009 18.0792 70.5071 18.4603C70.2571 18.7084 69.9638 18.9177 69.6402 19.0799C69.6483 19.1582 69.6483 19.2345 69.6647 19.3204C70.326 20.2223 71.0587 21.078 71.8556 21.8812C72.7541 22.8003 73.8291 23.5605 75.0257 24.1242C75.5655 24.3035 76.1369 24.3926 76.7106 24.3873C76.8251 24.3808 76.9384 24.3626 77.0483 24.3336C77.0833 24.3175 77.1172 24.2992 77.1511 24.2788C77.1593 24.2713 77.1756 24.2627 77.1838 24.2563L77.3871 24.0694C77.3532 24.0533 77.3357 24.0619 77.3357 24.077H77.3345C77.3638 23.9953 77.3793 23.9117 77.3852 23.8258ZM74.6369 62.3875C75.0366 62.4434 75.4397 62.4691 75.844 62.4648C75.6278 61.9097 75.2551 61.418 74.7643 61.04C74.2058 60.559 73.541 60.1939 72.8153 59.9695C72.161 59.7913 71.7275 59.8611 71.4833 60.1241C71.4225 60.1875 71.3711 60.2573 71.3314 60.3335C72.015 60.8306 72.6728 61.3095 73.3143 61.7057C73.7291 61.972 74.1719 62.2007 74.6358 62.3875L74.6369 62.3875ZM61.4405 6.46761V6.44399H61.4311C61.4323 6.45044 61.4358 6.4558 61.4393 6.46117L61.4405 6.46761Z" fill="white"/>
<path d="M79.5878 64.5296V64.5375L79.5777 64.5296H79.5878Z" fill="white"/>
</svg>
