<svg width="20" height="20" viewBox="0 0 20 20" fill="none" xmlns="http://www.w3.org/2000/svg">
<path fill-rule="evenodd" clip-rule="evenodd" d="M13.4195 0.0603385C12.5351 -5.00335e-06 11.4381 -2.80375e-06 10.0289 3.89307e-08H9.97112C8.56188 -2.80375e-06 7.46495 -5.00335e-06 6.58053 0.0603385C5.68317 0.121565 4.94853 0.247476 4.27373 0.526988C2.57738 1.22964 1.22964 2.57738 0.526988 4.27373C0.247476 4.94853 0.121565 5.68317 0.0603385 6.58053C-5.00335e-06 7.46495 -2.80375e-06 8.56188 3.89307e-08 9.97112V10.0289C-2.80375e-06 11.4381 -5.00335e-06 12.5351 0.0603385 13.4195C0.121565 14.3168 0.247476 15.0515 0.526988 15.7263C1.22964 17.4226 2.57738 18.7704 4.27373 19.473C4.94853 19.7525 5.68316 19.8784 6.58053 19.9397C7.46494 20 8.56188 20 9.97112 20H10.0289C11.4381 20 12.5351 20 13.4195 19.9397C14.3168 19.8784 15.0515 19.7525 15.7263 19.473C17.4226 18.7704 18.7704 17.4226 19.473 15.7263C19.7525 15.0515 19.8784 14.3168 19.9397 13.4195C20 12.5351 20 11.4381 20 10.0289V9.97112C20 8.56188 20 7.46494 19.9397 6.58053C19.8784 5.68316 19.7525 4.94853 19.473 4.27373C18.7704 2.57738 17.4226 1.22964 15.7263 0.526988C15.0515 0.247476 14.3168 0.121565 13.4195 0.0603385ZM5.38462 10C5.38462 7.45099 7.45099 5.38462 10 5.38462C12.549 5.38462 14.6154 7.45099 14.6154 10C14.6154 12.549 12.549 14.6154 10 14.6154C7.45099 14.6154 5.38462 12.549 5.38462 10Z" fill="#2D222D"/>
<path d="M6.92308 10C6.92308 8.30066 8.30066 6.92308 10 6.92308C11.6993 6.92308 13.0769 8.30066 13.0769 10C13.0769 11.6993 11.6993 13.0769 10 13.0769C8.30066 13.0769 6.92308 11.6993 6.92308 10Z" fill="#2D222D"/>
</svg>
