<svg width="85" height="53" viewBox="0 0 85 53" fill="none" xmlns="http://www.w3.org/2000/svg">
<path d="M14.5608 21.8925C14.5607 21.8925 14.5608 21.8924 14.5608 21.8925C14.8624 22.2179 15.2717 22.3836 15.6824 22.3836C16.0522 22.3836 16.4227 22.2499 16.7175 21.9783C20.0471 18.9059 23.7015 14.9758 27.5792 10.2979C29.8977 7.50317 30.7963 7.5802 32.7792 8.51504C33.5393 8.87598 34.4502 8.54915 34.8097 7.78633C35.17 7.02418 34.8432 6.11535 34.081 5.75578C30.5282 4.07933 28.2105 4.75825 25.2294 8.34999C21.4378 12.9243 17.8775 16.7553 14.6468 19.7358C14.028 20.3082 13.989 21.2736 14.5607 21.8925C14.5607 21.8925 14.5608 21.8925 14.5608 21.8925Z" fill="#351415"/>
<path d="M84.8128 24.7847C84.8132 24.7847 84.8135 24.7845 84.8137 24.7842C84.832 24.7509 84.8476 24.717 84.8632 24.6817C84.8864 24.6292 84.9083 24.5773 84.926 24.5221C84.9397 24.4811 84.9492 24.4402 84.9601 24.3965C84.9731 24.344 84.9826 24.2908 84.9895 24.2362C84.9956 24.1911 84.997 24.1475 84.999 24.1011C85.0011 24.0499 84.9997 24.0001 84.997 23.9496C84.9949 23.9264 84.997 23.9025 84.9942 23.878V23.865C84.9915 23.8377 84.9813 23.8131 84.9765 23.7865C84.969 23.7456 84.9608 23.7053 84.9499 23.6651C84.9431 23.6398 84.9403 23.6139 84.9322 23.5887C84.9192 23.5464 84.9001 23.5081 84.883 23.4686C84.8769 23.4536 84.8742 23.4385 84.868 23.4235C84.8632 23.4126 84.8564 23.4051 84.8516 23.3942C84.8155 23.3178 84.7732 23.2468 84.7261 23.1793C84.7186 23.1684 84.7111 23.1567 84.7036 23.1458C84.6817 23.1165 84.6626 23.0865 84.6401 23.0585C84.6381 23.0565 84.6374 23.0558 84.6353 23.0537C84.5726 22.9814 84.503 22.9145 84.4293 22.8552C84.4177 22.8456 84.404 22.8388 84.3911 22.8299C84.3256 22.7808 84.258 22.7358 84.185 22.6976C84.1666 22.688 84.1482 22.6819 84.1291 22.673C84.0615 22.6416 83.9933 22.6123 83.921 22.5911C83.8875 22.5816 83.8548 22.5761 83.8214 22.5686C83.7634 22.5556 83.7067 22.542 83.648 22.5365C83.5866 22.5297 83.5245 22.5304 83.4625 22.5318C83.4604 22.5318 83.458 22.5316 83.4556 22.5315C83.4497 22.5313 83.4438 22.5318 83.4379 22.5318C83.4195 22.5324 83.4017 22.529 83.3833 22.5297C83.1036 22.5133 77.4069 21.9566 63.5389 5.22906C56.4798 -3.28476 49.905 0.570236 45.5548 3.11799C44.7119 3.61181 43.9055 4.0774 43.1765 4.4156C42.7485 4.61419 42.2571 4.61411 41.829 4.41548C41.1006 4.07746 40.2944 3.61222 39.4507 3.11799C35.099 0.56814 28.5235 -3.28406 21.4666 5.22906C8.09029 21.3621 2.31525 22.4539 1.67091 22.5253C1.63611 22.5291 1.60281 22.5332 1.56792 22.5304H1.55291C1.5263 22.5297 1.50037 22.5311 1.47376 22.5311C1.44033 22.5318 1.40758 22.529 1.37482 22.5331C0.930821 22.5699 0.541885 22.8045 0.291424 23.154C0.290449 23.1554 0.289491 23.1565 0.288566 23.1579C0.287675 23.1593 0.286758 23.1608 0.285821 23.1621C0.232531 23.2366 0.187262 23.3158 0.147357 23.3997C0.143264 23.4085 0.137805 23.4154 0.132347 23.4242C0.126206 23.4372 0.124841 23.4508 0.119383 23.4631C0.101643 23.5054 0.0825377 23.545 0.0682095 23.5893C0.0607042 23.6146 0.0572934 23.6405 0.0504708 23.6644C0.0395538 23.7047 0.0320476 23.7449 0.0238607 23.7858C0.0190845 23.8125 0.0102141 23.8377 0.00612069 23.8643C0.00543825 23.8691 0.00612069 23.8732 0.00612069 23.878C0.00339128 23.9012 0.00543842 23.925 0.00339145 23.9482C-0.000702315 23.9994 -0.000702446 24.0499 0.00134453 24.1011C0.00339132 24.1468 0.00543838 24.1911 0.0108969 24.2362C0.01772 24.2908 0.027272 24.344 0.0402361 24.3965C0.0497886 24.4388 0.0607063 24.4804 0.0743516 24.5221C0.0920912 24.5766 0.113244 24.6299 0.137125 24.6817C0.152818 24.7172 0.168511 24.7499 0.186934 24.7847C0.216956 24.8407 0.251753 24.8926 0.288598 24.9444C0.307021 24.971 0.325443 24.9963 0.346594 25.0208C0.389579 25.0727 0.435294 25.1218 0.485787 25.1675C0.507621 25.188 0.530137 25.2078 0.551971 25.2269C0.603825 25.2699 0.659775 25.3088 0.718453 25.3449C0.74097 25.3586 0.762804 25.3736 0.784638 25.3859C0.79419 25.392 0.822847 25.4063 0.839223 25.4152C0.856962 25.4241 0.87129 25.437 0.890396 25.4445C0.90336 25.4507 0.914958 25.4575 0.927241 25.4623C1.15035 25.5803 1.60614 25.8123 2.23864 26.1002C8.36505 29.2586 11.776 33.723 15.0791 38.0502C20.4373 45.0685 25.9749 52.3234 42.5007 52.3234C59.0254 52.3234 64.5634 45.0685 69.9188 38.0523C73.2232 33.7237 76.634 29.2586 82.7618 26.1002C83.393 25.8137 83.8454 25.5837 84.0698 25.4657C84.0835 25.4595 84.0951 25.4527 84.1087 25.4473C84.1272 25.4384 84.1422 25.4268 84.1599 25.4179C84.1763 25.4091 84.2049 25.3934 84.2145 25.3886C84.2377 25.3756 84.2595 25.3613 84.2807 25.3476C84.3393 25.3115 84.3939 25.2726 84.4472 25.2296C84.4704 25.2098 84.4922 25.1907 84.5133 25.1702C84.5631 25.1232 84.6102 25.0754 84.6525 25.0235C84.673 24.999 84.6914 24.9724 84.7105 24.9471C84.7473 24.8934 84.7813 24.841 84.8119 24.7853C84.8121 24.7849 84.8124 24.7847 84.8128 24.7847ZM23.8162 7.17788C23.8164 7.17789 23.8166 7.17779 23.8167 7.17763C29.2171 0.660641 33.6343 3.24993 37.9076 5.75255C39.3268 6.58496 40.6695 7.36485 41.9858 7.74904C42.0042 7.75586 42.022 7.762 42.0404 7.76882C42.0588 7.7736 42.0772 7.78383 42.0963 7.78861C42.1305 7.79816 42.1646 7.79953 42.2001 7.80635C42.2492 7.8159 42.2976 7.82682 42.3474 7.83159C42.4034 7.83774 42.4587 7.83774 42.5139 7.83774C42.5569 7.83774 42.5992 7.83774 42.6422 7.83364C42.705 7.8275 42.7657 7.8159 42.8271 7.80226C42.8537 7.79611 42.8796 7.79611 42.9056 7.78861C42.9206 7.78452 42.9349 7.77769 42.9499 7.77292C42.9786 7.76405 43.0059 7.75449 43.0332 7.74358C44.3439 7.3574 45.6812 6.58161 47.0957 5.7532C51.5641 3.13593 55.7849 0.661187 61.1867 7.17855C67.3646 14.6308 72.0591 19.0848 75.5272 21.7378C76.9007 22.7884 76.6388 25.0649 74.9428 25.4018C70.6048 26.2636 65.1467 26.2908 60.4356 23.0736C52.0952 17.3789 46.8066 19.2239 43.8623 21.2362C43.044 21.7955 41.9566 21.7958 41.1382 21.2366C38.1934 19.2248 32.9058 17.3787 24.5652 23.0736C19.8537 26.2917 14.3945 26.2638 10.0563 25.4016C8.36054 25.0646 8.09874 22.789 9.472 21.7386C12.9404 19.0856 17.6356 14.632 23.8156 7.17812C23.8158 7.17795 23.816 7.17786 23.8162 7.17788ZM42.5028 30.7585C42.5028 30.7585 42.5028 30.7585 42.5028 30.7585C39.2925 30.7585 36.6943 29.3352 33.944 27.8287C33.1914 27.4165 32.4332 27.001 31.6546 26.6081C30.0888 25.818 29.8544 23.4435 31.5225 22.9019C36.756 21.2028 39.5446 23.7207 41.0611 25.0934C41.2255 25.2422 41.375 25.3773 41.5094 25.4926C41.5182 25.5001 41.5292 25.5055 41.5387 25.5131C41.5838 25.5499 41.6329 25.5813 41.6813 25.6127C41.7175 25.6359 41.7537 25.6618 41.7912 25.6823C41.8403 25.7089 41.8922 25.728 41.944 25.7478C41.985 25.7641 42.0252 25.7819 42.0675 25.7948C42.1194 25.8105 42.1712 25.818 42.2238 25.8283C42.2681 25.8358 42.3111 25.8467 42.3548 25.8508C42.4087 25.8556 42.4633 25.8549 42.5172 25.8535C42.5601 25.8535 42.6024 25.8556 42.6454 25.8508C42.7 25.846 42.7539 25.8331 42.8078 25.8221C42.8501 25.8133 42.8917 25.8071 42.934 25.7949C42.9839 25.7798 43.0316 25.7587 43.0807 25.7389C43.1251 25.7212 43.1688 25.7048 43.2111 25.6823C43.254 25.6598 43.2929 25.6311 43.3346 25.6052C43.3796 25.5758 43.4246 25.5472 43.4669 25.5124C43.4765 25.5049 43.4888 25.4994 43.4983 25.4905C43.632 25.3752 43.7822 25.2408 43.9466 25.0928C45.4626 23.7194 48.2499 21.2008 53.4847 22.9008C55.1529 23.4426 54.9183 25.8174 53.3526 26.6078C52.5739 27.0008 51.8159 27.4165 51.0637 27.8288C48.3099 29.3367 45.7117 30.7585 42.5028 30.7585C42.5028 30.7585 42.5028 30.7585 42.5028 30.7585ZM67.4962 36.202C67.4963 36.202 67.4964 36.2021 67.4963 36.2022C62.1417 43.2155 57.5175 49.2736 42.5028 49.2736C27.4872 49.2736 22.8628 43.216 17.5092 36.2013C16.2901 34.604 15.0558 32.9897 13.6842 31.4177C12.9175 30.5391 13.6671 28.9864 14.8332 28.9864C17.3176 28.9864 19.9324 28.5909 22.5027 27.5824C22.7243 27.4955 22.9585 27.4418 23.1965 27.4397C26.8122 27.4089 29.5672 28.912 32.479 30.5067C35.4449 32.1313 38.512 33.8118 42.5042 33.8118C46.4951 33.8118 49.5627 32.1313 52.5288 30.5074C55.4418 28.9128 58.2013 27.4097 61.8113 27.4404C62.0493 27.4425 62.2835 27.4962 62.505 27.5831C65.0754 28.5916 67.6901 28.9871 70.1746 28.9871C71.339 28.9871 72.0881 30.54 71.3223 31.4172C69.9498 32.9891 68.7153 34.6038 67.496 36.2017C67.496 36.2018 67.496 36.202 67.4962 36.202Z" fill="#351415"/>
</svg>
