<svg width="80" height="71" viewBox="0 0 80 71" fill="none" xmlns="http://www.w3.org/2000/svg">
<path d="M16.4915 69.7569C16.4915 69.7567 16.4914 69.7566 16.4913 69.7566C16.0544 69.7538 15.6371 69.5729 15.3362 69.2559C15.0156 68.9219 7.55458 61.0767 3.51084 56.1337L3.43381 56.0442L3.43292 56.0433C0.869465 52.6917 -0.328798 48.4937 0.0777311 44.2931C0.484352 40.0935 2.46646 36.2036 5.62538 33.4065C8.78429 30.6085 12.8856 29.1119 17.104 29.2158C21.3225 29.3197 25.3442 31.0178 28.3617 33.9682C31.3791 36.9176 33.1669 40.9006 33.3657 45.1156C33.5645 49.3306 32.1601 53.464 29.4345 56.6857C25.8403 60.6774 17.7681 69.1483 17.6728 69.2438C17.6727 69.2439 17.6727 69.2436 17.6727 69.2435C17.6727 69.2433 17.6725 69.2432 17.6724 69.2433C17.3679 69.5718 16.9392 69.7579 16.4916 69.7571C16.4915 69.7571 16.4914 69.757 16.4915 69.7569ZM5.9755 54.1235C5.97557 54.1214 5.97815 54.1205 5.97948 54.1221C8.52147 57.225 12.4595 61.5226 15.0502 64.3015C15.8321 65.1402 17.1548 65.1438 17.9423 64.3103C20.6153 61.4811 24.6705 57.1445 26.969 54.6433C29.1589 52.044 30.2838 48.7132 30.1189 45.3185C29.9532 41.9239 28.5094 38.7175 26.0768 36.343C23.6452 33.9694 20.4046 32.6035 17.0073 32.5203C13.6092 32.4379 10.3058 33.6435 7.7605 35.8952C5.21586 38.1478 3.61634 41.2789 3.2857 44.6618C2.95452 48.0417 3.91415 51.4226 5.9714 54.1248C5.9727 54.1265 5.97542 54.1257 5.9755 54.1235Z" fill="#351415"/>
<path d="M16.4916 52.6011C16.4916 52.6011 16.4916 52.6012 16.4915 52.6012C14.5713 52.6011 12.729 51.838 11.3711 50.4802C10.0124 49.1215 9.2493 47.2801 9.2493 45.3588C9.2493 43.4385 10.0124 41.5962 11.3711 40.2384C12.7289 38.8805 14.5713 38.1174 16.4916 38.1174C18.4119 38.1174 20.2542 38.8805 21.6121 40.2384C22.9708 41.5962 23.733 43.4385 23.733 45.3588C23.7303 47.2791 22.9663 49.1187 21.6085 50.4766C20.2516 51.8335 18.4111 52.5975 16.4918 52.6011C16.4917 52.6011 16.4917 52.6011 16.4916 52.6011ZM16.4916 41.3275C15.4222 41.3275 14.3967 41.752 13.6406 42.5079C12.8847 43.2648 12.4593 44.2903 12.4593 45.3589C12.4593 46.4284 12.8847 47.4539 13.6406 48.2099C14.3966 48.9667 15.4221 49.3913 16.4916 49.3913C17.561 49.3913 18.5865 48.9667 19.3426 48.2099C20.0985 47.454 20.5231 46.4284 20.5231 45.3589C20.5231 44.2904 20.0985 43.2649 19.3426 42.5079C18.5866 41.752 17.5611 41.3275 16.4916 41.3275Z" fill="#351415"/>
<path d="M59.8271 27.6543C59.8272 27.6545 59.8271 27.6546 59.8269 27.6546C59.39 27.6518 58.9727 27.4709 58.6718 27.1539C58.4667 26.9354 53.5365 21.749 50.8655 18.4869C50.8653 18.4867 50.865 18.4866 50.8648 18.4866C50.8645 18.4866 50.8642 18.4864 50.864 18.4862C49.0926 16.1872 48.258 13.3024 48.5276 10.4131C48.7972 7.52289 50.1514 4.84204 52.318 2.91097C54.4846 0.979029 57.3023 -0.0599233 60.2044 0.00267258C63.1065 0.0652685 65.8766 1.22435 67.958 3.24757C70.0387 5.27086 71.2765 8.00715 71.4214 10.9063C71.5665 13.8047 70.6073 16.6511 68.7381 18.8713C66.3638 21.5151 61.2178 26.9048 61.0337 27.1397C61.0335 27.1399 61.0337 27.1401 61.0339 27.1404C61.0342 27.1406 61.0342 27.1411 61.0339 27.1413C60.7232 27.4759 60.2838 27.6629 59.8273 27.6541C59.8272 27.6541 59.8271 27.6542 59.8271 27.6543ZM59.9553 3.25825C57.7636 3.26094 55.6623 4.13331 54.1121 5.68367C52.5626 7.23406 51.6903 9.33533 51.6867 11.5269C51.6822 13.3379 52.2787 15.0987 53.3813 16.5345C54.7229 18.183 56.7441 20.4108 58.3504 22.1662C59.1342 23.0228 60.4808 23.0341 61.2744 22.1867C62.9422 20.4058 65.0036 18.1806 66.2211 16.8566C66.2213 16.8564 66.2214 16.8561 66.2214 16.8558C66.2214 16.8555 66.2215 16.8552 66.2217 16.855C67.5829 15.2402 68.2743 13.165 68.1543 11.0559C68.0334 8.94666 67.1108 6.96267 65.5739 5.51356C64.0378 4.06349 62.0038 3.25649 59.8919 3.2583L59.9553 3.25825Z" fill="#351415"/>
<path d="M59.8272 16.3919C58.421 16.3919 57.0721 15.8339 56.0772 14.8388C55.083 13.8446 54.5241 12.4957 54.5241 11.0895C54.5241 9.68239 55.083 8.33341 56.0772 7.33944C57.0723 6.34527 58.4212 5.78638 59.8272 5.78638C61.2334 5.78638 62.5824 6.34527 63.5772 7.33944C64.5714 8.33362 65.1303 9.68255 65.1303 11.0895C65.1303 12.4956 64.5714 13.8446 63.5772 14.8388C62.5822 15.8339 61.2332 16.3919 59.8272 16.3919ZM59.8272 8.99546C59.8272 8.99596 59.8268 8.99636 59.8263 8.99636C58.9803 8.99672 58.2176 9.50627 57.8935 10.2879C57.5693 11.0707 57.7484 11.9708 58.3476 12.5691C58.9459 13.1674 59.8461 13.3466 60.628 13.0232C61.4099 12.699 61.9204 11.9359 61.9204 11.0895C61.9204 10.5342 61.7001 10.0022 61.3069 9.60899C60.9148 9.21691 60.3831 8.99659 59.8281 8.99636C59.8276 8.99636 59.8272 8.99596 59.8272 8.99546Z" fill="#351415"/>
<path d="M16.6842 70.1812C16.6842 70.181 16.6841 70.1809 16.6839 70.1809C15.8636 70.1861 15.1714 69.5717 15.0792 68.7568C14.9869 67.9417 15.5243 67.1876 16.325 67.0093L52.4644 58.7186C54.4437 58.2645 54.5648 55.491 52.6325 54.8663L40.2724 50.8698C40.2721 50.8697 40.2718 50.8697 40.2715 50.8697C40.2712 50.8697 40.2709 50.8696 40.2707 50.8695C39.5517 50.6285 39.0987 49.9166 39.1855 49.1635C39.2724 48.4102 39.8752 47.82 40.6311 47.7492L62.2797 45.9287C64.407 45.7498 64.8117 42.8088 62.8117 42.0621L50.2232 37.3615C49.5587 37.1116 49.1377 36.4542 49.1878 35.7457C49.238 35.0372 49.7476 34.447 50.4409 34.293L60.2135 32.1346C61.9911 31.742 62.3625 29.3719 60.7904 28.4543L59.1341 27.4877C58.4248 27.0192 58.2044 26.0797 58.6299 25.3443C59.0553 24.609 59.9796 24.3322 60.7391 24.7138L70.4333 30.325C70.4334 30.325 70.4334 30.3252 70.4333 30.3252C70.4331 30.3252 70.4331 30.3253 70.4332 30.3254C71.0035 30.6587 71.3123 31.307 71.2103 31.9598C71.1073 32.6118 70.6164 33.1358 69.9707 33.2782L63.0825 34.7881C61.1332 35.2154 60.9432 37.9206 62.8135 38.6162L78.9462 44.6165C79.6546 44.8754 80.0873 45.5928 79.9851 46.3407C79.8839 47.0885 79.2749 47.6635 78.5225 47.7235L58.7353 49.4109C56.561 49.5963 56.213 52.6339 58.289 53.3063L66.0673 55.8257C66.7579 56.0451 67.2156 56.699 67.1851 57.4218C67.1555 58.1454 66.645 58.759 65.9392 58.9202L17.0434 70.1304C16.9261 70.1608 16.8062 70.1778 16.6845 70.1814C16.6843 70.1814 16.6842 70.1813 16.6842 70.1812Z" fill="#351415"/>
</svg>
