<svg width="22" height="22" viewBox="0 0 22 22" fill="none" xmlns="http://www.w3.org/2000/svg">
<path d="M12.5507 3.50376L12.9524 3.10206C14.3538 1.70069 15.0545 1 15.9252 1C16.7959 1 17.4966 1.70069 18.8979 3.10206C20.2993 4.50343 21 5.20412 21 6.07482C21 6.94552 20.2993 7.64621 18.8979 9.04758L18.4962 9.44928M12.5507 3.50376L2.23634 13.8181C1.61728 14.4372 1.30775 14.7468 1.14757 15.1411C0.987394 15.5354 0.993392 15.9731 1.00538 16.8485L1.0334 18.8935C1.04664 19.8598 1.05325 20.343 1.35514 20.6449C1.65704 20.9468 2.14018 20.9534 3.10646 20.9666L5.15151 20.9946C6.02692 21.0066 6.46462 21.0126 6.85894 20.8524C7.25326 20.6922 7.56279 20.3827 8.18185 19.7637L18.4962 9.44928M12.5507 3.50376L18.4962 9.44928M12.579 20.9946L21 20.9946" stroke="#FCF7F2" stroke-linecap="round"/>
</svg>
