<svg width="28" height="24" viewBox="0 0 28 24" fill="none" xmlns="http://www.w3.org/2000/svg">
<path fill-rule="evenodd" clip-rule="evenodd" d="M19.9873 9H27.7814C27.7847 9.48125 27.7848 10.0115 27.7848 10.6V13.4C27.7848 13.4028 27.7848 13.4055 27.7848 13.4083C27.7848 13.608 27.7852 13.8011 27.7856 13.9878C27.7863 14.348 27.7869 14.6845 27.7848 15H19.9873C18.3724 15 17.0633 13.6569 17.0633 12C17.0633 10.3431 18.3724 9 19.9873 9ZM20.962 11H19.9873C19.449 11 19.0126 11.4477 19.0126 12C19.0126 12.5523 19.449 13 19.9873 13H20.962C21.5003 13 21.9367 12.5523 21.9367 12C21.9367 11.4477 21.5003 11 20.962 11Z" fill="#351415"/>
<path fill-rule="evenodd" clip-rule="evenodd" d="M21.3735 0.0850666C22.409 0.171864 23.2737 0.352174 24.0595 0.762955C25.3433 1.43407 26.387 2.50493 27.0412 3.82207C27.4415 4.62827 27.6173 5.51543 27.7019 6.57778C27.7127 6.71412 27.7222 6.85479 27.7304 7H25.8321H19.9873C17.2958 7 15.1139 9.23858 15.1139 12C15.1139 14.7614 17.2958 17 19.9873 17H24.8607H25.8354H27.7304C27.7222 17.1452 27.7127 17.2859 27.7019 17.4222C27.6173 18.4846 27.4415 19.3717 27.0412 20.1779C26.387 21.4951 25.3433 22.5659 24.0595 23.237C23.2737 23.6478 22.409 23.8281 21.3735 23.9149C20.3586 24 19.0974 24 17.4965 24H11.7738C10.1567 24 8.65873 24 7.40804 23.9161C6.18458 23.8341 5.0389 23.6657 4.21896 23.237C2.93517 22.5659 1.89142 21.4951 1.23729 20.1779C0.83691 19.3717 0.661166 18.4846 0.576565 17.4222C0.493641 16.3809 0.493646 15.087 0.493652 13.4444V10.5556C0.493646 8.91304 0.493641 7.61909 0.576565 6.57778C0.661166 5.51543 0.83691 4.62827 1.23729 3.82207C1.89141 2.50493 2.93517 1.43407 4.21896 0.762955C5.0389 0.334324 6.18458 0.165929 7.40804 0.0838752C8.65872 -4.41074e-06 10.1566 -2.14699e-06 11.7737 3.56403e-07L17.4964 1.17985e-07C19.0974 -6.55774e-06 20.3586 -1.20401e-05 21.3735 0.0850666ZM6.34175 5H12.1899C12.7282 5 13.1645 5.44772 13.1645 6C13.1645 6.55229 12.7282 7 12.1899 7H6.34175C5.80345 7 5.36707 6.55229 5.36707 6C5.36707 5.44772 5.80345 5 6.34175 5Z" fill="#351415"/>
</svg>
