<svg width="90" height="63" viewBox="0 0 90 63" fill="none" xmlns="http://www.w3.org/2000/svg">
<path d="M11.8333 47.6871C11.8523 47.7155 11.8748 47.7413 11.8956 47.7684C11.9157 47.7946 11.9302 47.8197 11.9438 47.8413C11.9871 47.9103 12.0748 47.9428 12.1324 48.0004C12.2041 48.0721 12.2762 48.0867 12.348 48.1354C12.3859 48.1612 12.4073 48.1718 12.4482 48.1924C12.489 48.2128 12.5104 48.291 12.5506 48.3126C12.5876 48.3325 12.6303 48.3467 12.673 48.361C12.7969 48.4023 12.9271 48.4517 13.0577 48.4517H13.2143H13.3399C13.4365 48.4517 13.5354 48.4442 13.6311 48.4308C30.8592 46.0116 39.8321 61.2656 40.192 61.8956C40.5526 62.4368 41.0945 62.7981 41.7258 62.7981C41.9274 62.7981 42.1289 62.7482 42.3305 62.6852C42.4688 62.6421 42.6025 62.5828 42.7191 62.4968C42.9898 62.2972 43.1844 62.0565 43.3305 61.7751C43.4113 61.6195 43.4986 61.4667 43.5825 61.3128C43.7693 60.9699 43.8743 60.5303 43.8008 60.0912C38.616 34.6116 20.8512 25.7861 17.983 24.4858C17.9271 24.4604 17.8686 24.4568 17.8246 24.4139C17.7705 24.3611 17.6927 24.3409 17.6247 24.3077C17.0183 24.0115 16.3447 24.1104 15.8317 24.4517L11.5422 27.5375C11.0081 27.9217 10.3192 28.0186 9.69979 27.7968L4.64395 25.9856C4.01206 25.7149 3.29082 25.8956 2.74888 26.3462C2.29762 26.7975 2.11699 27.5193 2.29762 28.1506L3.95905 33.2856C4.16161 33.9117 4.04325 34.5974 3.6425 35.1193L0.403181 39.3382C-0.0480799 39.9707 -0.138081 40.6926 0.222551 41.3244C0.583183 41.9563 1.12507 42.317 1.84631 42.317H7.18243C7.85109 42.317 8.47551 42.6511 8.84645 43.2075L11.8333 47.6871ZM15.9224 44.5723C15.9221 44.5722 15.9219 44.5719 15.922 44.5716L16.7621 42.1163C16.971 41.5057 17.4617 41.0334 18.0799 40.848L21.7282 39.7538C22.2287 39.6037 22.7707 39.6509 23.2212 39.9155C23.9378 40.3365 24.6438 40.8194 25.3365 41.3521C27.0942 42.7039 24.9557 45.5616 22.7832 45.1178C20.6487 44.6817 18.3618 44.4745 15.9226 44.5723C15.9225 44.5723 15.9225 44.5723 15.9224 44.5723ZM35.4108 46.9179C35.4108 46.9179 35.4107 46.9179 35.4107 46.9179C32.2025 42.6404 28.2022 38.3623 23.7574 36.1717C23.6469 36.1173 23.5412 36.0543 23.4419 35.9815L19.2109 32.8836C18.7899 32.5753 18.5467 32.0803 18.56 31.5586C18.5909 30.3495 19.8976 29.625 20.8957 30.3081C24.9978 33.1154 30.9187 38.3085 35.4108 46.9178C35.4108 46.9179 35.4108 46.9179 35.4108 46.9179ZM9.15477 38.7978C9.15479 38.7978 9.15478 38.7978 9.15476 38.7978H6.69478C6.19112 38.7978 5.90831 38.2181 6.21837 37.8211L7.71106 35.9103C8.07169 35.459 8.16232 34.8278 7.98169 34.2865C7.50607 32.8599 8.91199 31.5228 10.3274 32.0308C10.8686 32.2115 11.5005 32.1208 11.9511 31.7602L12.0102 31.7173C13.2249 30.8338 14.929 31.7013 14.9292 33.2033C14.9292 33.8352 15.1999 34.3765 15.6511 34.7371C16.8779 35.6293 16.5596 37.5392 15.1098 37.9852C14.5685 38.1659 14.1173 38.6171 13.9366 39.1584C13.4576 40.5952 11.537 40.8641 10.6885 39.6097C10.3278 39.0684 9.78661 38.7978 9.15478 38.7978C9.15475 38.7978 9.15475 38.7978 9.15477 38.7978Z" fill="#351415"/>
<path d="M86.2715 35.201C85.8919 34.6829 85.7842 34.0142 85.9819 33.4032L87.6521 28.241C87.8327 27.6091 87.6521 26.8879 87.2008 26.4367C86.7495 25.9854 86.0276 25.8048 85.3057 26.076L80.2428 27.8135C79.6274 28.0248 78.9476 27.9234 78.4206 27.5417L74.028 24.3609C73.5151 24.0191 72.8399 23.9199 72.2328 24.2179C72.1664 24.2505 72.09 24.2697 72.0372 24.3215C71.9923 24.3656 71.9278 24.3725 71.871 24.3995C70.0243 25.2781 61.9324 29.2911 55.0103 38.8556C54.9305 38.9659 54.6286 38.8524 54.6286 38.7162C54.6286 38.7098 54.6281 38.7036 54.6271 38.6973L54.1651 35.8584C54.06 35.2124 54.2776 34.5559 54.7477 34.1006L56.8849 32.0305C57.3362 31.5792 57.5168 30.8573 57.3362 30.1354C57.1556 29.4135 56.5243 28.9623 55.8924 28.8723L52.883 28.4711C52.2259 28.3834 51.6549 27.9759 51.3584 27.383L50.028 24.7223C49.7574 24.0904 49.1255 23.7297 48.4043 23.7297C47.6824 23.7297 47.0511 24.0904 46.7805 24.7223L45.4501 27.383C45.1537 27.9759 44.5827 28.3834 43.9256 28.4711L40.9161 28.8723C40.1942 28.9623 39.653 29.4135 39.4723 30.1354C39.2917 30.7673 39.4724 31.4885 39.9236 32.0305L42.0839 34.1229C42.5411 34.5657 42.7602 35.1999 42.6739 35.8306L42.268 38.7975C42.178 39.5194 42.4487 40.1506 42.9899 40.6018C43.5312 41.0531 44.2531 41.0531 44.885 40.7825L47.5639 39.3757C48.1461 39.0699 48.8414 39.0699 49.4236 39.3757L52.1025 40.7825C52.3731 40.9631 52.6437 40.9631 52.9144 40.9631C53.1404 40.9631 53.4874 41.3879 53.367 41.5792C50.2868 46.474 47.5783 52.5816 46.0568 60.2718C45.9913 60.6655 46.0211 61.0592 46.181 61.3836C46.3004 61.6259 46.4587 61.8511 46.5979 62.0826C46.7687 62.3669 46.9985 62.6054 47.32 62.7981C47.5906 62.9787 47.8612 62.9788 48.1319 62.9788C48.7637 62.9788 49.395 62.6181 49.6656 62.0762C50.0252 61.4461 58.9981 46.1922 76.2266 48.6114C76.3222 48.6248 76.4211 48.6323 76.5177 48.6323H76.6433H76.7333H77.0039H77.0939C77.1839 48.6323 77.3646 48.5423 77.4546 48.5423C77.5446 48.5423 77.5446 48.4523 77.6352 48.4523C77.6695 48.4523 77.6907 48.4393 77.7088 48.4231C77.7697 48.3689 77.8482 48.33 77.9058 48.2723C77.9711 48.2071 77.989 48.1891 78.0285 48.1497C78.0656 48.1126 78.0979 48.104 78.1414 48.0746C78.1742 48.0525 78.1883 47.9842 78.2105 47.9514L81.1901 43.5562C81.5623 43.0073 82.1824 42.6785 82.8456 42.6785H88.1916C88.9135 42.6785 89.5447 42.3179 89.8153 41.686C90.086 41.0541 90.086 40.3328 89.6347 39.7909L86.2715 35.201ZM50.8396 32.8423C50.3884 33.2936 50.2078 33.8349 50.2984 34.4661L50.3077 34.5126C50.4117 35.0327 49.8629 35.4389 49.3959 35.1873C49.1252 35.0067 48.8546 35.0067 48.584 35.0067C48.3134 35.0073 47.9527 35.0073 47.6821 35.188C47.2151 35.4395 46.6663 35.0334 46.7703 34.5132L46.7796 34.4667C46.8696 33.9255 46.6896 33.2936 46.2383 32.843C45.8458 32.486 46.0496 31.8331 46.5755 31.7629L46.5989 31.7598C47.2308 31.6698 47.6815 31.3086 47.9521 30.7673C48.2231 30.2641 48.9448 30.2641 49.2159 30.7673C49.4865 31.3086 50.0278 31.6698 50.569 31.7598C51.0863 31.8289 51.2743 32.4802 50.8733 32.8143L50.8396 32.8423ZM71.3211 28.8722C71.3211 28.8722 71.3211 28.8722 71.3211 28.8722L71.3843 31.3446C71.4011 32.0001 71.0955 32.6221 70.5665 33.0094L66.4562 36.019C66.3912 36.0666 66.3297 36.1042 66.2574 36.1394C64.8125 36.8444 63.0391 35.2988 64.22 34.2078C67.0049 31.6346 69.5684 29.9156 71.3211 28.8722C71.3211 28.8722 71.3211 28.8722 71.3211 28.8722ZM57.2465 49.173C57.2463 49.1731 57.2461 49.1728 57.2463 49.1726C59.952 45.5376 63.2119 41.981 66.7293 39.9145C67.1798 39.6498 67.7218 39.6026 68.2223 39.7527L71.9515 40.8712C72.5189 41.0414 72.9693 41.4749 73.1611 42.0354C73.5788 43.2562 72.6375 44.5194 71.3489 44.5857C65.7516 44.8738 60.9924 46.7535 57.2466 49.173C57.2466 49.173 57.2465 49.173 57.2465 49.173ZM80.795 38.7974C80.1631 38.7974 79.6219 39.0681 79.3512 39.6093C78.5026 40.8638 76.5821 40.5948 76.103 39.158C75.9224 38.6168 75.4712 38.1655 74.9299 37.9849C73.4801 37.5389 73.1618 35.629 74.3886 34.7368C74.8398 34.3762 75.1104 33.8343 75.1104 33.203C75.0738 31.6967 76.7793 30.7829 77.9979 31.6692C78.4492 32.0298 79.0804 32.1204 79.6217 31.9398C81.0372 31.4317 82.4434 32.7687 81.968 34.1955C81.7874 34.7368 81.878 35.3686 82.2386 35.8192C83.1711 37.013 82.3093 38.7603 80.795 38.7974Z" fill="#351415"/>
<path d="M23.7024 15.586C24.1957 16.0506 24.4203 16.7333 24.2991 17.4L23.7716 20.301C23.6816 21.0229 23.9522 21.6542 24.4935 22.1054C25.0348 22.466 25.7566 22.5567 26.3886 22.286L29.0675 20.8793C29.6497 20.5735 30.345 20.5735 30.9272 20.8793L33.4612 22.21C33.5576 22.2606 33.6574 22.3059 33.7638 22.3289C33.9823 22.376 34.2004 22.376 34.4186 22.376C34.7792 22.376 35.1405 22.286 35.5011 22.0154C36.0424 21.6548 36.313 20.9329 36.223 20.211L35.6922 17.292C35.5728 16.6352 35.789 15.9621 36.2685 15.4976L38.3887 13.444C38.8399 12.9928 39.0206 12.2709 38.8399 11.549C38.6593 10.9171 38.028 10.3758 37.3962 10.2858L34.3867 9.88463C33.7296 9.79703 33.1586 9.38952 32.8621 8.79659L31.5318 6.13583C31.2611 5.50394 30.6292 5.14331 29.908 5.14331C29.1861 5.14331 28.5549 5.50394 28.2843 6.13583L26.9539 8.7966C26.6574 9.38952 26.0864 9.79703 25.4293 9.88463L22.4199 10.2858C21.698 10.3758 21.1567 10.8271 20.9761 11.549C20.7955 12.1809 20.9761 12.9021 21.4273 13.444L23.7024 15.586ZM28.0123 13.2634C28.6442 13.1734 29.0949 12.8121 29.3655 12.2709C29.6365 11.7677 30.3582 11.7677 30.6293 12.2709C30.8999 12.8121 31.4411 13.1734 31.9824 13.2634L32.0058 13.2665C32.5317 13.3367 32.7355 13.9896 32.343 14.3465C31.8917 14.7978 31.7111 15.339 31.8018 15.9703L31.8111 16.0168C31.9151 16.5369 31.3662 16.9431 30.8992 16.6915C30.6286 16.5109 30.358 16.5109 30.0873 16.5109C29.833 16.5109 29.5787 16.5904 29.3244 16.6752C29.2918 16.686 29.2603 16.6997 29.23 16.716C28.7811 16.9578 28.2535 16.5674 28.3535 16.0674L28.373 15.9703C28.463 15.429 28.283 14.7971 27.8317 14.3465L27.7174 14.2426C27.3648 13.922 27.5414 13.3359 28.0123 13.2634Z" fill="#351415"/>
<path d="M48.511 10.3525C49.0065 10.817 49.2324 11.5012 49.1109 12.1695L48.5839 15.0677C48.4939 15.7896 48.7645 16.4209 49.3058 16.8721C49.8471 17.2327 50.5689 17.3234 51.2009 17.0527L53.8797 15.646C54.462 15.3402 55.1573 15.3402 55.7395 15.646L58.4183 17.0527C58.689 17.2334 58.9596 17.2334 59.2302 17.2334C59.5909 17.2334 59.9521 17.1434 60.3128 16.8727C60.854 16.5121 61.1247 15.7902 61.0347 15.0684L60.5043 12.1485C60.385 11.4918 60.6012 10.8189 61.0806 10.3545L63.201 8.30074C63.6522 7.84948 63.8328 7.1276 63.6522 6.40566C63.4716 5.68377 62.8403 5.23252 62.2085 5.14252L59.199 4.74132C58.5419 4.65372 57.9709 4.24621 57.6744 3.65328L56.344 0.992524C56.0734 0.360632 55.4415 0 54.7203 0C53.9984 0 53.3672 0.360632 53.0965 0.992524L51.7497 3.68612C51.4624 4.2608 50.9165 4.66244 50.2823 4.76569L47.4115 5.23315C46.6896 5.32315 46.1483 5.77441 45.9677 6.49629C45.7871 7.12818 45.9677 7.84943 46.419 8.39137L48.511 10.3525ZM52.8246 8.03008C53.4565 7.94008 53.9071 7.57881 54.1778 7.03755C54.4488 6.5344 55.1705 6.5344 55.4415 7.03755C55.7122 7.57881 56.2534 7.94007 56.7947 8.03008L56.8181 8.0332C57.344 8.1034 57.5478 8.75629 57.1553 9.11323C56.704 9.56449 56.5234 10.1058 56.614 10.737L56.6233 10.7835C56.7274 11.3036 56.1785 11.7098 55.7115 11.4582C55.4409 11.2776 55.1703 11.2776 54.8996 11.2776C54.6453 11.2776 54.391 11.3571 54.1367 11.4419C54.1041 11.4527 54.0725 11.4664 54.0423 11.4827C53.5934 11.7245 53.0658 11.3341 53.1658 10.8341L53.1852 10.737C53.2752 10.1957 53.0952 9.56384 52.644 9.11323L52.5297 9.00928C52.1771 8.6887 52.3537 8.10259 52.8246 8.03008Z" fill="#351415"/>
</svg>
