<svg width="66" height="89" viewBox="0 0 66 89" fill="none" xmlns="http://www.w3.org/2000/svg">
<path d="M40.1343 80.8026C40.1343 80.8026 40.1342 80.8026 40.1342 80.8026L39.529 79.8714C39.529 79.8713 39.5289 79.8714 39.5289 79.8715C39.5289 79.8716 39.5287 79.8716 39.5287 79.8715C36.5065 75.3877 34.2971 70.4078 33.0005 65.1594C32.9697 65.0348 32.9265 64.9136 32.8774 64.795C32.3491 63.5191 32.36 62.0807 32.913 60.8089C33.4918 59.4785 34.609 58.4574 35.9861 58.0007C37.3631 57.5441 38.8695 57.6948 40.1283 58.4158C41.3872 59.1362 42.2798 60.3594 42.5831 61.778C42.7591 62.3821 43.0787 62.9349 43.5146 63.3889C44.4461 64.3204 46.1129 65.9215 47.0717 66.8343C47.5387 67.2857 48.1545 67.5508 48.8034 67.5794C50.4079 67.6339 51.9305 68.3004 53.0594 69.4416C55.8533 72.2355 55.3408 77.2177 51.9604 80.6161C48.58 84.0152 43.5797 84.4804 40.7859 81.7152C40.5397 81.4327 40.3215 81.1267 40.1344 80.8026C40.1344 80.8026 40.1343 80.8026 40.1343 80.8026Z" fill="#351415"/>
<path d="M63.0357 79.654C64.29 78.3997 64.1075 76.1828 62.6271 74.7024C61.1474 73.2227 58.9305 73.0396 57.6755 74.2945C56.4212 75.5488 56.6037 77.7658 58.0841 79.2461C59.5638 80.7258 61.7807 80.909 63.0357 79.654Z" fill="#351415"/>
<path d="M57.9787 83.8801C58.7893 83.0688 58.6717 81.6365 57.7149 80.6797C56.7588 79.7235 55.3259 79.6053 54.5152 80.4166C53.7039 81.2273 53.8221 82.6602 54.7783 83.6163C55.7351 84.5732 57.1673 84.6907 57.9787 83.8801" fill="#351415"/>
<path d="M54.0392 86.1291C54.6355 85.5328 54.5472 84.4773 53.8411 83.7718C53.1357 83.0664 52.0807 82.978 51.4838 83.5743C50.8875 84.1706 50.9758 85.2262 51.6819 85.9317C52.3873 86.6371 53.4422 86.7254 54.0392 86.1291Z" fill="#351415"/>
<path d="M50.6037 87.3384C51.0403 86.9019 50.9753 86.1296 50.4589 85.6132C49.9425 85.0968 49.1701 85.0318 48.7336 85.4683C48.2971 85.9048 48.3621 86.6772 48.8785 87.1936C49.3949 87.71 50.1672 87.775 50.6037 87.3384Z" fill="#351415"/>
<path d="M47.5173 88.1109C47.9538 87.6744 47.8889 86.9021 47.3725 86.3857C46.8561 85.8692 46.0837 85.8043 45.6472 86.2408C45.2114 86.6773 45.2757 87.4496 45.7921 87.9661C46.3085 88.4825 47.0808 88.5474 47.5173 88.1109Z" fill="#351415"/>
<path d="M45.126 48.0985C45.126 48.0985 45.126 48.0985 45.126 48.0985C45.1117 47.4483 44.8596 46.8254 44.4179 46.3481C43.4864 45.4166 41.9411 43.7686 40.9726 42.791C40.5185 42.3551 39.9658 42.0355 39.3617 41.8595C38.2015 41.5997 37.17 40.9404 36.4471 39.9972C35.5007 38.791 35.1467 37.2235 35.4825 35.7282C35.819 34.2329 36.8096 32.9675 38.1802 32.2822C39.4961 31.6246 41.0284 31.5681 42.3853 32.1203C42.4994 32.1667 42.6159 32.2077 42.7356 32.2373C47.9869 33.5336 52.9693 35.7444 57.4555 38.7675L58.3867 39.3727C58.3868 39.3727 58.3867 39.3729 58.3866 39.3729C58.3865 39.3729 58.3865 39.373 58.3866 39.373C58.6866 39.5737 58.9665 39.801 59.2243 40.053C62.0181 42.8468 61.5056 47.829 58.1252 51.2275C54.745 54.6265 49.7448 55.0917 46.9509 52.3268C46.9509 52.3267 46.9509 52.3265 46.951 52.3265C46.9512 52.3265 46.9512 52.3264 46.9511 52.3263C45.8295 51.1987 45.1774 49.688 45.126 48.0985C45.126 48.0985 45.126 48.0985 45.126 48.0985Z" fill="#351415"/>
<path d="M57.1639 62.3213C58.4189 61.067 58.2357 58.85 56.756 57.3697C55.2756 55.89 53.0587 55.7068 51.8044 56.9618C50.5494 58.2161 50.7326 60.4331 52.2123 61.9134C53.6926 63.3931 55.9096 63.5763 57.1639 62.3213Z" fill="#351415"/>
<path d="M61.3992 57.2626C62.2105 56.4513 62.0923 55.0191 61.1361 54.0622C60.1793 53.1061 58.7471 52.9879 57.9357 53.7992C57.1251 54.6098 57.2426 56.0427 58.1995 56.9989C59.1556 57.9557 60.5885 58.0733 61.3992 57.2626" fill="#351415"/>
<path d="M63.6342 53.3283C64.2305 52.732 64.1422 51.6765 63.4367 50.971C62.7313 50.2656 61.6757 50.1772 61.0794 50.7735C60.4831 51.3698 60.5714 52.4254 61.2769 53.1309C61.9823 53.8363 63.0379 53.9246 63.6342 53.3283Z" fill="#351415"/>
<path d="M64.8398 49.8995C65.2763 49.463 65.2114 48.6906 64.695 48.1742C64.1786 47.6578 63.4062 47.5935 62.9697 48.0294C62.5332 48.4659 62.5982 49.2382 63.1146 49.7546C63.631 50.271 64.4033 50.336 64.8398 49.8995Z" fill="#351415"/>
<path d="M65.6296 46.7981C66.0661 46.3623 66.0012 45.59 65.4847 45.0736C64.9683 44.5571 64.196 44.4922 63.7602 44.9281C63.3236 45.3646 63.3886 46.1369 63.905 46.6533C64.4214 47.1697 65.1938 47.2347 65.6296 46.7982" fill="#351415"/>
<path d="M2.88535 27.3321C2.88534 27.3321 2.88533 27.3321 2.88534 27.3321C3.78303 26.6397 4.88462 26.2643 6.01887 26.2643C7.15236 26.2643 8.25463 26.6397 9.15243 27.3321C10.0956 28.0551 10.7549 29.0867 11.0147 30.2467C11.1907 30.8508 11.5103 31.4036 11.9462 31.8576C12.8777 32.7891 14.5445 34.3902 15.5033 35.303C15.9807 35.7453 16.6037 35.9967 17.2538 36.011C18.8323 36.05 20.338 36.6814 21.4721 37.7805C24.2659 40.5743 23.7534 45.5565 20.373 48.955C16.9927 52.3541 11.9924 52.8192 9.19852 50.0541C8.94714 49.7962 8.71914 49.5156 8.51908 49.2155L7.91387 48.2843C7.91381 48.2842 7.91369 48.2842 7.91369 48.2843C7.91369 48.2844 7.91356 48.2844 7.91351 48.2844C4.88729 43.7946 2.67604 38.8074 1.38013 33.5512C1.35285 33.4405 1.31575 33.3325 1.27397 33.2265C0.881554 32.2305 0.811852 31.1345 1.07766 30.0941C1.35762 28.9989 1.99353 28.0271 2.88536 27.3322C2.88537 27.3322 2.88536 27.3321 2.88535 27.3321Z" fill="#351415"/>
<path d="M31.4488 48.0669C32.7038 46.8126 32.5206 44.5956 31.0409 43.1153C29.5605 41.6356 27.3436 41.4524 26.0893 42.7074C24.8343 43.9617 25.0168 46.1787 26.4972 47.659C27.9776 49.1394 30.1945 49.3219 31.4488 48.0669Z" fill="#351415"/>
<path d="M26.3919 52.2924C27.2032 51.4811 27.085 50.0489 26.1288 49.092C25.172 48.1359 23.7397 48.0176 22.9284 48.829C22.1177 49.6396 22.2353 51.0725 23.1921 52.0287C24.1483 52.9855 25.5812 53.1031 26.3919 52.2924" fill="#351415"/>
<path d="M22.4525 54.5422C23.0488 53.9459 22.9605 52.8903 22.255 52.1849C21.5496 51.4794 20.494 51.3911 19.8977 51.9874C19.3014 52.5837 19.3897 53.6393 20.0952 54.3447C20.8006 55.0502 21.8562 55.1391 22.4525 54.5422Z" fill="#351415"/>
<path d="M19.017 55.751C19.4535 55.3145 19.3886 54.5422 18.8722 54.0258C18.3557 53.5094 17.5834 53.4444 17.1469 53.8809C16.7104 54.3174 16.7753 55.0898 17.2918 55.6062C17.8082 56.1226 18.5805 56.1876 19.017 55.751Z" fill="#351415"/>
<path d="M15.9305 56.5245C16.3664 56.088 16.3021 55.3156 15.7856 54.7992C15.2692 54.2828 14.4963 54.2179 14.0604 54.6544C13.6239 55.0909 13.6888 55.8632 14.2052 56.3796C14.7217 56.896 15.494 56.961 15.9305 56.5245Z" fill="#351415"/>
<path d="M26.4734 19.6678C26.4734 19.6678 26.4733 19.6679 26.4733 19.6679C23.1022 23.0389 18.0929 23.532 15.2991 20.7671C15.2989 20.767 15.2987 20.7669 15.2985 20.7669C15.2983 20.7669 15.2981 20.7668 15.298 20.7667C14.1841 19.6261 13.545 18.1048 13.5106 16.5109C13.4963 15.8607 13.2449 15.2378 12.8026 14.7604C11.8711 13.8289 10.3257 12.1809 9.35721 11.2033C8.90316 10.7674 8.35038 10.4478 7.74628 10.2718C6.58615 10.0126 5.55459 9.35329 4.83173 8.4095C3.89181 7.20325 3.54298 5.63912 3.88075 4.14701C4.21787 2.65559 5.20653 1.39408 6.57448 0.710131C7.88716 0.0534763 9.41649 -0.00509834 10.7718 0.543585C10.8847 0.589266 10.9998 0.629623 11.118 0.658794C16.3701 1.95508 21.3533 4.16558 25.8401 7.18955L26.7713 7.79476C26.7714 7.79482 26.7714 7.79494 26.7713 7.79494C26.7712 7.79494 26.7711 7.79507 26.7712 7.79512C27.0712 7.99514 27.3517 8.22308 27.6096 8.47439C30.3377 11.2961 29.8442 16.2971 26.4735 19.6676C26.4735 19.6676 26.4734 19.6677 26.4734 19.6678Z" fill="#351415"/>
<path d="M25.5837 30.7396C26.838 29.4846 26.6555 27.2676 25.1751 25.7873C23.6954 24.3076 21.4785 24.1244 20.2235 25.3794C18.9692 26.6337 19.1517 28.8507 20.6321 30.331C22.1118 31.8114 24.3287 31.9939 25.5837 30.7396" fill="#351415"/>
<path d="M29.8059 25.681C30.6172 24.8704 30.499 23.4374 29.5428 22.4806C28.5867 21.5245 27.1537 21.4062 26.3424 22.2175C25.5318 23.0282 25.6493 24.4611 26.6061 25.418C27.5623 26.3741 28.9952 26.4917 29.8059 25.681" fill="#351415"/>
<path d="M32.0641 21.7465C32.6604 21.1502 32.5721 20.0947 31.8667 19.3892C31.1612 18.6838 30.1056 18.5955 29.5093 19.1917C28.913 19.788 29.0014 20.8436 29.7068 21.5491C30.4122 22.2545 31.4678 22.3435 32.0641 21.7465Z" fill="#351415"/>
<path d="M33.2596 18.3094C33.6961 17.8729 33.6312 17.1005 33.1148 16.5841C32.5983 16.0677 31.826 16.0028 31.3895 16.4393C30.9536 16.8758 31.0179 17.6481 31.5344 18.1645C32.0508 18.6809 32.8231 18.7459 33.2596 18.3094Z" fill="#351415"/>
<path d="M34.0363 15.2181C34.4721 14.7816 34.4078 14.0093 33.8914 13.4929C33.375 12.9764 32.6027 12.9115 32.1662 13.348C31.7297 13.7845 31.7946 14.5568 32.311 15.0733C32.8274 15.5897 33.5998 15.654 34.0363 15.2181Z" fill="#351415"/>
</svg>
