<svg width="20" height="20" viewBox="0 0 20 20" fill="none" xmlns="http://www.w3.org/2000/svg">
<path d="M11.7238 7.18856L7.99118 10.921C7.51197 11.4002 6.77562 11.5094 6.17797 11.1899L2.29651 9.11472L2.22125 9.06097C1.66379 8.66281 1.2024 8.33327 0.867882 8.04546C0.537842 7.76151 0.207065 7.41829 0.078532 6.96103C-0.0958368 6.34071 0.023699 5.67516 0.401934 5.15425C0.680963 4.76996 1.11016 4.56261 1.51822 4.41058C1.93242 4.25627 2.48043 4.10683 3.14267 3.92624L16.0555 0.404602C16.6143 0.252189 17.0846 0.123913 17.465 0.0566215C17.8501 -0.0115127 18.2703 -0.0436157 18.6735 0.110362C19.2335 0.32415 19.6757 0.766373 19.8895 1.3263C20.0433 1.72919 20.0117 2.14901 19.9437 2.53441C19.8763 2.91707 19.7472 3.39046 19.5936 3.95355L16.0754 16.8534C15.8943 17.5173 15.7445 18.0666 15.5898 18.4817C15.4377 18.8898 15.2302 19.3191 14.846 19.5981C14.325 19.9763 13.6595 20.0958 13.0392 19.9215C12.5819 19.7929 12.2385 19.462 11.9545 19.1319C11.6664 18.7971 11.3366 18.3353 10.938 17.7773L10.885 17.7031L8.81013 13.8221C8.49061 13.2244 8.59981 12.4881 9.07901 12.0089L12.8116 8.27645C13.112 7.97605 13.112 7.489 12.8116 7.18859C12.5112 6.88818 12.0242 6.88817 11.7238 7.18856Z" fill="#2D222D"/>
</svg>
