<svg width="23" height="26" viewBox="0 0 23 26" fill="none" xmlns="http://www.w3.org/2000/svg">
<path fill-rule="evenodd" clip-rule="evenodd" d="M7.3923 0.479682C7.67247 0.951269 7.52697 1.56659 7.06732 1.85403L2.80308 4.5207C2.34343 4.80814 1.74369 4.65886 1.46353 4.18727C1.18336 3.71569 1.32886 3.10037 1.78851 2.81293L6.05275 0.14626C6.5124 -0.141183 7.11213 0.00809437 7.3923 0.479682ZM15.9619 0.479682C16.2421 0.00809437 16.8418 -0.141183 17.3015 0.14626L21.5657 2.81293C22.0254 3.10037 22.1709 3.71569 21.8907 4.18727C21.6106 4.65886 21.0108 4.80814 20.5512 4.5207L16.2869 1.85403C15.8273 1.56659 15.6818 0.951269 15.9619 0.479682ZM0.468262 14.3335C0.468262 7.90506 5.47223 2.66681 11.6771 2.66681C17.882 2.66681 22.886 7.90506 22.886 14.3335C22.886 20.7619 17.882 26.0001 11.6771 26.0001C5.47223 26.0001 0.468262 20.7619 0.468262 14.3335ZM11.6771 6.83775C12.2154 6.83775 12.6518 7.28547 12.6518 7.83775V13.5448C12.6518 13.7456 12.7395 13.9307 12.8828 14.0501L16.2281 16.8395C16.6458 17.1878 16.7092 17.8176 16.3697 18.2462C16.0302 18.6748 15.4164 18.7399 14.9986 18.3916L11.6533 15.6022C11.0496 15.0988 10.7024 14.341 10.7024 13.5448V7.83775C10.7024 7.28547 11.1388 6.83775 11.6771 6.83775Z" fill="#351415"/>
</svg>
