<svg width="20" height="20" viewBox="0 0 20 20" fill="none" xmlns="http://www.w3.org/2000/svg">
<path fill-rule="evenodd" clip-rule="evenodd" d="M10 0C4.47715 0 0 4.47715 0 10C0 15.5228 4.47715 20 10 20H16.6289C17.1126 20 17.5298 20 17.8712 19.9669C18.2327 19.9319 18.5894 19.8541 18.9201 19.6463C19.2136 19.4618 19.4618 19.2136 19.6463 18.9201C19.8541 18.5894 19.9319 18.2327 19.9669 17.8712C20 17.5298 20 17.1126 20 16.6289V10C20 4.47715 15.5228 0 10 0ZM4.61538 8.46154C4.61538 8.0367 4.95978 7.69231 5.38461 7.69231H10.7692C11.1941 7.69231 11.5385 8.0367 11.5385 8.46154C11.5385 8.88637 11.1941 9.23077 10.7692 9.23077H5.38461C4.95978 9.23077 4.61538 8.88637 4.61538 8.46154ZM4.61538 11.5385C4.61538 11.1136 4.95978 10.7692 5.38461 10.7692H14.6154C15.0402 10.7692 15.3846 11.1136 15.3846 11.5385C15.3846 11.9633 15.0402 12.3077 14.6154 12.3077H5.38461C4.95978 12.3077 4.61538 11.9633 4.61538 11.5385Z" fill="#2D222D"/>
</svg>
