<svg dysplay="none"
	xmlns="http://www.w3.org/2000/svg">
	<symbol id="logo" viewBox="0 0 73 95" fill="#ff0099">
		<path d="M70.2891 27.5664C71.2396 27.6315 71.9102 27.9831 72.3008 28.6211C72.6914 29.2461 72.8997 29.9883 72.9258 30.8477C72.9518 31.707 72.9062 32.5013 72.7891 33.2305C72.3073 36.1341 71.6432 38.9857 70.7969 41.7852C70.7448 41.9674 70.6927 42.1562 70.6406 42.3516C70.1458 44.0833 69.6445 45.8151 69.1367 47.5469C68.1341 50.9062 67.1771 54.2721 66.2656 57.6445C66.513 57.6706 66.7539 57.6966 66.9883 57.7227C67.1836 57.7747 67.3008 57.8789 67.3398 58.0352C67.3919 58.1784 67.3724 58.3151 67.2812 58.4453C67.1901 58.5755 67.0469 58.6276 66.8516 58.6016C66.5781 58.5495 66.3112 58.5039 66.0508 58.4648C65.582 60.2096 65.1458 61.9674 64.7422 63.7383C64 66.9935 63.4206 70.2878 63.0039 73.6211C62.5872 76.9674 62.6784 80.2943 63.2773 83.6016C63.4076 84.1745 63.5703 84.7279 63.7656 85.2617C63.8568 85.5352 63.8503 85.7891 63.7461 86.0234C63.6419 86.2578 63.4596 86.4271 63.1992 86.5312C62.9258 86.6224 62.6654 86.6029 62.418 86.4727C62.1706 86.3555 62.0013 86.1536 61.9102 85.8672C61.7409 85.2292 61.6042 84.5846 61.5 83.9336C61.2005 81.7461 61.1419 79.5456 61.3242 77.332C61.5065 75.1315 61.793 72.9505 62.1836 70.7891C62.9648 66.5833 63.9154 62.4167 65.0352 58.2891C60.4648 57.5599 55.8555 57.2409 51.207 57.332C48.6289 60.9909 46.168 64.474 43.8242 67.7812C41.4935 71.0885 39.5664 73.8164 38.043 75.9648C36.5326 78.1263 35.7773 79.207 35.7773 79.207C35.5039 79.5326 35.1979 79.6628 34.8594 79.5977C34.5339 79.5456 34.2865 79.3698 34.1172 79.0703C33.9479 78.7839 33.974 78.4518 34.1953 78.0742C34.3125 77.8919 35.7773 75.8086 38.5898 71.8242C41.4023 67.8398 44.7943 63.0286 48.7656 57.3906C47.8672 57.4297 46.9688 57.4818 46.0703 57.5469C43.1536 57.7552 40.2891 58.2826 37.4766 59.1289C37.0078 59.2331 36.6562 59.1419 36.4219 58.8555C36.2005 58.569 36.1289 58.25 36.207 57.8984C36.2982 57.5339 36.5846 57.306 37.0664 57.2148C41.1549 56.7982 45.25 56.5833 49.3516 56.5703C50.9271 54.3177 52.5091 52.0651 54.0977 49.8125C58.2513 43.9271 61.819 38.8685 64.8008 34.6367C67.7956 30.3919 69.3646 28.1654 69.5078 27.957C69.7161 27.6966 69.9766 27.5664 70.2891 27.5664ZM69.4688 42.0195C69.4948 41.9284 69.5273 41.8047 69.5664 41.6484C69.7878 40.7891 70.0872 39.4935 70.4648 37.7617C70.8424 36.0299 71.0964 34.3633 71.2266 32.7617C71.3698 31.1602 71.2005 30.125 70.7188 29.6562C70.3281 30.1901 68.2839 33.0807 64.5859 38.3281C60.888 43.5755 56.6042 49.6628 51.7344 56.5898C56.2526 56.6549 60.7578 56.9609 65.25 57.5078C65.8099 55.4375 66.3763 53.3737 66.9492 51.3164C67.8216 48.2305 68.6615 45.1315 69.4688 42.0195Z" fill="white"/>
		<path d="M38.4805 19.1055C40.9805 21.8398 42.5951 25.0104 43.3242 28.6172C44.0664 32.2109 44.0469 35.7917 43.2656 39.3594C42.4062 43.4089 40.8372 47.0286 38.5586 50.2188C36.2799 53.4089 33.5065 56.0977 30.2383 58.2852C26.9701 60.4857 23.4089 62.1198 19.5547 63.1875C15.7135 64.2552 11.8008 64.6914 7.81641 64.4961C4.9388 64.4049 3.00521 63.7539 2.01562 62.543C1.02604 61.332 0.791667 59.8477 1.3125 58.0898C1.84635 56.332 2.95312 54.5807 4.63281 52.8359C5.38802 52.0417 6.1888 51.306 7.03516 50.6289C7.79036 46.5794 8.9362 42.2826 10.4727 37.7383C12.0221 33.181 13.9492 28.8125 16.2539 24.6328C18.5716 20.4531 21.2474 16.8854 24.2812 13.9297C24.099 13.9036 23.9102 13.8841 23.7148 13.8711C20.4987 13.6237 17.4062 14.125 14.4375 15.375C11.8724 16.4818 9.65234 18.1224 7.77734 20.2969C5.91536 22.4714 4.76953 24.9518 4.33984 27.7383C4.15755 29.3138 4.40495 30.8112 5.08203 32.2305C5.23828 32.6211 5.19922 32.9336 4.96484 33.168C4.74349 33.4023 4.47005 33.5 4.14453 33.4609C3.81901 33.4089 3.59766 33.1745 3.48047 32.7578C3.05078 30.4922 3.15495 28.2786 3.79297 26.1172C4.43099 23.9557 5.45964 21.9766 6.87891 20.1797C8.29818 18.3828 9.95182 16.8789 11.8398 15.668C13.806 14.444 15.9219 13.5781 18.1875 13.0703C20.6354 12.5365 23.1159 12.4258 25.6289 12.7383C27.2435 11.3581 28.9557 10.2513 30.7656 9.41797C32.5885 8.57161 34.4961 8.05729 36.4883 7.875C37.9206 7.78385 39.3398 7.88151 40.7461 8.16797C41.0195 8.23307 41.2279 8.3763 41.3711 8.59766C41.5143 8.80599 41.5599 9.04688 41.5078 9.32031C41.4427 9.59375 41.2995 9.80208 41.0781 9.94531C40.8568 10.0885 40.6029 10.1341 40.3164 10.082C37.9857 9.60026 35.7656 9.64583 33.6562 10.2188C31.5599 10.7786 29.5938 11.7422 27.7578 13.1094C31.9245 14.0469 35.4987 16.0456 38.4805 19.1055ZM41.4297 38.9883C41.9635 36.293 42.0612 33.5781 41.7227 30.8438C41.3971 28.1094 40.5508 25.5378 39.1836 23.1289C37.7773 20.7852 35.9414 18.8581 33.6758 17.3477C31.4232 15.8372 28.9688 14.8021 26.3125 14.2422C23.6172 16.612 21.2214 19.4701 19.125 22.8164C17.0417 26.1628 15.2708 29.5872 13.8125 33.0898C12.3542 36.5924 11.2279 39.75 10.4336 42.5625C9.80859 44.776 9.28125 47.0221 8.85156 49.3008C11.6901 47.4128 14.7826 46.1302 18.1289 45.4531C20.6159 44.9453 23.1224 44.8542 25.6484 45.1797C26.4948 45.2969 27.3281 45.4596 28.1484 45.668C28.3828 45.7331 28.5521 45.8633 28.6562 46.0586C28.7734 46.2539 28.806 46.4688 28.7539 46.7031C28.6888 46.9375 28.5521 47.1068 28.3438 47.2109C28.1484 47.3281 27.9336 47.3542 27.6992 47.2891C26.944 47.0677 26.1823 46.8919 25.4141 46.7617C22.4583 46.306 19.5286 46.4427 16.625 47.1719C13.7344 47.901 11.0586 49.112 8.59766 50.8047C8.25911 52.9271 8.08984 55.0625 8.08984 57.2109C8.0638 57.6536 7.88802 57.9466 7.5625 58.0898C7.25 58.2331 6.9375 58.2266 6.625 58.0703C6.3125 57.9271 6.14974 57.6276 6.13672 57.1719C6.25391 55.6484 6.46224 53.9948 6.76172 52.2109C6.26693 52.6276 5.79167 53.0638 5.33594 53.5195C4.33333 54.4701 3.48047 55.5443 2.77734 56.7422C1.85286 58.3698 1.57943 59.8216 1.95703 61.0977C2.33464 62.3867 3.5 63.2331 5.45312 63.6367C7.44531 63.9492 9.45052 64.0273 11.4688 63.8711C15.0104 63.6367 18.4349 62.875 21.7422 61.5859C26.7422 59.6719 31.0065 56.7487 34.5352 52.8164C38.0638 48.8971 40.362 44.2878 41.4297 38.9883Z" fill="white"/>
	</symbol>
	<symbol id="tg" viewBox="0 0 20 20" fill="#ff0099">
		<path d="M11.7238 7.18856L7.99118 10.921C7.51197 11.4002 6.77562 11.5094 6.17797 11.1899L2.29651 9.11472L2.22125 9.06097C1.66379 8.66281 1.2024 8.33327 0.867882 8.04546C0.537842 7.76151 0.207065 7.41829 0.078532 6.96103C-0.0958368 6.34071 0.023699 5.67516 0.401934 5.15425C0.680963 4.76996 1.11016 4.56261 1.51822 4.41058C1.93242 4.25627 2.48043 4.10683 3.14267 3.92624L16.0555 0.404602C16.6143 0.252189 17.0846 0.123913 17.465 0.0566215C17.8501 -0.0115127 18.2703 -0.0436157 18.6735 0.110362C19.2335 0.32415 19.6757 0.766373 19.8895 1.3263C20.0433 1.72919 20.0117 2.14901 19.9437 2.53441C19.8763 2.91707 19.7472 3.39046 19.5936 3.95355L16.0754 16.8534C15.8943 17.5173 15.7445 18.0666 15.5898 18.4817C15.4377 18.8898 15.2302 19.3191 14.846 19.5981C14.325 19.9763 13.6595 20.0958 13.0392 19.9215C12.5819 19.7929 12.2385 19.462 11.9545 19.1319C11.6664 18.7971 11.3366 18.3353 10.938 17.7773L10.885 17.7031L8.81013 13.8221C8.49061 13.2244 8.59981 12.4881 9.07901 12.0089L12.8116 8.27645C13.112 7.97605 13.112 7.489 12.8116 7.18859C12.5112 6.88818 12.0242 6.88817 11.7238 7.18856Z" fill="#2D222D"/>
	</symbol>
	<symbol id="inst" viewBox="0 0 20 20" fill="#ff0099">
		<path id="inst-1" fill-rule="evenodd" clip-rule="evenodd" d="M13.4195 0.0603385C12.5351 -5.00335e-06 11.4381 -2.80375e-06 10.0289 3.89307e-08H9.97112C8.56188 -2.80375e-06 7.46495 -5.00335e-06 6.58053 0.0603385C5.68317 0.121565 4.94853 0.247476 4.27373 0.526988C2.57738 1.22964 1.22964 2.57738 0.526988 4.27373C0.247476 4.94853 0.121565 5.68317 0.0603385 6.58053C-5.00335e-06 7.46495 -2.80375e-06 8.56188 3.89307e-08 9.97112V10.0289C-2.80375e-06 11.4381 -5.00335e-06 12.5351 0.0603385 13.4195C0.121565 14.3168 0.247476 15.0515 0.526988 15.7263C1.22964 17.4226 2.57738 18.7704 4.27373 19.473C4.94853 19.7525 5.68316 19.8784 6.58053 19.9397C7.46494 20 8.56188 20 9.97112 20H10.0289C11.4381 20 12.5351 20 13.4195 19.9397C14.3168 19.8784 15.0515 19.7525 15.7263 19.473C17.4226 18.7704 18.7704 17.4226 19.473 15.7263C19.7525 15.0515 19.8784 14.3168 19.9397 13.4195C20 12.5351 20 11.4381 20 10.0289V9.97112C20 8.56188 20 7.46494 19.9397 6.58053C19.8784 5.68316 19.7525 4.94853 19.473 4.27373C18.7704 2.57738 17.4226 1.22964 15.7263 0.526988C15.0515 0.247476 14.3168 0.121565 13.4195 0.0603385ZM5.38462 10C5.38462 7.45099 7.45099 5.38462 10 5.38462C12.549 5.38462 14.6154 7.45099 14.6154 10C14.6154 12.549 12.549 14.6154 10 14.6154C7.45099 14.6154 5.38462 12.549 5.38462 10Z" fill="#2D222D"/>
		<path id="inst-2" d="M6.92308 10C6.92308 8.30066 8.30066 6.92308 10 6.92308C11.6993 6.92308 13.0769 8.30066 13.0769 10C13.0769 11.6993 11.6993 13.0769 10 13.0769C8.30066 13.0769 6.92308 11.6993 6.92308 10Z" fill="#2D222D"/>
	</symbol>
	<symbol id="wa" viewBox="0 0 20 20" fill="#ff0099">
		<path fill-rule="evenodd" clip-rule="evenodd" d="M10 0C4.47715 0 0 4.47715 0 10C0 15.5228 4.47715 20 10 20H16.6289C17.1126 20 17.5298 20 17.8712 19.9669C18.2327 19.9319 18.5894 19.8541 18.9201 19.6463C19.2136 19.4618 19.4618 19.2136 19.6463 18.9201C19.8541 18.5894 19.9319 18.2327 19.9669 17.8712C20 17.5298 20 17.1126 20 16.6289V10C20 4.47715 15.5228 0 10 0ZM4.61538 8.46154C4.61538 8.0367 4.95978 7.69231 5.38461 7.69231H10.7692C11.1941 7.69231 11.5385 8.0367 11.5385 8.46154C11.5385 8.88637 11.1941 9.23077 10.7692 9.23077H5.38461C4.95978 9.23077 4.61538 8.88637 4.61538 8.46154ZM4.61538 11.5385C4.61538 11.1136 4.95978 10.7692 5.38461 10.7692H14.6154C15.0402 10.7692 15.3846 11.1136 15.3846 11.5385C15.3846 11.9633 15.0402 12.3077 14.6154 12.3077H5.38461C4.95978 12.3077 4.61538 11.9633 4.61538 11.5385Z" fill="#2D222D"/>
	</symbol>
	<symbol id="pencil" viewBox="0 0 22 22" fill="#ff0099">
		<path d="M12.5507 3.50376L12.9524 3.10206C14.3538 1.70069 15.0545 1 15.9252 1C16.7959 1 17.4966 1.70069 18.8979 3.10206C20.2993 4.50343 21 5.20412 21 6.07482C21 6.94552 20.2993 7.64621 18.8979 9.04758L18.4962 9.44928M12.5507 3.50376L2.23634 13.8181C1.61728 14.4372 1.30775 14.7468 1.14757 15.1411C0.987394 15.5354 0.993392 15.9731 1.00538 16.8485L1.0334 18.8935C1.04664 19.8598 1.05325 20.343 1.35514 20.6449C1.65704 20.9468 2.14018 20.9534 3.10646 20.9666L5.15151 20.9946C6.02692 21.0066 6.46462 21.0126 6.85894 20.8524C7.25326 20.6922 7.56279 20.3827 8.18185 19.7637L18.4962 9.44928M12.5507 3.50376L18.4962 9.44928M12.579 20.9946L21 20.9946" stroke="#FCF7F2" stroke-linecap="round"/>
	</symbol>
	<symbol id="menu-btn" viewBox="0 0 35 26" fill="none">
		<path d="M0 1H35" stroke="#FCF7F2" stroke-width="2"/>
		<path d="M0 13H35" stroke="#FCF7F2" stroke-width="2"/>
		<path d="M0 25H35" stroke="#FCF7F2" stroke-width="2"/>
	</symbol>

	<symbol id="close-btn" viewBox="0 0 23 23" fill="none">
		<path d="M1 1L22 22" stroke="white" stroke-width="2"/>
		<path d="M22 1L1 22" stroke="white" stroke-width="2"/>
	</symbol>
</svg>


